SplineFontDB: 3.2
FontName: RobotoLegacy-CondBold
FullName: Roboto Legacy Cond Bold
FamilyName: Roboto Legacy Cond
Weight: Bold
Copyright: Font data copyright Google 2011
Version: 1.00000; 2011
ItalicAngle: 0
UnderlinePosition: -200
UnderlineWidth: 100
Ascent: 1536
Descent: 512
InvalidEm: 0
sfntRevision: 0x00010000
LayerCount: 2
Layer: 0 1 "Back" 1
Layer: 1 1 "Fore" 0
XUID: [1021 474 -1613799265 7196]
StyleMap: 0x0020
FSType: 4
OS2Version: 3
OS2_WeightWidthSlopeOnly: 0
OS2_UseTypoMetrics: 0
CreationTime: 1221222574
ModificationTime: 1744076400
PfmFamily: 81
TTFWeight: 700
TTFWidth: 3
LineGap: 0
VLineGap: 0
Panose: 0 0 0 0 0 0 0 0 0 0
OS2TypoAscent: 1536
OS2TypoAOffset: 0
OS2TypoDescent: -512
OS2TypoDOffset: 0
OS2TypoLinegap: 102
OS2WinAscent: 1946
OS2WinAOffset: 0
OS2WinDescent: 512
OS2WinDOffset: 0
HheadAscent: 1900
HheadAOffset: 0
HheadDescent: -500
HheadDOffset: 0
OS2SubXSize: 1434
OS2SubYSize: 1331
OS2SubXOff: 0
OS2SubYOff: 287
OS2SupXSize: 1434
OS2SupYSize: 1331
OS2SupXOff: 0
OS2SupYOff: 977
OS2StrikeYSize: 102
OS2StrikeYPos: 512
OS2CapHeight: 1456
OS2XHeight: 1082
OS2Vendor: 'pyrs'
OS2CodePages: 2000019f.4f010000
OS2UnicodeRanges: e00002ef.5000205b.00000020.00000000
Lookup: 1 0 0 "'smcp' Lowercase to Small Capitals lookup 0" { "'smcp' Lowercase to Small Capitals lookup 0 subtable"  } ['smcp' ('DFLT' <'dflt' > ) ]
Lookup: 4 0 1 "'liga' Standard Ligatures lookup 1" { "'liga' Standard Ligatures lookup 1 subtable"  } ['liga' ('DFLT' <'dflt' > ) ]
Lookup: 258 0 0 "'kern' Horizontal Kerning lookup 0" { "'kern' Horizontal Kerning lookup 0 per glyph data 0"  "'kern' Horizontal Kerning lookup 0 per glyph data 1"  "'kern' Horizontal Kerning lookup 0 per glyph data 2"  "'kern' Horizontal Kerning lookup 0 kerning class 3"  } ['kern' ('DFLT' <'dflt' > ) ]
MarkAttachClasses: 1
DEI: 91125
KernClass2: 32+ 29 "'kern' Horizontal Kerning lookup 0 kerning class 3"

StartChar: exclam
Encoding: 33 33 4
Width: 508
GlyphClass: 1
Flags: W
LayerCount: 2
Fore
SplineSet
397 504 m 1,0,-1
 114 504 l 1,1,-1
 114 1456 l 1,2,-1
 397 1456 l 1,3,-1
 397 504 l 1,0,-1
395 0 m 1,4,-1
 116 0 l 1,5,-1
 116 253 l 1,6,-1
 395 253 l 1,7,-1
 395 0 l 1,4,-1
EndSplineSet
EndChar

StartChar: quotedbl
Encoding: 34 34 5
Width: 783
GlyphClass: 1
Flags: W
LayerCount: 2
Fore
SplineSet
352 1190 m 1,0,-1
 258 939 l 1,1,-1
 135 939 l 1,2,-1
 133 1178 l 1,3,-1
 133 1456 l 1,4,-1
 352 1456 l 1,5,-1
 352 1190 l 1,0,-1
668 1190 m 1,6,-1
 574 939 l 1,7,-1
 452 939 l 1,8,-1
 451 1186 l 1,9,-1
 451 1456 l 1,10,-1
 668 1456 l 1,11,-1
 668 1190 l 1,6,-1
EndSplineSet
EndChar

StartChar: numbersign
Encoding: 35 35 6
Width: 1050
GlyphClass: 1
Flags: W
LayerCount: 2
Fore
SplineSet
549 410 m 1,0,-1
 406 410 l 1,1,-1
 346 0 l 1,2,-1
 174 0 l 1,3,-1
 234 410 l 1,4,-1
 43 410 l 1,5,-1
 43 573 l 1,6,-1
 258 573 l 1,7,-1
 303 876 l 1,8,-1
 108 876 l 1,9,-1
 108 1040 l 1,10,-1
 327 1040 l 1,11,-1
 388 1456 l 1,12,-1
 560 1456 l 1,13,-1
 499 1040 l 1,14,-1
 642 1040 l 1,15,-1
 704 1456 l 1,16,-1
 875 1456 l 1,17,-1
 814 1040 l 1,18,-1
 1003 1040 l 1,19,-1
 1003 876 l 1,20,-1
 790 876 l 1,21,-1
 745 573 l 1,22,-1
 938 573 l 1,23,-1
 938 410 l 1,24,-1
 721 410 l 1,25,-1
 661 0 l 1,26,-1
 489 0 l 1,27,-1
 549 410 l 1,0,-1
430 573 m 1,28,-1
 573 573 l 1,29,-1
 618 876 l 1,30,-1
 475 876 l 1,31,-1
 430 573 l 1,28,-1
EndSplineSet
EndChar

StartChar: dollar
Encoding: 36 36 7
Width: 1069
GlyphClass: 1
Flags: W
LayerCount: 2
Fore
SplineSet
691 380 m 0,0,1
 691 465 691 465 655.5 514.5 c 128,-1,2
 620 564 620 564 528 613 c 1,3,4
 328 691 328 691 233 790 c 128,-1,5
 138 889 138 889 138 1073 c 0,6,7
 138 1240 138 1240 234 1347.5 c 128,-1,8
 330 1455 330 1455 494 1474 c 1,9,-1
 494 1685 l 1,10,-1
 639 1685 l 1,11,-1
 639 1470 l 1,12,13
 796 1444 796 1444 885.5 1329 c 128,-1,14
 975 1214 975 1214 975 1027 c 1,15,-1
 694 1027 l 1,16,17
 694 1138 694 1138 656 1197.5 c 128,-1,18
 618 1257 618 1257 551 1257 c 0,19,20
 481 1257 481 1257 450.5 1206.5 c 128,-1,21
 420 1156 420 1156 420 1072 c 0,22,23
 420 994 420 994 454 947 c 128,-1,24
 488 900 488 900 585 845 c 1,25,26
 779 773 779 773 876 669 c 128,-1,27
 973 565 973 565 973 382 c 0,28,29
 973 210 973 210 878.5 106.5 c 128,-1,30
 784 3 784 3 620 -16 c 1,31,-1
 620 -214 l 1,32,-1
 474 -214 l 1,33,-1
 474 -17 l 1,34,35
 306 2 306 2 199 112 c 128,-1,36
 92 222 92 222 96 435 c 1,37,-1
 98 440 l 1,38,-1
 372 440 l 1,39,40
 372 309 372 309 419.5 253 c 128,-1,41
 467 197 467 197 547 197 c 0,42,43
 621 197 621 197 656 247 c 128,-1,44
 691 297 691 297 691 380 c 0,0,1
EndSplineSet
EndChar

StartChar: percent
Encoding: 37 37 8
Width: 1376
GlyphClass: 1
Flags: W
LayerCount: 2
Fore
SplineSet
91 1176 m 2,0,1
 91 1305 91 1305 166.5 1391 c 128,-1,2
 242 1477 242 1477 378 1477 c 0,3,4
 516 1477 516 1477 591.5 1391.5 c 128,-1,5
 667 1306 667 1306 667 1176 c 2,6,-1
 667 1099 l 2,7,8
 667 970 667 970 592 885 c 128,-1,9
 517 800 517 800 380 800 c 256,10,11
 243 800 243 800 167 885 c 128,-1,12
 91 970 91 970 91 1099 c 2,13,-1
 91 1176 l 2,0,1
276 1099 m 2,14,15
 276 1040 276 1040 303 999.5 c 128,-1,16
 330 959 330 959 380 959 c 0,17,18
 428 959 428 959 454.5 999 c 128,-1,19
 481 1039 481 1039 481 1099 c 2,20,-1
 481 1176 l 2,21,22
 481 1235 481 1235 454 1276.5 c 128,-1,23
 427 1318 427 1318 378 1318 c 256,24,25
 329 1318 329 1318 302.5 1276.5 c 128,-1,26
 276 1235 276 1235 276 1176 c 2,27,-1
 276 1099 l 2,14,15
713 357 m 2,28,29
 713 485 713 485 789 571 c 128,-1,30
 865 657 865 657 1002 657 c 0,31,32
 1140 657 1140 657 1215 571.5 c 128,-1,33
 1290 486 1290 486 1290 357 c 2,34,-1
 1290 280 l 2,35,36
 1290 150 1290 150 1215 65 c 128,-1,37
 1140 -20 1140 -20 1003 -20 c 0,38,39
 865 -20 865 -20 789 65 c 128,-1,40
 713 150 713 150 713 280 c 2,41,-1
 713 357 l 2,28,29
898 280 m 2,42,43
 898 223 898 223 928 181 c 128,-1,44
 958 139 958 139 1003 139 c 0,45,46
 1060 139 1060 139 1082 177 c 128,-1,47
 1104 215 1104 215 1104 280 c 2,48,-1
 1104 357 l 2,49,50
 1104 416 1104 416 1077.5 457 c 128,-1,51
 1051 498 1051 498 1002 498 c 0,52,53
 952 498 952 498 925 457 c 128,-1,54
 898 416 898 416 898 357 c 2,55,-1
 898 280 l 2,42,43
449 110 m 1,56,-1
 315 183 l 1,57,-1
 927 1321 l 1,58,-1
 1061 1248 l 1,59,-1
 449 110 l 1,56,-1
EndSplineSet
EndChar

StartChar: ampersand
Encoding: 38 38 9
Width: 1236
GlyphClass: 1
Flags: W
LayerCount: 2
Fore
SplineSet
292 780 m 1,0,1
 232 871 232 871 202.5 946 c 128,-1,2
 173 1021 173 1021 173 1099 c 0,3,4
 173 1281 173 1281 270.5 1379 c 128,-1,5
 368 1477 368 1477 537 1477 c 0,6,7
 681 1477 681 1477 772 1379.5 c 128,-1,8
 863 1282 863 1282 863 1142 c 0,9,10
 863 1038 863 1038 826.5 963 c 128,-1,11
 790 888 790 888 717 827 c 2,12,-1
 622 753 l 1,13,-1
 856 449 l 1,14,-1
 862 450 l 1,15,16
 889 502 889 502 905 568 c 128,-1,17
 921 634 921 634 921 708 c 1,18,-1
 1145 708 l 1,19,20
 1145 567 1145 567 1113 450.5 c 128,-1,21
 1081 334 1081 334 1013 244 c 1,22,-1
 1201 0 l 1,23,-1
 881 0 l 1,24,-1
 815 86 l 1,25,26
 738 32 738 32 659 5.5 c 128,-1,27
 580 -21 580 -21 488 -21 c 0,28,29
 292 -21 292 -21 175.5 92 c 128,-1,30
 59 205 59 205 59 388 c 0,31,32
 59 507 59 507 114.5 593 c 128,-1,33
 170 679 170 679 284 774 c 1,34,-1
 292 780 l 1,0,1
505 199 m 0,35,36
 551 199 551 199 597.5 212.5 c 128,-1,37
 644 226 644 226 688 252 c 1,38,-1
 424 597 l 1,39,40
 378 547 378 547 361 499.5 c 128,-1,41
 344 452 344 452 344 404 c 0,42,43
 344 315 344 315 389 257 c 128,-1,44
 434 199 434 199 505 199 c 0,35,36
423 1103 m 0,45,46
 423 1063 423 1063 440.5 1020 c 128,-1,47
 458 977 458 977 492 927 c 1,48,-1
 546 967 l 2,49,50
 596 1004 596 1004 613 1042 c 128,-1,51
 630 1080 630 1080 630 1126 c 0,52,53
 630 1179 630 1179 603.5 1217.5 c 128,-1,54
 577 1256 577 1256 529 1256 c 0,55,56
 480 1256 480 1256 451.5 1211.5 c 128,-1,57
 423 1167 423 1167 423 1103 c 0,45,46
EndSplineSet
EndChar

StartChar: quotesingle
Encoding: 39 39 10
Width: 411
GlyphClass: 1
Flags: W
LayerCount: 2
Fore
SplineSet
330 1188 m 1,0,-1
 236 907 l 1,1,-1
 81 907 l 1,2,-1
 79 1175 l 1,3,-1
 79 1456 l 1,4,-1
 330 1456 l 1,5,-1
 330 1188 l 1,0,-1
EndSplineSet
EndChar

StartChar: parenleft
Encoding: 40 40 11
Width: 637
GlyphClass: 1
Flags: W
LayerCount: 2
Fore
SplineSet
110 591 m 2,0,1
 110 975 110 975 243 1250 c 128,-1,2
 376 1525 376 1525 543 1607 c 1,3,-1
 549 1607 l 1,4,-1
 599 1468 l 1,5,6
 491 1370 491 1370 417 1148 c 128,-1,7
 343 926 343 926 343 593 c 2,8,-1
 343 565 l 2,9,10
 343 232 343 232 417 10.5 c 128,-1,11
 491 -211 491 -211 599 -311 c 1,12,-1
 549 -448 l 1,13,-1
 543 -448 l 1,14,15
 375 -365 375 -365 242.5 -92 c 128,-1,16
 110 181 110 181 110 567 c 2,17,-1
 110 591 l 2,0,1
EndSplineSet
EndChar

StartChar: parenright
Encoding: 41 41 12
Width: 637
GlyphClass: 1
Flags: W
LayerCount: 2
Fore
SplineSet
542 567 m 2,0,1
 542 192 542 192 403.5 -87.5 c 128,-1,2
 265 -367 265 -367 94 -449 c 1,3,-1
 88 -449 l 1,4,-1
 36 -311 l 1,5,6
 143 -213 143 -213 218 9.5 c 128,-1,7
 293 232 293 232 293 565 c 2,8,-1
 293 593 l 2,9,10
 293 925 293 925 217 1148 c 128,-1,11
 141 1371 141 1371 36 1470 c 1,12,-1
 88 1608 l 1,13,-1
 94 1608 l 1,14,15
 264 1527 264 1527 403 1245.5 c 128,-1,16
 542 964 542 964 542 591 c 2,17,-1
 542 567 l 2,0,1
EndSplineSet
EndChar

StartChar: asterisk
Encoding: 42 42 13
Width: 780
GlyphClass: 1
Flags: W
LayerCount: 2
Fore
SplineSet
246 664 m 1,0,-1
 44 743 l 1,1,-1
 94 904 l 1,2,-1
 308 826 l 1,3,-1
 312 1081 l 1,4,-1
 477 1081 l 1,5,-1
 485 817 l 1,6,-1
 690 897 l 1,7,-1
 740 734 l 1,8,-1
 533 652 l 1,9,-1
 653 444 l 1,10,-1
 519 344 l 1,11,-1
 385 555 l 1,12,-1
 254 351 l 1,13,-1
 119 448 l 1,14,-1
 246 664 l 1,0,-1
EndSplineSet
EndChar

StartChar: plus
Encoding: 43 43 14
Width: 1010
GlyphClass: 1
Flags: W
LayerCount: 2
Fore
SplineSet
637 806 m 1,0,-1
 951 806 l 1,1,-1
 951 560 l 1,2,-1
 637 560 l 1,3,-1
 637 146 l 1,4,-1
 370 146 l 1,5,-1
 370 560 l 1,6,-1
 53 560 l 1,7,-1
 53 806 l 1,8,-1
 370 806 l 1,9,-1
 370 1206 l 1,10,-1
 637 1206 l 1,11,-1
 637 806 l 1,0,-1
EndSplineSet
EndChar

StartChar: comma
Encoding: 44 44 15
Width: 495
GlyphClass: 1
Flags: W
LayerCount: 2
Fore
SplineSet
393 4 m 1,0,-1
 247 -305 l 1,1,-1
 58 -305 l 1,2,-1
 119 12 l 1,3,-1
 119 246 l 1,4,-1
 393 246 l 1,5,-1
 393 4 l 1,0,-1
EndSplineSet
EndChar

StartChar: hyphen
Encoding: 45 45 16
Width: 782
GlyphClass: 1
Flags: W
LayerCount: 2
Fore
SplineSet
639 514 m 1,0,-1
 133 514 l 1,1,-1
 133 735 l 1,2,-1
 639 735 l 1,3,-1
 639 514 l 1,0,-1
EndSplineSet
EndChar

StartChar: period
Encoding: 46 46 17
Width: 545
GlyphClass: 1
Flags: W
LayerCount: 2
Fore
SplineSet
404 0 m 1,0,-1
 126 0 l 1,1,-1
 126 253 l 1,2,-1
 404 253 l 1,3,-1
 404 0 l 1,0,-1
EndSplineSet
EndChar

StartChar: slash
Encoding: 47 47 18
Width: 722
GlyphClass: 1
Flags: W
LayerCount: 2
Fore
SplineSet
263 -125 m 1,0,-1
 -12 -125 l 1,1,-1
 430 1456 l 1,2,-1
 707 1456 l 1,3,-1
 263 -125 l 1,0,-1
EndSplineSet
EndChar

StartChar: zero
Encoding: 48 48 19
Width: 1075
GlyphClass: 1
Flags: W
LayerCount: 2
Fore
SplineSet
986 528 m 2,0,1
 986 271 986 271 863 125 c 128,-1,2
 740 -21 740 -21 539 -21 c 0,3,4
 335 -21 335 -21 211.5 125 c 128,-1,5
 88 271 88 271 88 528 c 2,6,-1
 88 927 l 2,7,8
 88 1182 88 1182 211 1329.5 c 128,-1,9
 334 1477 334 1477 537 1477 c 0,10,11
 739 1477 739 1477 862.5 1329.5 c 128,-1,12
 986 1182 986 1182 986 927 c 2,13,-1
 986 528 l 2,0,1
703 952 m 2,14,15
 703 1096 703 1096 658.5 1176 c 128,-1,16
 614 1256 614 1256 537 1256 c 0,17,18
 458 1256 458 1256 414.5 1176 c 128,-1,19
 371 1096 371 1096 371 952 c 2,20,-1
 371 505 l 2,21,22
 371 358 371 358 415 278.5 c 128,-1,23
 459 199 459 199 539 199 c 0,24,25
 616 199 616 199 659.5 278.5 c 128,-1,26
 703 358 703 358 703 505 c 2,27,-1
 703 952 l 2,14,15
EndSplineSet
EndChar

StartChar: one
Encoding: 49 49 20
Width: 1075
GlyphClass: 1
Flags: W
LayerCount: 2
Fore
SplineSet
740 0 m 1,0,-1
 457 0 l 1,1,-1
 457 1211 l 1,2,-1
 191 1204 l 1,3,-1
 191 1421 l 1,4,-1
 740 1477 l 1,5,-1
 740 0 l 1,0,-1
EndSplineSet
EndChar

StartChar: two
Encoding: 50 50 21
Width: 1075
GlyphClass: 1
Flags: W
LayerCount: 2
Fore
SplineSet
998 0 m 1,0,-1
 106 0 l 1,1,-1
 106 188 l 1,2,-1
 509 697 l 1,3,4
 595 813 595 813 632.5 897 c 128,-1,5
 670 981 670 981 670 1050 c 0,6,7
 670 1145 670 1145 633.5 1200.5 c 128,-1,8
 597 1256 597 1256 521 1256 c 0,9,10
 442 1256 442 1256 399.5 1185.5 c 128,-1,11
 357 1115 357 1115 357 1005 c 1,12,-1
 80 1005 l 1,13,-1
 77 1011 l 1,14,15
 73 1206 73 1206 195 1341.5 c 128,-1,16
 317 1477 317 1477 521 1477 c 0,17,18
 728 1477 728 1477 841.5 1362.5 c 128,-1,19
 955 1248 955 1248 955 1051 c 0,20,21
 955 918 955 918 889.5 806 c 128,-1,22
 824 694 824 694 670 507 c 1,23,-1
 472 220 l 1,24,-1
 998 220 l 1,25,-1
 998 0 l 1,0,-1
EndSplineSet
EndChar

StartChar: three
Encoding: 51 51 22
Width: 1075
GlyphClass: 1
Flags: W
LayerCount: 2
Fore
SplineSet
529 852 m 2,0,1
 615 852 615 852 658 907.5 c 128,-1,2
 701 963 701 963 701 1061 c 0,3,4
 701 1144 701 1144 656 1200 c 128,-1,5
 611 1256 611 1256 532 1256 c 0,6,7
 467 1256 467 1256 423 1207 c 128,-1,8
 379 1158 379 1158 379 1079 c 1,9,-1
 103 1079 l 1,10,-1
 101 1085 l 1,11,12
 96 1257 96 1257 222 1367 c 128,-1,13
 348 1477 348 1477 532 1477 c 0,14,15
 739 1477 739 1477 862.5 1370 c 128,-1,16
 986 1263 986 1263 986 1065 c 0,17,18
 986 964 986 964 932 880 c 128,-1,19
 878 796 878 796 785 749 c 1,20,21
 890 706 890 706 947.5 618 c 128,-1,22
 1005 530 1005 530 1005 405 c 0,23,24
 1005 206 1005 206 871.5 92.5 c 128,-1,25
 738 -21 738 -21 530 -21 c 0,26,27
 349 -21 349 -21 214 86.5 c 128,-1,28
 79 194 79 194 84 393 c 1,29,-1
 86 399 l 1,30,-1
 361 399 l 1,31,32
 361 314 361 314 409 256.5 c 128,-1,33
 457 199 457 199 530 199 c 0,34,35
 616 199 616 199 669 258 c 128,-1,36
 722 317 722 317 722 409 c 0,37,38
 722 527 722 527 672.5 582.5 c 128,-1,39
 623 638 623 638 529 638 c 2,40,-1
 382 638 l 1,41,-1
 382 852 l 1,42,-1
 529 852 l 2,0,1
EndSplineSet
EndChar

StartChar: four
Encoding: 52 52 23
Width: 1075
GlyphClass: 1
Flags: W
LayerCount: 2
Fore
SplineSet
878 542 m 1,0,-1
 1017 542 l 1,1,-1
 1017 320 l 1,2,-1
 878 320 l 1,3,-1
 878 0 l 1,4,-1
 594 0 l 1,5,-1
 594 320 l 1,6,-1
 69 320 l 1,7,-1
 55 493 l 1,8,-1
 593 1456 l 1,9,-1
 878 1456 l 1,10,-1
 878 542 l 1,0,-1
306 542 m 1,11,-1
 594 542 l 1,12,-1
 594 1068 l 1,13,-1
 588 1069 l 1,14,-1
 562 1011 l 1,15,-1
 306 542 l 1,11,-1
EndSplineSet
EndChar

StartChar: five
Encoding: 53 53 24
Width: 1075
GlyphClass: 1
Flags: W
LayerCount: 2
Fore
SplineSet
124 643 m 1,0,-1
 200 1456 l 1,1,-1
 946 1456 l 1,2,-1
 946 1229 l 1,3,-1
 432 1229 l 1,4,-1
 397 876 l 1,5,6
 434 907 434 907 489.5 928 c 128,-1,7
 545 949 545 949 608 951 c 0,8,9
 792 954 792 954 891.5 826 c 128,-1,10
 991 698 991 698 991 467 c 0,11,12
 991 253 991 253 881.5 116 c 128,-1,13
 772 -21 772 -21 543 -21 c 0,14,15
 359 -21 359 -21 227 86 c 128,-1,16
 95 193 95 193 100 378 c 1,17,-1
 102 383 l 1,18,-1
 376 397 l 1,19,20
 376 303 376 303 422 251 c 128,-1,21
 468 199 468 199 543 199 c 0,22,23
 630 199 630 199 668.5 267 c 128,-1,24
 707 335 707 335 707 465 c 256,25,26
 707 595 707 595 664 670.5 c 128,-1,27
 621 746 621 746 534 746 c 0,28,29
 465 746 465 746 428 714 c 128,-1,30
 391 682 391 682 377 626 c 1,31,-1
 124 643 l 1,0,-1
EndSplineSet
EndChar

StartChar: six
Encoding: 54 54 25
Width: 1075
GlyphClass: 1
Flags: W
LayerCount: 2
Fore
SplineSet
614 1477 m 0,0,1
 691 1477 691 1477 754.5 1461.5 c 128,-1,2
 818 1446 818 1446 884 1415 c 1,3,-1
 835 1206 l 1,4,5
 777 1229 777 1229 728.5 1240.5 c 128,-1,6
 680 1252 680 1252 616 1252 c 0,7,8
 504 1252 504 1252 435 1154.5 c 128,-1,9
 366 1057 366 1057 366 879 c 2,10,-1
 366 835 l 1,11,12
 417 890 417 890 488.5 920 c 128,-1,13
 560 950 560 950 649 950 c 0,14,15
 817 950 817 950 910 817 c 128,-1,16
 1003 684 1003 684 1003 468 c 256,17,18
 1003 252 1003 252 878.5 115.5 c 128,-1,19
 754 -21 754 -21 555 -21 c 0,20,21
 346 -21 346 -21 215 134 c 128,-1,22
 84 289 84 289 84 558 c 2,23,-1
 84 873 l 2,24,25
 84 1149 84 1149 233 1313 c 128,-1,26
 382 1477 382 1477 614 1477 c 0,0,1
553 733 m 0,27,28
 487 733 487 733 440 709.5 c 128,-1,29
 393 686 393 686 366 644 c 1,30,-1
 366 554 l 2,31,32
 366 385 366 385 417.5 292 c 128,-1,33
 469 199 469 199 555 199 c 0,34,35
 630 199 630 199 675 276 c 128,-1,36
 720 353 720 353 720 468 c 0,37,38
 720 592 720 592 674.5 662.5 c 128,-1,39
 629 733 629 733 553 733 c 0,27,28
EndSplineSet
EndChar

StartChar: seven
Encoding: 55 55 26
Width: 1075
GlyphClass: 1
Flags: W
LayerCount: 2
Fore
SplineSet
998 1235 m 1,0,1
 780 966 780 966 702.5 731 c 128,-1,2
 625 496 625 496 625 178 c 2,3,-1
 625 0 l 1,4,-1
 341 0 l 1,5,-1
 341 178 l 2,6,7
 341 485 341 485 439.5 739.5 c 128,-1,8
 538 994 538 994 726 1235 c 1,9,-1
 66 1235 l 1,10,-1
 66 1456 l 1,11,-1
 998 1456 l 1,12,-1
 998 1235 l 1,0,1
EndSplineSet
EndChar

StartChar: eight
Encoding: 56 56 27
Width: 1075
GlyphClass: 1
Flags: W
LayerCount: 2
Fore
SplineSet
965 1078 m 0,0,1
 965 970 965 970 914 886.5 c 128,-1,2
 863 803 863 803 774 756 c 1,3,4
 883 707 883 707 946.5 615.5 c 128,-1,5
 1010 524 1010 524 1010 406 c 0,6,7
 1010 203 1010 203 881.5 91 c 128,-1,8
 753 -21 753 -21 553 -21 c 0,9,10
 345 -21 345 -21 211 91.5 c 128,-1,11
 77 204 77 204 77 406 c 0,12,13
 77 524 77 524 142.5 615.5 c 128,-1,14
 208 707 208 707 322 756 c 1,15,16
 228 803 228 803 175 886.5 c 128,-1,17
 122 970 122 970 122 1078 c 0,18,19
 122 1270 122 1270 241.5 1373.5 c 128,-1,20
 361 1477 361 1477 552 1477 c 0,21,22
 736 1477 736 1477 850.5 1374 c 128,-1,23
 965 1271 965 1271 965 1078 c 0,0,1
727 419 m 0,24,25
 727 518 727 518 676.5 581 c 128,-1,26
 626 644 626 644 552 644 c 0,27,28
 469 644 469 644 415 581 c 128,-1,29
 361 518 361 518 361 419 c 0,30,31
 361 318 361 318 415 258.5 c 128,-1,32
 469 199 469 199 553 199 c 0,33,34
 628 199 628 199 677.5 258.5 c 128,-1,35
 727 318 727 318 727 419 c 0,24,25
682 1065 m 0,36,37
 682 1153 682 1153 646.5 1204.5 c 128,-1,38
 611 1256 611 1256 552 1256 c 0,39,40
 484 1256 484 1256 445 1206 c 128,-1,41
 406 1156 406 1156 406 1065 c 256,42,43
 406 974 406 974 446 919.5 c 128,-1,44
 486 865 486 865 553 865 c 0,45,46
 612 865 612 865 647 919 c 128,-1,47
 682 973 682 973 682 1065 c 0,36,37
EndSplineSet
EndChar

StartChar: nine
Encoding: 57 57 28
Width: 1075
GlyphClass: 1
Flags: W
LayerCount: 2
Fore
SplineSet
489 199 m 0,0,1
 579 199 579 199 637 280.5 c 128,-1,2
 695 362 695 362 695 506 c 2,3,-1
 695 605 l 1,4,5
 652 544 652 544 593.5 513 c 128,-1,6
 535 482 535 482 469 482 c 0,7,8
 288 482 288 482 184.5 614.5 c 128,-1,9
 81 747 81 747 81 971 c 0,10,11
 81 1187 81 1187 206 1332 c 128,-1,12
 331 1477 331 1477 526 1477 c 0,13,14
 725 1477 725 1477 852 1328.5 c 128,-1,15
 979 1180 979 1180 979 917 c 2,16,-1
 979 523 l 2,17,18
 979 274 979 274 840 126.5 c 128,-1,19
 701 -21 701 -21 489 -21 c 0,20,21
 421 -21 421 -21 348 -4.5 c 128,-1,22
 275 12 275 12 212 42 c 1,23,-1
 259 247 l 1,24,25
 315 222 315 222 368.5 210.5 c 128,-1,26
 422 199 422 199 489 199 c 0,0,1
521 690 m 0,27,28
 578 690 578 690 622.5 718 c 128,-1,29
 667 746 667 746 695 793 c 1,30,-1
 695 967 l 2,31,32
 695 1108 695 1108 649 1182 c 128,-1,33
 603 1256 603 1256 527 1256 c 0,34,35
 453 1256 453 1256 408 1172.5 c 128,-1,36
 363 1089 363 1089 363 971 c 0,37,38
 363 845 363 845 403.5 767.5 c 128,-1,39
 444 690 444 690 521 690 c 0,27,28
EndSplineSet
EndChar

StartChar: less
Encoding: 60 60 31
Width: 910
GlyphClass: 1
Flags: W
LayerCount: 2
Fore
SplineSet
301 547 m 1,0,-1
 301 541 l 1,1,-1
 798 333 l 1,2,-1
 798 69 l 1,3,-1
 49 435 l 1,4,-1
 49 657 l 1,5,-1
 798 1023 l 1,6,-1
 798 760 l 1,7,-1
 301 547 l 1,0,-1
EndSplineSet
EndChar

StartChar: equal
Encoding: 61 61 32
Width: 1036
GlyphClass: 1
Flags: W
LayerCount: 2
Fore
SplineSet
903 760 m 1,0,-1
 120 760 l 1,1,-1
 120 983 l 1,2,-1
 903 983 l 1,3,-1
 903 760 l 1,0,-1
903 329 m 1,4,-1
 120 329 l 1,5,-1
 120 552 l 1,6,-1
 903 552 l 1,7,-1
 903 329 l 1,4,-1
EndSplineSet
EndChar

StartChar: greater
Encoding: 62 62 33
Width: 921
GlyphClass: 1
Flags: W
LayerCount: 2
Fore
SplineSet
608 540 m 1,0,-1
 608 546 l 1,1,-1
 107 755 l 1,2,-1
 107 1017 l 1,3,-1
 862 652 l 1,4,-1
 862 429 l 1,5,-1
 107 63 l 1,6,-1
 107 325 l 1,7,-1
 608 540 l 1,0,-1
EndSplineSet
EndChar

StartChar: question
Encoding: 63 63 34
Width: 907
GlyphClass: 1
Flags: W
LayerCount: 2
Fore
SplineSet
275 413 m 1,0,1
 276 549 276 549 314.5 613.5 c 128,-1,2
 353 678 353 678 463 772 c 1,3,4
 520 829 520 829 554 896.5 c 128,-1,5
 588 964 588 964 588 1051 c 0,6,7
 588 1145 588 1145 549.5 1199.5 c 128,-1,8
 511 1254 511 1254 440 1254 c 0,9,10
 384 1254 384 1254 343.5 1207 c 128,-1,11
 303 1160 303 1160 301 1072 c 1,12,-1
 27 1072 l 1,13,-1
 25 1078 l 1,14,15
 22 1273 22 1273 138 1375 c 128,-1,16
 254 1477 254 1477 440 1477 c 0,17,18
 641 1477 641 1477 756 1363 c 128,-1,19
 871 1249 871 1249 871 1053 c 0,20,21
 871 927 871 927 806.5 820 c 128,-1,22
 742 713 742 713 644 639 c 1,23,24
 591 593 591 593 574 544.5 c 128,-1,25
 557 496 557 496 557 413 c 1,26,-1
 275 413 l 1,0,1
555 0 m 1,27,-1
 275 0 l 1,28,-1
 275 243 l 1,29,-1
 555 243 l 1,30,-1
 555 0 l 1,27,-1
EndSplineSet
EndChar

StartChar: at
Encoding: 64 64 35
Width: 1642
GlyphClass: 1
Flags: W
LayerCount: 2
Fore
SplineSet
1561 516 m 0,0,1
 1552 296 1552 296 1443.5 137.5 c 128,-1,2
 1335 -21 1335 -21 1119 -21 c 0,3,4
 1046 -21 1046 -21 994 24 c 128,-1,5
 942 69 942 69 921 150 c 1,6,7
 882 66 882 66 824 24 c 128,-1,8
 766 -18 766 -18 691 -18 c 0,9,10
 562 -18 562 -18 493 101 c 128,-1,11
 424 220 424 220 441 416 c 0,12,13
 464 668 464 668 571.5 820.5 c 128,-1,14
 679 973 679 973 831 973 c 0,15,16
 938 973 938 973 1002.5 947 c 128,-1,17
 1067 921 1067 921 1146 866 c 1,18,-1
 1144 863 l 1,19,-1
 1148 863 l 1,20,-1
 1102 293 l 2,21,22
 1096 194 1096 194 1112 158.5 c 128,-1,23
 1128 123 1128 123 1156 130 c 1,24,-1
 1162 129 l 1,25,26
 1261 124 1261 124 1321 234.5 c 128,-1,27
 1381 345 1381 345 1389 516 c 0,28,29
 1403 869 1403 869 1268 1066 c 128,-1,30
 1133 1263 1133 1263 850 1263 c 0,31,32
 579 1263 579 1263 419 1051 c 128,-1,33
 259 839 259 839 246 478 c 0,34,35
 230 125 230 125 375.5 -82 c 128,-1,36
 521 -289 521 -289 793 -289 c 0,37,38
 869 -289 869 -289 950.5 -269.5 c 128,-1,39
 1032 -250 1032 -250 1090 -220 c 1,40,-1
 1125 -364 l 1,41,42
 1064 -406 1064 -406 971 -429.5 c 128,-1,43
 878 -453 878 -453 790 -453 c 0,44,45
 431 -453 431 -453 236.5 -204 c 128,-1,46
 42 45 42 45 57 478 c 0,47,48
 73 905 73 905 287 1159.5 c 128,-1,49
 501 1414 501 1414 854 1414 c 0,50,51
 1202 1414 1202 1414 1388.5 1173 c 128,-1,52
 1575 932 1575 932 1561 516 c 0,0,1
658 416 m 0,53,54
 649 288 649 288 673.5 219.5 c 128,-1,55
 698 151 698 151 752 151 c 0,56,57
 800 151 800 151 839 180 c 128,-1,58
 878 209 878 209 908 286 c 1,59,-1
 908 293 l 1,60,-1
 948 793 l 1,61,62
 929 799 929 799 909 802.5 c 128,-1,63
 889 806 889 806 868 806 c 0,64,65
 771 806 771 806 722 709.5 c 128,-1,66
 673 613 673 613 658 416 c 0,53,54
EndSplineSet
EndChar

StartChar: A
Encoding: 65 65 36
Width: 1141
GlyphClass: 1
Flags: W
LayerCount: 2
Fore
SplineSet
758 315 m 1,0,-1
 394 315 l 1,1,-1
 312 0 l 1,2,-1
 18 0 l 1,3,-1
 431 1456 l 1,4,-1
 723 1456 l 1,5,-1
 1136 0 l 1,6,-1
 841 0 l 1,7,-1
 758 315 l 1,0,-1
452 537 m 1,8,-1
 700 537 l 1,9,-1
 579 999 l 1,10,-1
 573 999 l 1,11,-1
 452 537 l 1,8,-1
EndSplineSet
Substitution2: "'smcp' Lowercase to Small Capitals lookup 0 subtable" A.smcp
EndChar

StartChar: B
Encoding: 66 66 37
Width: 1142
GlyphClass: 1
Flags: W
LayerCount: 2
Fore
SplineSet
112 0 m 1,0,-1
 112 1456 l 1,1,-1
 529 1456 l 2,2,3
 757 1456 757 1456 884 1356.5 c 128,-1,4
 1011 1257 1011 1257 1011 1059 c 0,5,6
 1011 956 1011 956 964.5 875.5 c 128,-1,7
 918 795 918 795 827 756 c 1,8,9
 949 731 949 731 1008.5 639 c 128,-1,10
 1068 547 1068 547 1068 424 c 0,11,12
 1068 215 1068 215 946.5 107.5 c 128,-1,13
 825 0 825 0 600 0 c 2,14,-1
 112 0 l 1,0,-1
394 645 m 1,15,-1
 394 220 l 1,16,-1
 600 220 l 2,17,18
 692 220 692 220 739 271.5 c 128,-1,19
 786 323 786 323 786 424 c 0,20,21
 786 528 786 528 743 585 c 128,-1,22
 700 642 700 642 609 645 c 2,23,-1
 599 645 l 1,24,-1
 394 645 l 1,15,-1
394 840 m 1,25,-1
 542 840 l 2,26,27
 633 842 633 842 681 891 c 128,-1,28
 729 940 729 940 729 1033 c 0,29,30
 729 1137 729 1137 679 1186 c 128,-1,31
 629 1235 629 1235 529 1235 c 2,32,-1
 394 1235 l 1,33,-1
 394 840 l 1,25,-1
EndSplineSet
Substitution2: "'smcp' Lowercase to Small Capitals lookup 0 subtable" B.smcp
EndChar

StartChar: C
Encoding: 67 67 38
Width: 1133
GlyphClass: 1
Flags: W
LayerCount: 2
Fore
SplineSet
1066 452 m 1,0,-1
 1068 446 l 1,1,2
 1072 212 1072 212 948.5 95.5 c 128,-1,3
 825 -21 825 -21 596 -21 c 0,4,5
 361 -21 361 -21 223 117.5 c 128,-1,6
 85 256 85 256 85 511 c 2,7,-1
 85 943 l 2,8,9
 85 1197 85 1197 218.5 1337 c 128,-1,10
 352 1477 352 1477 579 1477 c 0,11,12
 818 1477 818 1477 946 1361 c 128,-1,13
 1074 1245 1074 1245 1070 1010 c 1,14,-1
 1068 1004 l 1,15,-1
 794 1004 l 1,16,17
 794 1144 794 1144 744.5 1200 c 128,-1,18
 695 1256 695 1256 579 1256 c 0,19,20
 473 1256 473 1256 420 1179.5 c 128,-1,21
 367 1103 367 1103 367 945 c 2,22,-1
 367 511 l 2,23,24
 367 352 367 352 424 275.5 c 128,-1,25
 481 199 481 199 596 199 c 0,26,27
 701 199 701 199 747 254.5 c 128,-1,28
 793 310 793 310 793 452 c 1,29,-1
 1066 452 l 1,0,-1
EndSplineSet
Substitution2: "'smcp' Lowercase to Small Capitals lookup 0 subtable" C.smcp
EndChar

StartChar: D
Encoding: 68 68 39
Width: 1173
GlyphClass: 1
Flags: W
LayerCount: 2
Fore
SplineSet
112 0 m 1,0,-1
 112 1456 l 1,1,-1
 561 1456 l 2,2,3
 789 1456 789 1456 938 1285.5 c 128,-1,4
 1087 1115 1087 1115 1087 848 c 2,5,-1
 1087 607 l 2,6,7
 1087 339 1087 339 938 169.5 c 128,-1,8
 789 0 789 0 561 0 c 2,9,-1
 112 0 l 1,0,-1
394 1235 m 1,10,-1
 394 220 l 1,11,-1
 561 220 l 2,12,13
 670 220 670 220 737 328 c 128,-1,14
 804 436 804 436 804 607 c 2,15,-1
 804 850 l 2,16,17
 804 1019 804 1019 737 1127 c 128,-1,18
 670 1235 670 1235 561 1235 c 2,19,-1
 394 1235 l 1,10,-1
EndSplineSet
Substitution2: "'smcp' Lowercase to Small Capitals lookup 0 subtable" D.smcp
EndChar

StartChar: E
Encoding: 69 69 40
Width: 994
GlyphClass: 1
Flags: W
LayerCount: 2
Fore
SplineSet
839 643 m 1,0,-1
 394 643 l 1,1,-1
 394 220 l 1,2,-1
 927 220 l 1,3,-1
 927 0 l 1,4,-1
 112 0 l 1,5,-1
 112 1456 l 1,6,-1
 925 1456 l 1,7,-1
 925 1235 l 1,8,-1
 394 1235 l 1,9,-1
 394 863 l 1,10,-1
 839 863 l 1,11,-1
 839 643 l 1,0,-1
EndSplineSet
Substitution2: "'smcp' Lowercase to Small Capitals lookup 0 subtable" E.smcp
EndChar

StartChar: F
Encoding: 70 70 41
Width: 994
GlyphClass: 1
Flags: W
LayerCount: 2
Fore
SplineSet
856 609 m 1,0,-1
 394 609 l 1,1,-1
 394 0 l 1,2,-1
 112 0 l 1,3,-1
 112 1456 l 1,4,-1
 944 1456 l 1,5,-1
 944 1235 l 1,6,-1
 394 1235 l 1,7,-1
 394 829 l 1,8,-1
 856 829 l 1,9,-1
 856 609 l 1,0,-1
EndSplineSet
Substitution2: "'smcp' Lowercase to Small Capitals lookup 0 subtable" F.smcp
EndChar

StartChar: G
Encoding: 71 71 42
Width: 1178
GlyphClass: 1
Flags: W
LayerCount: 2
Fore
SplineSet
1087 192 m 1,0,1
 1025 105 1025 105 907.5 42 c 128,-1,2
 790 -21 790 -21 604 -21 c 0,3,4
 368 -21 368 -21 225.5 116.5 c 128,-1,5
 83 254 83 254 83 507 c 2,6,-1
 83 949 l 2,7,8
 83 1201 83 1201 221.5 1339 c 128,-1,9
 360 1477 360 1477 588 1477 c 0,10,11
 826 1477 826 1477 947 1364.5 c 128,-1,12
 1068 1252 1068 1252 1064 1044 c 1,13,-1
 1062 1038 l 1,14,-1
 797 1038 l 1,15,16
 797 1152 797 1152 747 1204 c 128,-1,17
 697 1256 697 1256 596 1256 c 0,18,19
 487 1256 487 1256 426 1180 c 128,-1,20
 365 1104 365 1104 365 951 c 2,21,-1
 365 507 l 2,22,23
 365 351 365 351 427 275 c 128,-1,24
 489 199 489 199 604 199 c 0,25,26
 686 199 686 199 733 218.5 c 128,-1,27
 780 238 780 238 805 270 c 1,28,-1
 805 564 l 1,29,-1
 583 564 l 1,30,-1
 583 759 l 1,31,-1
 1087 759 l 1,32,-1
 1087 192 l 1,0,1
EndSplineSet
Substitution2: "'smcp' Lowercase to Small Capitals lookup 0 subtable" G.smcp
EndChar

StartChar: H
Encoding: 72 72 43
Width: 1257
GlyphClass: 1
Flags: W
LayerCount: 2
Fore
SplineSet
1144 0 m 1,0,-1
 863 0 l 1,1,-1
 863 607 l 1,2,-1
 394 607 l 1,3,-1
 394 0 l 1,4,-1
 112 0 l 1,5,-1
 112 1456 l 1,6,-1
 394 1456 l 1,7,-1
 394 827 l 1,8,-1
 863 827 l 1,9,-1
 863 1456 l 1,10,-1
 1144 1456 l 1,11,-1
 1144 0 l 1,0,-1
EndSplineSet
Substitution2: "'smcp' Lowercase to Small Capitals lookup 0 subtable" H.smcp
EndChar

StartChar: I
Encoding: 73 73 44
Width: 538
GlyphClass: 1
Flags: W
LayerCount: 2
Fore
SplineSet
409 0 m 1,0,-1
 128 0 l 1,1,-1
 128 1456 l 1,2,-1
 409 1456 l 1,3,-1
 409 0 l 1,0,-1
EndSplineSet
Substitution2: "'smcp' Lowercase to Small Capitals lookup 0 subtable" I.smcp
EndChar

StartChar: J
Encoding: 74 74 45
Width: 994
GlyphClass: 1
Flags: W
LayerCount: 2
Fore
SplineSet
602 1456 m 1,0,-1
 884 1456 l 1,1,-1
 884 453 l 2,2,3
 884 236 884 236 767.5 107.5 c 128,-1,4
 651 -21 651 -21 468 -21 c 0,5,6
 262 -21 262 -21 143 93 c 128,-1,7
 24 207 24 207 28 426 c 1,8,-1
 31 432 l 1,9,-1
 304 432 l 1,10,11
 304 313 304 313 349.5 256 c 128,-1,12
 395 199 395 199 468 199 c 0,13,14
 527 199 527 199 564.5 267 c 128,-1,15
 602 335 602 335 602 453 c 2,16,-1
 602 1456 l 1,0,-1
EndSplineSet
Substitution2: "'smcp' Lowercase to Small Capitals lookup 0 subtable" J.smcp
EndChar

StartChar: K
Encoding: 75 75 46
Width: 1142
GlyphClass: 1
Flags: W
LayerCount: 2
Fore
SplineSet
471 611 m 1,0,-1
 394 611 l 1,1,-1
 394 0 l 1,2,-1
 112 0 l 1,3,-1
 112 1456 l 1,4,-1
 394 1456 l 1,5,-1
 394 860 l 1,6,-1
 452 860 l 1,7,-1
 761 1456 l 1,8,-1
 1111 1456 l 1,9,-1
 691 791 l 1,10,-1
 1142 0 l 1,11,-1
 782 0 l 1,12,-1
 471 611 l 1,0,-1
EndSplineSet
Substitution2: "'smcp' Lowercase to Small Capitals lookup 0 subtable" K.smcp
EndChar

StartChar: L
Encoding: 76 76 47
Width: 994
GlyphClass: 1
Flags: W
LayerCount: 2
Fore
SplineSet
394 220 m 1,0,-1
 937 220 l 1,1,-1
 937 0 l 1,2,-1
 112 0 l 1,3,-1
 112 1456 l 1,4,-1
 394 1456 l 1,5,-1
 394 220 l 1,0,-1
EndSplineSet
Substitution2: "'smcp' Lowercase to Small Capitals lookup 0 subtable" L.smcp
EndChar

StartChar: M
Encoding: 77 77 48
Width: 1499
GlyphClass: 1
Flags: W
LayerCount: 2
Fore
SplineSet
744 376 m 1,0,-1
 750 376 l 1,1,-1
 1023 1456 l 1,2,-1
 1392 1456 l 1,3,-1
 1392 0 l 1,4,-1
 1112 0 l 1,5,-1
 1112 917 l 1,6,-1
 1106 918 l 1,7,-1
 843 0 l 1,8,-1
 654 0 l 1,9,-1
 393 911 l 1,10,-1
 387 910 l 1,11,-1
 387 0 l 1,12,-1
 106 0 l 1,13,-1
 106 1456 l 1,14,-1
 473 1456 l 1,15,-1
 744 376 l 1,0,-1
EndSplineSet
Substitution2: "'smcp' Lowercase to Small Capitals lookup 0 subtable" M.smcp
EndChar

StartChar: N
Encoding: 78 78 49
Width: 1256
GlyphClass: 1
Flags: W
LayerCount: 2
Fore
SplineSet
1144 0 m 1,0,-1
 862 0 l 1,1,-1
 400 929 l 1,2,-1
 394 928 l 1,3,-1
 394 0 l 1,4,-1
 112 0 l 1,5,-1
 112 1456 l 1,6,-1
 394 1456 l 1,7,-1
 856 526 l 1,8,-1
 862 527 l 1,9,-1
 862 1456 l 1,10,-1
 1144 1456 l 1,11,-1
 1144 0 l 1,0,-1
EndSplineSet
Substitution2: "'smcp' Lowercase to Small Capitals lookup 0 subtable" N.smcp
EndChar

StartChar: O
Encoding: 79 79 50
Width: 1230
GlyphClass: 1
Flags: W
LayerCount: 2
Fore
SplineSet
1145 524 m 2,0,1
 1145 267 1145 267 1000 123 c 128,-1,2
 855 -21 855 -21 614 -21 c 256,3,4
 373 -21 373 -21 229 123 c 128,-1,5
 85 267 85 267 85 524 c 2,6,-1
 85 930 l 2,7,8
 85 1186 85 1186 228.5 1331.5 c 128,-1,9
 372 1477 372 1477 613 1477 c 256,10,11
 854 1477 854 1477 999.5 1331.5 c 128,-1,12
 1145 1186 1145 1186 1145 930 c 2,13,-1
 1145 524 l 2,0,1
864 933 m 2,14,15
 864 1092 864 1092 799.5 1173 c 128,-1,16
 735 1254 735 1254 613 1254 c 0,17,18
 490 1254 490 1254 428 1173.5 c 128,-1,19
 366 1093 366 1093 366 933 c 2,20,-1
 366 524 l 2,21,22
 366 362 366 362 428.5 281 c 128,-1,23
 491 200 491 200 614 200 c 256,24,25
 737 200 737 200 800.5 281 c 128,-1,26
 864 362 864 362 864 524 c 2,27,-1
 864 933 l 2,14,15
EndSplineSet
Substitution2: "'smcp' Lowercase to Small Capitals lookup 0 subtable" O.smcp
EndChar

StartChar: P
Encoding: 80 80 51
Width: 1142
GlyphClass: 1
Flags: W
LayerCount: 2
Fore
SplineSet
394 527 m 1,0,-1
 394 0 l 1,1,-1
 112 0 l 1,2,-1
 112 1456 l 1,3,-1
 599 1456 l 2,4,5
 818 1456 818 1456 946 1327.5 c 128,-1,6
 1074 1199 1074 1199 1074 991 c 0,7,8
 1074 782 1074 782 946 654.5 c 128,-1,9
 818 527 818 527 599 527 c 2,10,-1
 394 527 l 1,0,-1
394 748 m 1,11,-1
 599 748 l 2,12,13
 694 748 694 748 743.5 816 c 128,-1,14
 793 884 793 884 793 989 c 0,15,16
 793 1096 793 1096 743.5 1165.5 c 128,-1,17
 694 1235 694 1235 599 1235 c 2,18,-1
 394 1235 l 1,19,-1
 394 748 l 1,11,-1
EndSplineSet
Substitution2: "'smcp' Lowercase to Small Capitals lookup 0 subtable" P.smcp
EndChar

StartChar: Q
Encoding: 81 81 52
Width: 1261
GlyphClass: 1
Flags: W
LayerCount: 2
Fore
SplineSet
1145 524 m 2,0,1
 1145 424 1145 424 1122 340.5 c 128,-1,2
 1099 257 1099 257 1056 192 c 1,3,-1
 1233 -10 l 1,4,-1
 1051 -158 l 1,5,-1
 878 36 l 1,6,7
 820 7 820 7 753.5 -7 c 128,-1,8
 687 -21 687 -21 614 -21 c 0,9,10
 373 -21 373 -21 229 123 c 128,-1,11
 85 267 85 267 85 524 c 2,12,-1
 85 930 l 2,13,14
 85 1186 85 1186 228.5 1331.5 c 128,-1,15
 372 1477 372 1477 613 1477 c 256,16,17
 854 1477 854 1477 999.5 1331.5 c 128,-1,18
 1145 1186 1145 1186 1145 930 c 2,19,-1
 1145 524 l 2,0,1
864 933 m 2,20,21
 864 1092 864 1092 799.5 1173 c 128,-1,22
 735 1254 735 1254 613 1254 c 0,23,24
 490 1254 490 1254 428 1173.5 c 128,-1,25
 366 1093 366 1093 366 933 c 2,26,-1
 366 524 l 2,27,28
 366 362 366 362 428.5 281 c 128,-1,29
 491 200 491 200 614 200 c 256,30,31
 737 200 737 200 800.5 281 c 128,-1,32
 864 362 864 362 864 524 c 2,33,-1
 864 933 l 2,20,21
EndSplineSet
Substitution2: "'smcp' Lowercase to Small Capitals lookup 0 subtable" Q.smcp
EndChar

StartChar: R
Encoding: 82 82 53
Width: 1130
GlyphClass: 1
Flags: W
LayerCount: 2
Fore
SplineSet
394 584 m 1,0,-1
 394 0 l 1,1,-1
 112 0 l 1,2,-1
 112 1455 l 1,3,-1
 548 1455 l 2,4,5
 765 1455 765 1455 889.5 1342 c 128,-1,6
 1014 1229 1014 1229 1014 1027 c 0,7,8
 1014 914 1014 914 961.5 831 c 128,-1,9
 909 748 909 748 810 699 c 1,10,11
 924 661 924 661 974 573 c 128,-1,12
 1024 485 1024 485 1024 353 c 2,13,-1
 1024 247 l 2,14,15
 1024 186 1024 186 1038 119 c 128,-1,16
 1052 52 1052 52 1088 21 c 1,17,-1
 1088 0 l 1,18,-1
 796 0 l 1,19,20
 761 32 761 32 751.5 104.5 c 128,-1,21
 742 177 742 177 742 249 c 2,22,-1
 742 351 l 2,23,24
 742 462 742 462 696 523 c 128,-1,25
 650 584 650 584 564 584 c 2,26,-1
 394 584 l 1,0,-1
394 804 m 1,27,-1
 546 804 l 2,28,29
 637 804 637 804 684.5 858.5 c 128,-1,30
 732 913 732 913 732 1013 c 0,31,32
 732 1115 732 1115 685 1175 c 128,-1,33
 638 1235 638 1235 548 1235 c 2,34,-1
 394 1235 l 1,35,-1
 394 804 l 1,27,-1
EndSplineSet
Substitution2: "'smcp' Lowercase to Small Capitals lookup 0 subtable" R.smcp
EndChar

StartChar: S
Encoding: 83 83 54
Width: 1107
GlyphClass: 1
Flags: W
LayerCount: 2
Fore
SplineSet
754 378 m 0,0,1
 754 465 754 465 709.5 515.5 c 128,-1,2
 665 566 665 566 550 614 c 1,3,4
 326 693 326 693 213 793 c 128,-1,5
 100 893 100 893 100 1073 c 0,6,7
 100 1252 100 1252 229 1364.5 c 128,-1,8
 358 1477 358 1477 558 1477 c 0,9,10
 770 1477 770 1477 899 1357 c 128,-1,11
 1028 1237 1028 1237 1024 1035 c 1,12,-1
 1022 1029 l 1,13,-1
 748 1029 l 1,14,15
 748 1142 748 1142 697.5 1200.5 c 128,-1,16
 647 1259 647 1259 553 1259 c 0,17,18
 472 1259 472 1259 427 1205.5 c 128,-1,19
 382 1152 382 1152 382 1072 c 0,20,21
 382 998 382 998 433 950 c 128,-1,22
 484 902 484 902 608 845 c 1,23,24
 819 775 819 775 927.5 668 c 128,-1,25
 1036 561 1036 561 1036 380 c 0,26,27
 1036 193 1036 193 909 86 c 128,-1,28
 782 -21 782 -21 572 -21 c 0,29,30
 365 -21 365 -21 218 94.5 c 128,-1,31
 71 210 71 210 76 446 c 1,32,-1
 78 452 l 1,33,-1
 353 452 l 1,34,35
 353 315 353 315 408.5 255 c 128,-1,36
 464 195 464 195 572 195 c 0,37,38
 663 195 663 195 708.5 245 c 128,-1,39
 754 295 754 295 754 378 c 0,0,1
EndSplineSet
Substitution2: "'smcp' Lowercase to Small Capitals lookup 0 subtable" S.smcp
EndChar

StartChar: T
Encoding: 84 84 55
Width: 1014
GlyphClass: 1
Flags: W
LayerCount: 2
Fore
SplineSet
988 1235 m 1,0,-1
 646 1235 l 1,1,-1
 646 0 l 1,2,-1
 363 0 l 1,3,-1
 363 1235 l 1,4,-1
 30 1235 l 1,5,-1
 30 1456 l 1,6,-1
 988 1456 l 1,7,-1
 988 1235 l 1,0,-1
EndSplineSet
Substitution2: "'smcp' Lowercase to Small Capitals lookup 0 subtable" T.smcp
EndChar

StartChar: U
Encoding: 85 85 56
Width: 1229
GlyphClass: 1
Flags: W
LayerCount: 2
Fore
SplineSet
1128 1456 m 1,0,-1
 1128 505 l 2,1,2
 1128 257 1128 257 985.5 118 c 128,-1,3
 843 -21 843 -21 614 -21 c 0,4,5
 386 -21 386 -21 244 118.5 c 128,-1,6
 102 258 102 258 102 505 c 2,7,-1
 102 1456 l 1,8,-1
 383 1456 l 1,9,-1
 383 505 l 2,10,11
 383 356 383 356 445 277.5 c 128,-1,12
 507 199 507 199 614 199 c 0,13,14
 723 199 723 199 784.5 277 c 128,-1,15
 846 355 846 355 846 505 c 2,16,-1
 846 1456 l 1,17,-1
 1128 1456 l 1,0,-1
EndSplineSet
Substitution2: "'smcp' Lowercase to Small Capitals lookup 0 subtable" U.smcp
EndChar

StartChar: V
Encoding: 86 86 57
Width: 1141
GlyphClass: 1
Flags: W
LayerCount: 2
Fore
SplineSet
554 372 m 1,0,-1
 566 311 l 1,1,-1
 572 311 l 1,2,-1
 584 369 l 1,3,-1
 836 1456 l 1,4,-1
 1133 1456 l 1,5,-1
 716 0 l 1,6,-1
 423 0 l 1,7,-1
 8 1456 l 1,8,-1
 305 1456 l 1,9,-1
 554 372 l 1,0,-1
EndSplineSet
Substitution2: "'smcp' Lowercase to Small Capitals lookup 0 subtable" V.smcp
EndChar

StartChar: W
Encoding: 87 87 58
Width: 1566
GlyphClass: 1
Flags: W
LayerCount: 2
Fore
SplineSet
1103 533 m 1,0,-1
 1109 534 l 1,1,-1
 1258 1456 l 1,2,-1
 1545 1456 l 1,3,-1
 1260 0 l 1,4,-1
 998 0 l 1,5,-1
 785 902 l 1,6,-1
 779 902 l 1,7,-1
 567 0 l 1,8,-1
 305 0 l 1,9,-1
 18 1456 l 1,10,-1
 307 1456 l 1,11,-1
 456 532 l 1,12,-1
 462 531 l 1,13,-1
 671 1456 l 1,14,-1
 893 1456 l 1,15,-1
 1103 533 l 1,0,-1
EndSplineSet
Substitution2: "'smcp' Lowercase to Small Capitals lookup 0 subtable" W.smcp
EndChar

StartChar: X
Encoding: 88 88 59
Width: 1141
GlyphClass: 1
Flags: W
LayerCount: 2
Fore
SplineSet
565 941 m 1,0,-1
 571 941 l 1,1,-1
 778 1456 l 1,2,-1
 1105 1456 l 1,3,-1
 743 734 l 1,4,-1
 1129 0 l 1,5,-1
 788 0 l 1,6,-1
 574 526 l 1,7,-1
 568 526 l 1,8,-1
 355 0 l 1,9,-1
 27 0 l 1,10,-1
 398 734 l 1,11,-1
 35 1456 l 1,12,-1
 361 1456 l 1,13,-1
 565 941 l 1,0,-1
EndSplineSet
Substitution2: "'smcp' Lowercase to Small Capitals lookup 0 subtable" X.smcp
EndChar

StartChar: Y
Encoding: 89 89 60
Width: 1141
GlyphClass: 1
Flags: W
LayerCount: 2
Fore
SplineSet
567 823 m 1,0,-1
 573 823 l 1,1,-1
 824 1456 l 1,2,-1
 1132 1456 l 1,3,-1
 707 519 l 1,4,-1
 707 0 l 1,5,-1
 426 0 l 1,6,-1
 426 537 l 1,7,-1
 9 1456 l 1,8,-1
 317 1456 l 1,9,-1
 567 823 l 1,0,-1
EndSplineSet
Substitution2: "'smcp' Lowercase to Small Capitals lookup 0 subtable" Y.smcp
EndChar

StartChar: Z
Encoding: 90 90 61
Width: 966
GlyphClass: 1
Flags: W
LayerCount: 2
Fore
SplineSet
374 220 m 1,0,-1
 903 220 l 1,1,-1
 903 0 l 1,2,-1
 66 0 l 1,3,-1
 66 142 l 1,4,-1
 582 1235 l 1,5,-1
 62 1235 l 1,6,-1
 62 1456 l 1,7,-1
 892 1456 l 1,8,-1
 892 1319 l 1,9,-1
 374 220 l 1,0,-1
EndSplineSet
Substitution2: "'smcp' Lowercase to Small Capitals lookup 0 subtable" Z.smcp
EndChar

StartChar: bracketleft
Encoding: 91 91 62
Width: 533
GlyphClass: 1
Flags: W
LayerCount: 2
Fore
SplineSet
510 1482 m 1,0,-1
 393 1482 l 1,1,-1
 393 -127 l 1,2,-1
 510 -127 l 1,3,-1
 510 -337 l 1,4,-1
 108 -337 l 1,5,-1
 108 1693 l 1,6,-1
 510 1693 l 1,7,-1
 510 1482 l 1,0,-1
EndSplineSet
EndChar

StartChar: backslash
Encoding: 92 92 63
Width: 765
GlyphClass: 1
Flags: W
LayerCount: 2
Fore
SplineSet
0 1456 m 1,0,-1
 278 1456 l 1,1,-1
 801 -125 l 1,2,-1
 521 -125 l 1,3,-1
 0 1456 l 1,0,-1
EndSplineSet
EndChar

StartChar: bracketright
Encoding: 93 93 64
Width: 533
GlyphClass: 1
Flags: W
LayerCount: 2
Fore
SplineSet
19 1693 m 1,0,-1
 421 1693 l 1,1,-1
 421 -337 l 1,2,-1
 19 -337 l 1,3,-1
 19 -127 l 1,4,-1
 137 -127 l 1,5,-1
 137 1482 l 1,6,-1
 19 1482 l 1,7,-1
 19 1693 l 1,0,-1
EndSplineSet
EndChar

StartChar: asciicircum
Encoding: 94 94 65
Width: 793
GlyphClass: 1
Flags: W
LayerCount: 2
Fore
SplineSet
257 729 m 1,0,-1
 39 729 l 1,1,-1
 296 1456 l 1,2,-1
 501 1456 l 1,3,-1
 757 729 l 1,4,-1
 539 729 l 1,5,-1
 402 1153 l 1,6,-1
 399 1166 l 1,7,-1
 393 1166 l 1,8,-1
 391 1153 l 1,9,-1
 257 729 l 1,0,-1
EndSplineSet
EndChar

StartChar: underscore
Encoding: 95 95 66
Width: 802
GlyphClass: 1
Flags: W
LayerCount: 2
Fore
SplineSet
793 -214 m 1,0,-1
 6 -214 l 1,1,-1
 6 0 l 1,2,-1
 793 0 l 1,3,-1
 793 -214 l 1,0,-1
EndSplineSet
EndChar

StartChar: grave
Encoding: 96 96 67
Width: 633
GlyphClass: 1
Flags: W
LayerCount: 2
Fore
SplineSet
543 1252 m 1,0,-1
 297 1252 l 1,1,-1
 49 1512 l 1,2,-1
 52 1518 l 1,3,-1
 364 1518 l 1,4,-1
 543 1252 l 1,0,-1
EndSplineSet
EndChar

StartChar: a
Encoding: 97 97 68
Width: 957
GlyphClass: 1
Flags: W
LayerCount: 2
Fore
SplineSet
634 0 m 1,0,1
 618 36 618 36 607.5 78 c 128,-1,2
 597 120 597 120 592 164 c 1,3,4
 556 83 556 83 497.5 31 c 128,-1,5
 439 -21 439 -21 354 -21 c 0,6,7
 206 -21 206 -21 126.5 65.5 c 128,-1,8
 47 152 47 152 47 303 c 0,9,10
 47 461 47 461 151.5 548.5 c 128,-1,11
 256 636 256 636 464 636 c 2,12,-1
 587 636 l 1,13,-1
 587 726 l 2,14,15
 587 807 587 807 557 850.5 c 128,-1,16
 527 894 527 894 468 894 c 0,17,18
 416 894 416 894 389 859 c 128,-1,19
 362 824 362 824 362 759 c 1,20,-1
 90 760 l 1,21,-1
 88 766 l 1,22,23
 82 906 82 906 193 1004 c 128,-1,24
 304 1102 304 1102 486 1102 c 0,25,26
 657 1102 657 1102 763 1004 c 128,-1,27
 869 906 869 906 869 724 c 2,28,-1
 869 280 l 2,29,30
 869 204 869 204 880 136 c 128,-1,31
 891 68 891 68 914 0 c 1,32,-1
 634 0 l 1,0,1
427 188 m 0,33,34
 483 188 483 188 527 222.5 c 128,-1,35
 571 257 571 257 587 306 c 1,36,-1
 587 476 l 1,37,-1
 464 476 l 2,38,39
 393 476 393 476 360.5 430 c 128,-1,40
 328 384 328 384 328 314 c 0,41,42
 328 258 328 258 355 223 c 128,-1,43
 382 188 382 188 427 188 c 0,33,34
EndSplineSet
Substitution2: "'smcp' Lowercase to Small Capitals lookup 0 subtable" A.smcp
EndChar

StartChar: b
Encoding: 98 98 69
Width: 1008
GlyphClass: 1
Flags: W
LayerCount: 2
Fore
SplineSet
952 514 m 2,0,1
 952 269 952 269 859.5 124 c 128,-1,2
 767 -21 767 -21 589 -21 c 0,3,4
 511 -21 511 -21 453 15.5 c 128,-1,5
 395 52 395 52 354 121 c 1,6,-1
 335 0 l 1,7,-1
 94 0 l 1,8,-1
 94 1560 l 1,9,-1
 375 1560 l 1,10,-1
 375 986 l 1,11,12
 414 1042 414 1042 467 1072 c 128,-1,13
 520 1102 520 1102 588 1102 c 0,14,15
 767 1102 767 1102 859.5 948 c 128,-1,16
 952 794 952 794 952 535 c 2,17,-1
 952 514 l 2,0,1
670 535 m 2,18,19
 670 698 670 698 637 789 c 128,-1,20
 604 880 604 880 516 880 c 0,21,22
 467 880 467 880 431.5 855 c 128,-1,23
 396 830 396 830 375 785 c 1,24,-1
 375 282 l 1,25,26
 396 241 396 241 431 220.5 c 128,-1,27
 466 200 466 200 517 200 c 0,28,29
 606 200 606 200 638 280 c 128,-1,30
 670 360 670 360 670 514 c 2,31,-1
 670 535 l 2,18,19
EndSplineSet
Substitution2: "'smcp' Lowercase to Small Capitals lookup 0 subtable" B.smcp
EndChar

StartChar: c
Encoding: 99 99 70
Width: 921
GlyphClass: 1
Flags: W
LayerCount: 2
Fore
SplineSet
492 199 m 0,0,1
 552 199 552 199 583 243.5 c 128,-1,2
 614 288 614 288 614 371 c 1,3,-1
 869 371 l 1,4,-1
 872 365 l 1,5,6
 875 196 875 196 766.5 87.5 c 128,-1,7
 658 -21 658 -21 492 -21 c 0,8,9
 280 -21 280 -21 166.5 131.5 c 128,-1,10
 53 284 53 284 53 526 c 2,11,-1
 53 555 l 2,12,13
 53 795 53 795 166.5 948.5 c 128,-1,14
 280 1102 280 1102 491 1102 c 0,15,16
 667 1102 667 1102 771 989.5 c 128,-1,17
 875 877 875 877 872 686 c 1,18,-1
 870 681 l 1,19,-1
 614 681 l 1,20,21
 614 771 614 771 583 826 c 128,-1,22
 552 881 552 881 491 881 c 0,23,24
 403 881 403 881 369 791.5 c 128,-1,25
 335 702 335 702 335 555 c 2,26,-1
 335 526 l 2,27,28
 335 375 335 375 369 287 c 128,-1,29
 403 199 403 199 492 199 c 0,0,1
EndSplineSet
Substitution2: "'smcp' Lowercase to Small Capitals lookup 0 subtable" C.smcp
EndChar

StartChar: d
Encoding: 100 100 71
Width: 1008
GlyphClass: 1
Flags: W
LayerCount: 2
Fore
SplineSet
56 535 m 2,0,1
 56 790 56 790 151 946 c 128,-1,2
 246 1102 246 1102 420 1102 c 0,3,4
 485 1102 485 1102 537.5 1071 c 128,-1,5
 590 1040 590 1040 631 983 c 1,6,-1
 631 1560 l 1,7,-1
 913 1560 l 1,8,-1
 913 0 l 1,9,-1
 672 0 l 1,10,-1
 651 122 l 1,11,12
 608 52 608 52 550 15.5 c 128,-1,13
 492 -21 492 -21 418 -21 c 0,14,15
 246 -21 246 -21 151 125.5 c 128,-1,16
 56 272 56 272 56 514 c 2,17,-1
 56 535 l 2,0,1
336 514 m 2,18,19
 336 367 336 367 372 283.5 c 128,-1,20
 408 200 408 200 491 200 c 0,21,22
 537 200 537 200 572.5 221.5 c 128,-1,23
 608 243 608 243 631 285 c 1,24,-1
 631 782 l 1,25,26
 608 828 608 828 572 854 c 128,-1,27
 536 880 536 880 492 880 c 0,28,29
 410 880 410 880 373 785 c 128,-1,30
 336 690 336 690 336 535 c 2,31,-1
 336 514 l 2,18,19
EndSplineSet
Substitution2: "'smcp' Lowercase to Small Capitals lookup 0 subtable" D.smcp
EndChar

StartChar: e
Encoding: 101 101 72
Width: 937
GlyphClass: 1
Flags: W
LayerCount: 2
Fore
SplineSet
508 -21 m 0,0,1
 294 -21 294 -21 176 127 c 128,-1,2
 58 275 58 275 58 508 c 2,3,-1
 58 549 l 2,4,5
 58 794 58 794 171.5 948 c 128,-1,6
 285 1102 285 1102 491 1102 c 0,7,8
 682 1102 682 1102 784 971 c 128,-1,9
 886 840 886 840 886 615 c 2,10,-1
 886 461 l 1,11,-1
 340 461 l 1,12,13
 347 341 347 341 394.5 270 c 128,-1,14
 442 199 442 199 541 199 c 0,15,16
 625 199 625 199 681.5 218.5 c 128,-1,17
 738 238 738 238 803 280 c 1,18,-1
 876 104 l 1,19,20
 818 51 818 51 719.5 15 c 128,-1,21
 621 -21 621 -21 508 -21 c 0,0,1
491 881 m 0,22,23
 420 881 420 881 385.5 818.5 c 128,-1,24
 351 756 351 756 342 647 c 1,25,-1
 610 647 l 1,26,-1
 610 672 l 2,27,28
 610 771 610 771 582.5 826 c 128,-1,29
 555 881 555 881 491 881 c 0,22,23
EndSplineSet
Substitution2: "'smcp' Lowercase to Small Capitals lookup 0 subtable" E.smcp
EndChar

StartChar: f
Encoding: 102 102 73
Width: 638
GlyphClass: 1
Flags: W
LayerCount: 2
Fore
SplineSet
158 0 m 1,0,-1
 158 881 l 1,1,-1
 23 881 l 1,2,-1
 23 1082 l 1,3,-1
 158 1082 l 1,4,-1
 158 1204 l 2,5,6
 158 1385 158 1385 252.5 1483 c 128,-1,7
 347 1581 347 1581 519 1581 c 0,8,9
 552 1581 552 1581 585 1575.5 c 128,-1,10
 618 1570 618 1570 661 1560 c 1,11,-1
 639 1348 l 1,12,13
 618 1353 618 1353 599 1356 c 128,-1,14
 580 1359 580 1359 554 1359 c 0,15,16
 498 1359 498 1359 469 1318.5 c 128,-1,17
 440 1278 440 1278 440 1204 c 2,18,-1
 440 1082 l 1,19,-1
 614 1082 l 1,20,-1
 614 881 l 1,21,-1
 440 881 l 1,22,-1
 440 0 l 1,23,-1
 158 0 l 1,0,-1
EndSplineSet
Substitution2: "'smcp' Lowercase to Small Capitals lookup 0 subtable" F.smcp
EndChar

StartChar: g
Encoding: 103 103 74
Width: 1008
GlyphClass: 1
Flags: W
LayerCount: 2
Fore
SplineSet
57 535 m 2,0,1
 57 790 57 790 152 946 c 128,-1,2
 247 1102 247 1102 421 1102 c 0,3,4
 496 1102 496 1102 552.5 1064.5 c 128,-1,5
 609 1027 609 1027 651 958 c 1,6,-1
 670 1082 l 1,7,-1
 915 1082 l 1,8,-1
 915 6 l 2,9,10
 915 -205 915 -205 791.5 -321 c 128,-1,11
 668 -437 668 -437 449 -437 c 0,12,13
 377 -437 377 -437 297.5 -415 c 128,-1,14
 218 -393 218 -393 148 -355 c 1,15,-1
 195 -141 l 1,16,17
 255 -173 255 -173 315 -189 c 128,-1,18
 375 -205 375 -205 447 -205 c 0,19,20
 541 -205 541 -205 586.5 -153.5 c 128,-1,21
 632 -102 632 -102 632 7 c 2,22,-1
 632 87 l 1,23,24
 591 34 591 34 538.5 6.5 c 128,-1,25
 486 -21 486 -21 419 -21 c 0,26,27
 247 -21 247 -21 152 125.5 c 128,-1,28
 57 272 57 272 57 514 c 2,29,-1
 57 535 l 2,0,1
339 514 m 2,30,31
 339 366 339 366 374 283 c 128,-1,32
 409 200 409 200 493 200 c 0,33,34
 541 200 541 200 575.5 220 c 128,-1,35
 610 240 610 240 632 278 c 1,36,-1
 632 790 l 1,37,38
 609 833 609 833 574.5 856.5 c 128,-1,39
 540 880 540 880 494 880 c 0,40,41
 412 880 412 880 375.5 785.5 c 128,-1,42
 339 691 339 691 339 535 c 2,43,-1
 339 514 l 2,30,31
EndSplineSet
Substitution2: "'smcp' Lowercase to Small Capitals lookup 0 subtable" G.smcp
EndChar

StartChar: h
Encoding: 104 104 75
Width: 1008
GlyphClass: 1
Flags: W
LayerCount: 2
Fore
SplineSet
368 951 m 1,0,1
 411 1023 411 1023 471.5 1062.5 c 128,-1,2
 532 1102 532 1102 605 1102 c 0,3,4
 750 1102 750 1102 834 988 c 128,-1,5
 918 874 918 874 918 637 c 2,6,-1
 918 0 l 1,7,-1
 636 0 l 1,8,-1
 636 639 l 2,9,10
 636 773 636 773 606.5 826.5 c 128,-1,11
 577 880 577 880 515 880 c 0,12,13
 466 880 466 880 429.5 860.5 c 128,-1,14
 393 841 393 841 368 805 c 1,15,-1
 368 0 l 1,16,-1
 87 0 l 1,17,-1
 87 1560 l 1,18,-1
 368 1560 l 1,19,-1
 368 951 l 1,0,1
EndSplineSet
Substitution2: "'smcp' Lowercase to Small Capitals lookup 0 subtable" H.smcp
EndChar

StartChar: i
Encoding: 105 105 76
Width: 497
GlyphClass: 1
Flags: W
LayerCount: 2
Fore
SplineSet
389 0 m 1,0,-1
 107 0 l 1,1,-1
 107 1082 l 1,2,-1
 389 1082 l 1,3,-1
 389 0 l 1,0,-1
389 1345 m 1,4,-1
 107 1345 l 1,5,-1
 107 1560 l 1,6,-1
 389 1560 l 1,7,-1
 389 1345 l 1,4,-1
EndSplineSet
Substitution2: "'smcp' Lowercase to Small Capitals lookup 0 subtable" I.smcp
EndChar

StartChar: j
Encoding: 106 106 77
Width: 489
GlyphClass: 1
Flags: W
LayerCount: 2
Fore
SplineSet
395 1082 m 1,0,-1
 395 -37 l 2,1,2
 395 -228 395 -228 304 -332.5 c 128,-1,3
 213 -437 213 -437 52 -437 c 0,4,5
 17 -437 17 -437 -12 -432.5 c 128,-1,6
 -41 -428 -41 -428 -77 -419 c 1,7,-1
 -64 -202 l 1,8,9
 -41 -208 -41 -208 -23 -211.5 c 128,-1,10
 -5 -215 -5 -215 17 -215 c 0,11,12
 62 -215 62 -215 87.5 -170 c 128,-1,13
 113 -125 113 -125 113 -37 c 2,14,-1
 113 1082 l 1,15,-1
 395 1082 l 1,0,-1
390 1347 m 1,16,-1
 107 1347 l 1,17,-1
 107 1560 l 1,18,-1
 390 1560 l 1,19,-1
 390 1347 l 1,16,-1
EndSplineSet
Substitution2: "'smcp' Lowercase to Small Capitals lookup 0 subtable" J.smcp
EndChar

StartChar: k
Encoding: 107 107 78
Width: 973
GlyphClass: 1
Flags: W
LayerCount: 2
Fore
SplineSet
427 454 m 1,0,-1
 376 454 l 1,1,-1
 376 0 l 1,2,-1
 94 0 l 1,3,-1
 94 1560 l 1,4,-1
 376 1560 l 1,5,-1
 376 672 l 1,6,-1
 422 672 l 1,7,-1
 618 1082 l 1,8,-1
 943 1082 l 1,9,-1
 649 594 l 1,10,-1
 987 0 l 1,11,-1
 664 0 l 1,12,-1
 427 454 l 1,0,-1
EndSplineSet
Substitution2: "'smcp' Lowercase to Small Capitals lookup 0 subtable" K.smcp
EndChar

StartChar: l
Encoding: 108 108 79
Width: 497
GlyphClass: 1
Flags: W
LayerCount: 2
Fore
SplineSet
389 0 m 1,0,-1
 107 0 l 1,1,-1
 107 1560 l 1,2,-1
 389 1560 l 1,3,-1
 389 0 l 1,0,-1
EndSplineSet
Substitution2: "'smcp' Lowercase to Small Capitals lookup 0 subtable" L.smcp
EndChar

StartChar: m
Encoding: 109 109 80
Width: 1530
GlyphClass: 1
Flags: W
LayerCount: 2
Fore
SplineSet
357 1082 m 1,0,-1
 368 943 l 1,1,2
 412 1019 412 1019 478.5 1060.5 c 128,-1,3
 545 1102 545 1102 631 1102 c 0,4,5
 716 1102 716 1102 778 1057.5 c 128,-1,6
 840 1013 840 1013 873 922 c 1,7,8
 916 1007 916 1007 983.5 1054.5 c 128,-1,9
 1051 1102 1051 1102 1141 1102 c 0,10,11
 1277 1102 1277 1102 1356 988 c 128,-1,12
 1435 874 1435 874 1435 639 c 2,13,-1
 1435 0 l 1,14,-1
 1153 0 l 1,15,-1
 1153 639 l 2,16,17
 1153 776 1153 776 1124 828 c 128,-1,18
 1095 880 1095 880 1035 880 c 0,19,20
 991 880 991 880 957 854.5 c 128,-1,21
 923 829 923 829 901 784 c 1,22,23
 902 759 902 759 903.5 741 c 128,-1,24
 905 723 905 723 905 705 c 2,25,-1
 905 0 l 1,26,-1
 624 0 l 1,27,-1
 624 639 l 2,28,29
 624 774 624 774 595 827 c 128,-1,30
 566 880 566 880 505 880 c 0,31,32
 464 880 464 880 431.5 859.5 c 128,-1,33
 399 839 399 839 376 802 c 1,34,-1
 376 0 l 1,35,-1
 94 0 l 1,36,-1
 94 1082 l 1,37,-1
 357 1082 l 1,0,-1
EndSplineSet
Substitution2: "'smcp' Lowercase to Small Capitals lookup 0 subtable" M.smcp
EndChar

StartChar: n
Encoding: 110 110 81
Width: 1008
GlyphClass: 1
Flags: W
LayerCount: 2
Fore
SplineSet
352 1082 m 1,0,-1
 364 931 l 1,1,2
 410 1012 410 1012 476.5 1057 c 128,-1,3
 543 1102 543 1102 625 1102 c 0,4,5
 763 1102 763 1102 841.5 994.5 c 128,-1,6
 920 887 920 887 920 657 c 2,7,-1
 920 0 l 1,8,-1
 638 0 l 1,9,-1
 638 657 l 2,10,11
 638 779 638 779 608.5 829.5 c 128,-1,12
 579 880 579 880 519 880 c 0,13,14
 472 880 472 880 434.5 858 c 128,-1,15
 397 836 397 836 371 796 c 1,16,-1
 371 0 l 1,17,-1
 89 0 l 1,18,-1
 89 1082 l 1,19,-1
 352 1082 l 1,0,-1
EndSplineSet
Substitution2: "'smcp' Lowercase to Small Capitals lookup 0 subtable" N.smcp
EndChar

StartChar: o
Encoding: 111 111 82
Width: 1008
GlyphClass: 1
Flags: W
LayerCount: 2
Fore
SplineSet
59 551 m 2,0,1
 59 795 59 795 175.5 948.5 c 128,-1,2
 292 1102 292 1102 503 1102 c 0,3,4
 713 1102 713 1102 831 948.5 c 128,-1,5
 949 795 949 795 949 551 c 2,6,-1
 949 528 l 2,7,8
 949 284 949 284 831.5 131.5 c 128,-1,9
 714 -21 714 -21 505 -21 c 0,10,11
 293 -21 293 -21 176 131 c 128,-1,12
 59 283 59 283 59 528 c 2,13,-1
 59 551 l 2,0,1
340 528 m 2,14,15
 340 377 340 377 377.5 288 c 128,-1,16
 415 199 415 199 505 199 c 0,17,18
 591 199 591 199 629 288 c 128,-1,19
 667 377 667 377 667 528 c 2,20,-1
 667 551 l 2,21,22
 667 700 667 700 629 790.5 c 128,-1,23
 591 881 591 881 503 881 c 256,24,25
 415 881 415 881 377.5 790 c 128,-1,26
 340 699 340 699 340 551 c 2,27,-1
 340 528 l 2,14,15
EndSplineSet
Substitution2: "'smcp' Lowercase to Small Capitals lookup 0 subtable" O.smcp
EndChar

StartChar: p
Encoding: 112 112 83
Width: 1008
GlyphClass: 1
Flags: W
LayerCount: 2
Fore
SplineSet
952 514 m 2,0,1
 952 272 952 272 856.5 125.5 c 128,-1,2
 761 -21 761 -21 589 -21 c 0,3,4
 520 -21 520 -21 467 6.5 c 128,-1,5
 414 34 414 34 375 87 c 1,6,-1
 375 -416 l 1,7,-1
 94 -416 l 1,8,-1
 94 1082 l 1,9,-1
 352 1082 l 1,10,-1
 364 971 l 1,11,12
 404 1034 404 1034 459 1068 c 128,-1,13
 514 1102 514 1102 587 1102 c 0,14,15
 761 1102 761 1102 856.5 946 c 128,-1,16
 952 790 952 790 952 535 c 2,17,-1
 952 514 l 2,0,1
670 535 m 2,18,19
 670 690 670 690 632 785 c 128,-1,20
 594 880 594 880 514 880 c 0,21,22
 466 880 466 880 431 855.5 c 128,-1,23
 396 831 396 831 375 787 c 1,24,-1
 375 277 l 1,25,26
 396 239 396 239 431 219 c 128,-1,27
 466 199 466 199 515 199 c 0,28,29
 597 199 597 199 633.5 282.5 c 128,-1,30
 670 366 670 366 670 514 c 2,31,-1
 670 535 l 2,18,19
EndSplineSet
Substitution2: "'smcp' Lowercase to Small Capitals lookup 0 subtable" P.smcp
EndChar

StartChar: q
Encoding: 113 113 84
Width: 1008
GlyphClass: 1
Flags: W
LayerCount: 2
Fore
SplineSet
56 535 m 2,0,1
 56 790 56 790 151 946 c 128,-1,2
 246 1102 246 1102 420 1102 c 0,3,4
 494 1102 494 1102 550 1066 c 128,-1,5
 606 1030 606 1030 648 962 c 1,6,-1
 670 1082 l 1,7,-1
 912 1082 l 1,8,-1
 912 -416 l 1,9,-1
 629 -416 l 1,10,-1
 629 85 l 1,11,12
 589 33 589 33 536.5 6 c 128,-1,13
 484 -21 484 -21 418 -21 c 0,14,15
 246 -21 246 -21 151 125.5 c 128,-1,16
 56 272 56 272 56 514 c 2,17,-1
 56 535 l 2,0,1
336 514 m 2,18,19
 336 366 336 366 372 282.5 c 128,-1,20
 408 199 408 199 491 199 c 0,21,22
 538 199 538 199 572 218 c 128,-1,23
 606 237 606 237 629 274 c 1,24,-1
 629 793 l 1,25,26
 606 835 606 835 572 858 c 128,-1,27
 538 881 538 881 492 881 c 0,28,29
 410 881 410 881 373 785.5 c 128,-1,30
 336 690 336 690 336 535 c 2,31,-1
 336 514 l 2,18,19
EndSplineSet
Substitution2: "'smcp' Lowercase to Small Capitals lookup 0 subtable" Q.smcp
EndChar

StartChar: r
Encoding: 114 114 85
Width: 637
GlyphClass: 1
Flags: W
LayerCount: 2
Fore
SplineSet
598 838 m 1,0,-1
 502 841 l 2,1,2
 455 841 455 841 423.5 816 c 128,-1,3
 392 791 392 791 375 746 c 1,4,-1
 375 0 l 1,5,-1
 94 0 l 1,6,-1
 94 1082 l 1,7,-1
 357 1082 l 1,8,-1
 368 929 l 1,9,10
 399 1011 399 1011 447.5 1056.5 c 128,-1,11
 496 1102 496 1102 559 1102 c 0,12,13
 578 1102 578 1102 594 1098.5 c 128,-1,14
 610 1095 610 1095 627 1090 c 1,15,-1
 598 838 l 1,0,-1
EndSplineSet
Substitution2: "'smcp' Lowercase to Small Capitals lookup 0 subtable" R.smcp
EndChar

StartChar: s
Encoding: 115 115 86
Width: 899
GlyphClass: 1
Flags: W
LayerCount: 2
Fore
SplineSet
575 282 m 0,0,1
 575 330 575 330 538 364 c 128,-1,2
 501 398 501 398 395 447 c 1,3,4
 230 509 230 509 147 586 c 128,-1,5
 64 663 64 663 64 784 c 0,6,7
 64 916 64 916 169.5 1009 c 128,-1,8
 275 1102 275 1102 449 1102 c 0,9,10
 631 1102 631 1102 739.5 1005.5 c 128,-1,11
 848 909 848 909 843 762 c 1,12,-1
 841 756 l 1,13,-1
 569 756 l 1,14,15
 569 824 569 824 539 865.5 c 128,-1,16
 509 907 509 907 448 907 c 0,17,18
 399 907 399 907 365.5 875 c 128,-1,19
 332 843 332 843 332 797 c 0,20,21
 332 749 332 749 365 719.5 c 128,-1,22
 398 690 398 690 509 638 c 1,23,24
 680 579 680 579 763.5 499.5 c 128,-1,25
 847 420 847 420 847 293 c 0,26,27
 847 155 847 155 736.5 67 c 128,-1,28
 626 -21 626 -21 445 -21 c 0,29,30
 256 -21 256 -21 146 87 c 128,-1,31
 36 195 36 195 41 332 c 1,32,-1
 44 338 l 1,33,-1
 300 338 l 1,34,35
 302 250 302 250 342 211.5 c 128,-1,36
 382 173 382 173 452 173 c 0,37,38
 512 173 512 173 543.5 202.5 c 128,-1,39
 575 232 575 232 575 282 c 0,0,1
EndSplineSet
Substitution2: "'smcp' Lowercase to Small Capitals lookup 0 subtable" S.smcp
EndChar

StartChar: t
Encoding: 116 116 87
Width: 635
GlyphClass: 1
Flags: W
LayerCount: 2
Fore
SplineSet
424 1351 m 1,0,-1
 424 1082 l 1,1,-1
 571 1082 l 1,2,-1
 571 881 l 1,3,-1
 424 881 l 1,4,-1
 424 330 l 2,5,6
 424 261 424 261 444 232 c 128,-1,7
 464 203 464 203 499 203 c 0,8,9
 519 203 519 203 532 205.5 c 128,-1,10
 545 208 545 208 564 214 c 1,11,-1
 586 6 l 1,12,13
 546 -8 546 -8 509.5 -14.5 c 128,-1,14
 473 -21 473 -21 427 -21 c 0,15,16
 289 -21 289 -21 215.5 63 c 128,-1,17
 142 147 142 147 142 328 c 2,18,-1
 142 881 l 1,19,-1
 11 881 l 1,20,-1
 11 1082 l 1,21,-1
 142 1082 l 1,22,-1
 142 1351 l 1,23,-1
 424 1351 l 1,0,-1
EndSplineSet
Substitution2: "'smcp' Lowercase to Small Capitals lookup 0 subtable" T.smcp
EndChar

StartChar: u
Encoding: 117 117 88
Width: 1008
GlyphClass: 1
Flags: W
LayerCount: 2
Fore
SplineSet
657 154 m 1,0,1
 614 70 614 70 549.5 24.5 c 128,-1,2
 485 -21 485 -21 400 -21 c 0,3,4
 254 -21 254 -21 170.5 96 c 128,-1,5
 87 213 87 213 87 458 c 2,6,-1
 87 1082 l 1,7,-1
 369 1082 l 1,8,-1
 369 456 l 2,9,10
 369 311 369 311 397.5 255.5 c 128,-1,11
 426 200 426 200 487 200 c 0,12,13
 536 200 536 200 573 218.5 c 128,-1,14
 610 237 610 237 636 273 c 1,15,-1
 636 1082 l 1,16,-1
 919 1082 l 1,17,-1
 919 0 l 1,18,-1
 688 0 l 1,19,-1
 657 154 l 1,0,1
EndSplineSet
Substitution2: "'smcp' Lowercase to Small Capitals lookup 0 subtable" U.smcp
EndChar

StartChar: v
Encoding: 118 118 89
Width: 920
GlyphClass: 1
Flags: W
LayerCount: 2
Fore
SplineSet
444 400 m 1,0,-1
 457 318 l 1,1,-1
 463 318 l 1,2,-1
 478 400 l 1,3,-1
 610 1082 l 1,4,-1
 905 1082 l 1,5,-1
 597 0 l 1,6,-1
 322 0 l 1,7,-1
 13 1082 l 1,8,-1
 310 1082 l 1,9,-1
 444 400 l 1,0,-1
EndSplineSet
Substitution2: "'smcp' Lowercase to Small Capitals lookup 0 subtable" V.smcp
EndChar

StartChar: w
Encoding: 119 119 90
Width: 1301
GlyphClass: 1
Flags: W
LayerCount: 2
Fore
SplineSet
898 479 m 1,0,-1
 904 479 l 1,1,-1
 1000 1082 l 1,2,-1
 1272 1082 l 1,3,-1
 1044 0 l 1,4,-1
 809 0 l 1,5,-1
 652 571 l 1,6,-1
 646 571 l 1,7,-1
 489 0 l 1,8,-1
 253 0 l 1,9,-1
 25 1082 l 1,10,-1
 296 1082 l 1,11,-1
 394 476 l 1,12,-1
 400 476 l 1,13,-1
 557 1082 l 1,14,-1
 740 1082 l 1,15,-1
 898 479 l 1,0,-1
EndSplineSet
Substitution2: "'smcp' Lowercase to Small Capitals lookup 0 subtable" W.smcp
EndChar

StartChar: x
Encoding: 120 120 91
Width: 920
GlyphClass: 1
Flags: W
LayerCount: 2
Fore
SplineSet
456 736 m 1,0,-1
 462 736 l 1,1,-1
 583 1082 l 1,2,-1
 901 1082 l 1,3,-1
 628 547 l 1,4,-1
 910 0 l 1,5,-1
 593 0 l 1,6,-1
 466 357 l 1,7,-1
 460 357 l 1,8,-1
 334 0 l 1,9,-1
 16 0 l 1,10,-1
 298 547 l 1,11,-1
 24 1082 l 1,12,-1
 339 1082 l 1,13,-1
 456 736 l 1,0,-1
EndSplineSet
Substitution2: "'smcp' Lowercase to Small Capitals lookup 0 subtable" X.smcp
EndChar

StartChar: y
Encoding: 121 121 92
Width: 920
GlyphClass: 1
Flags: W
LayerCount: 2
Fore
SplineSet
444 437 m 1,0,-1
 444 434 l 1,1,-1
 450 434 l 1,2,-1
 612 1082 l 1,3,-1
 915 1082 l 1,4,-1
 542 -163 l 1,5,6
 501 -280 501 -280 432 -358.5 c 128,-1,7
 363 -437 363 -437 221 -437 c 0,8,9
 187 -437 187 -437 160.5 -431.5 c 128,-1,10
 134 -426 134 -426 86 -414 c 1,11,-1
 120 -207 l 1,12,13
 131 -209 131 -209 141.5 -211 c 128,-1,14
 152 -213 152 -213 162 -213 c 0,15,16
 224 -213 224 -213 256.5 -179 c 128,-1,17
 289 -145 289 -145 304 -90 c 2,18,-1
 331 -7 l 1,19,-1
 5 1082 l 1,20,-1
 308 1082 l 1,21,-1
 444 437 l 1,0,-1
EndSplineSet
Substitution2: "'smcp' Lowercase to Small Capitals lookup 0 subtable" Y.smcp
EndChar

StartChar: z
Encoding: 122 122 93
Width: 920
GlyphClass: 1
Flags: W
LayerCount: 2
Fore
SplineSet
397 220 m 1,0,-1
 850 220 l 1,1,-1
 850 0 l 1,2,-1
 68 0 l 1,3,-1
 68 165 l 1,4,-1
 509 861 l 1,5,-1
 81 861 l 1,6,-1
 81 1082 l 1,7,-1
 841 1082 l 1,8,-1
 841 921 l 1,9,-1
 397 220 l 1,0,-1
EndSplineSet
Substitution2: "'smcp' Lowercase to Small Capitals lookup 0 subtable" Z.smcp
EndChar

StartChar: braceleft
Encoding: 123 123 94
Width: 593
GlyphClass: 1
Flags: W
LayerCount: 2
Fore
SplineSet
499 -367 m 1,0,1
 330 -312 330 -312 258 -192 c 128,-1,2
 186 -72 186 -72 186 98 c 2,3,-1
 186 304 l 2,4,5
 186 405 186 405 151 460.5 c 128,-1,6
 116 516 116 516 43 516 c 1,7,-1
 43 713 l 1,8,9
 116 713 116 713 151 768 c 128,-1,10
 186 823 186 823 186 924 c 2,11,-1
 186 1132 l 2,12,13
 186 1303 186 1303 258 1422.5 c 128,-1,14
 330 1542 330 1542 499 1597 c 1,15,-1
 553 1444 l 1,16,17
 487 1412 487 1412 461.5 1332.5 c 128,-1,18
 436 1253 436 1253 436 1132 c 2,19,-1
 436 924 l 2,20,21
 436 819 436 819 394.5 739 c 128,-1,22
 353 659 353 659 269 614 c 1,23,24
 353 568 353 568 394.5 487.5 c 128,-1,25
 436 407 436 407 436 304 c 2,26,-1
 436 98 l 2,27,28
 436 -23 436 -23 461 -102 c 128,-1,29
 486 -181 486 -181 552 -213 c 1,30,-1
 499 -367 l 1,0,1
EndSplineSet
EndChar

StartChar: bar
Encoding: 124 124 95
Width: 469
GlyphClass: 1
Flags: W
LayerCount: 2
Fore
SplineSet
343 -270 m 1,0,-1
 126 -270 l 1,1,-1
 126 1456 l 1,2,-1
 343 1456 l 1,3,-1
 343 -270 l 1,0,-1
EndSplineSet
EndChar

StartChar: braceright
Encoding: 125 125 96
Width: 593
GlyphClass: 1
Flags: W
LayerCount: 2
Fore
SplineSet
40 -213 m 1,0,1
 105 -181 105 -181 131 -102 c 128,-1,2
 157 -23 157 -23 157 98 c 2,3,-1
 157 304 l 2,4,5
 157 409 157 409 198.5 489 c 128,-1,6
 240 569 240 569 326 614 c 1,7,8
 240 658 240 658 198.5 738 c 128,-1,9
 157 818 157 818 157 924 c 2,10,-1
 157 1132 l 2,11,12
 157 1253 157 1253 131 1332.5 c 128,-1,13
 105 1412 105 1412 40 1444 c 1,14,-1
 93 1597 l 1,15,16
 261 1542 261 1542 333.5 1422.5 c 128,-1,17
 406 1303 406 1303 406 1132 c 2,18,-1
 406 924 l 2,19,20
 406 823 406 823 440.5 768 c 128,-1,21
 475 713 475 713 549 713 c 1,22,-1
 549 516 l 1,23,24
 475 516 475 516 440.5 460 c 128,-1,25
 406 404 406 404 406 304 c 2,26,-1
 406 98 l 2,27,28
 406 -72 406 -72 333.5 -192 c 128,-1,29
 261 -312 261 -312 93 -367 c 1,30,-1
 40 -213 l 1,0,1
EndSplineSet
EndChar

StartChar: asciitilde
Encoding: 126 126 97
Width: 1139
GlyphClass: 1
Flags: W
LayerCount: 2
Fore
SplineSet
1047 760 m 1,0,1
 1047 598 1047 598 970 489 c 128,-1,2
 893 380 893 380 775 380 c 0,3,4
 702 380 702 380 641 412 c 128,-1,5
 580 444 580 444 513 515 c 0,6,7
 470 561 470 561 441.5 580.5 c 128,-1,8
 413 600 413 600 377 600 c 0,9,10
 337 600 337 600 309.5 548 c 128,-1,11
 282 496 282 496 282 420 c 1,12,-1
 90 446 l 1,13,14
 90 609 90 609 165.5 716 c 128,-1,15
 241 823 241 823 361 823 c 0,16,17
 432 823 432 823 496.5 789.5 c 128,-1,18
 561 756 561 756 625 690 c 1,19,20
 663 643 663 643 693 623 c 128,-1,21
 723 603 723 603 759 603 c 0,22,23
 798 603 798 603 826 656.5 c 128,-1,24
 854 710 854 710 854 787 c 1,25,-1
 1047 760 l 1,0,1
EndSplineSet
EndChar

StartChar: exclamdown
Encoding: 161 161 99
Width: 535
GlyphClass: 1
Flags: W
LayerCount: 2
Fore
SplineSet
409 -374 m 1,0,-1
 126 -374 l 1,1,-1
 126 577 l 1,2,-1
 409 577 l 1,3,-1
 409 -374 l 1,0,-1
407 825 m 1,4,-1
 128 825 l 1,5,-1
 128 1082 l 1,6,-1
 407 1082 l 1,7,-1
 407 825 l 1,4,-1
EndSplineSet
EndChar

StartChar: cent
Encoding: 162 162 100
Width: 1042
GlyphClass: 1
Flags: W
LayerCount: 2
Fore
SplineSet
492 199 m 0,0,1
 552 199 552 199 583 243.5 c 128,-1,2
 614 288 614 288 614 371 c 1,3,-1
 877 371 l 1,4,5
 877 234 877 234 806.5 134.5 c 128,-1,6
 736 35 736 35 619 -2 c 1,7,-1
 619 -245 l 1,8,-1
 435 -245 l 1,9,-1
 435 -17 l 1,10,11
 250 4 250 4 151.5 152.5 c 128,-1,12
 53 301 53 301 53 526 c 2,13,-1
 53 555 l 2,14,15
 53 778 53 778 151.5 927 c 128,-1,16
 250 1076 250 1076 435 1098 c 1,17,-1
 435 1318 l 1,18,-1
 619 1318 l 1,19,-1
 619 1084 l 1,20,21
 739 1046 739 1046 808 941 c 128,-1,22
 877 836 877 836 877 681 c 1,23,-1
 614 681 l 1,24,25
 614 771 614 771 583 826 c 128,-1,26
 552 881 552 881 491 881 c 0,27,28
 403 881 403 881 369 791.5 c 128,-1,29
 335 702 335 702 335 555 c 2,30,-1
 335 526 l 2,31,32
 335 375 335 375 369 287 c 128,-1,33
 403 199 403 199 492 199 c 0,0,1
EndSplineSet
EndChar

StartChar: sterling
Encoding: 163 163 101
Width: 1068
GlyphClass: 1
Flags: W
LayerCount: 2
Fore
SplineSet
509 591 m 1,0,-1
 513 506 l 2,1,2
 513 426 513 426 483 352 c 128,-1,3
 453 278 453 278 398 220 c 1,4,-1
 1012 220 l 1,5,-1
 1012 0 l 1,6,-1
 145 0 l 1,7,-1
 145 220 l 1,8,-1
 154 220 l 1,9,10
 191 232 191 232 209.5 316 c 128,-1,11
 228 400 228 400 228 491 c 2,12,-1
 224 591 l 1,13,-1
 91 591 l 1,14,-1
 91 812 l 1,15,-1
 217 812 l 1,16,-1
 210 1026 l 1,17,18
 210 1237 210 1237 316 1357 c 128,-1,19
 422 1477 422 1477 601 1477 c 0,20,21
 791 1477 791 1477 896.5 1365 c 128,-1,22
 1002 1253 1002 1253 999 1069 c 1,23,-1
 996 1063 l 1,24,-1
 723 1063 l 1,25,26
 723 1162 723 1162 687.5 1209 c 128,-1,27
 652 1256 652 1256 600 1256 c 0,28,29
 549 1256 549 1256 520.5 1196 c 128,-1,30
 492 1136 492 1136 492 1026 c 1,31,-1
 500 812 l 1,32,-1
 788 812 l 1,33,-1
 788 591 l 1,34,-1
 509 591 l 1,0,-1
EndSplineSet
EndChar

StartChar: currency
Encoding: 164 164 102
Width: 1278
GlyphClass: 1
Flags: W
LayerCount: 2
Fore
SplineSet
964 105 m 1,0,1
 895 44 895 44 813 12 c 128,-1,2
 731 -20 731 -20 642 -20 c 0,3,4
 552 -20 552 -20 469.5 12 c 128,-1,5
 387 44 387 44 320 104 c 1,6,-1
 205 -26 l 1,7,-1
 74 108 l 1,8,-1
 199 250 l 1,9,10
 154 326 154 326 130 417 c 128,-1,11
 106 508 106 508 106 608 c 0,12,13
 106 711 106 711 132 805 c 128,-1,14
 158 899 158 899 207 977 c 1,15,-1
 74 1129 l 1,16,-1
 205 1264 l 1,17,-1
 331 1121 l 1,18,19
 398 1175 398 1175 477 1204.5 c 128,-1,20
 556 1234 556 1234 642 1234 c 0,21,22
 727 1234 727 1234 806 1204 c 128,-1,23
 885 1174 885 1174 952 1119 c 1,24,-1
 1080 1265 l 1,25,-1
 1212 1129 l 1,26,-1
 1076 974 l 1,27,28
 1123 895 1123 895 1149 802.5 c 128,-1,29
 1175 710 1175 710 1175 608 c 0,30,31
 1175 510 1175 510 1151 419.5 c 128,-1,32
 1127 329 1127 329 1084 253 c 1,33,-1
 1212 108 l 1,34,-1
 1080 -27 l 1,35,-1
 964 105 l 1,0,1
278 608 m 0,36,37
 278 418 278 418 383.5 287.5 c 128,-1,38
 489 157 489 157 642 157 c 0,39,40
 792 157 792 157 898 287.5 c 128,-1,41
 1004 418 1004 418 1004 608 c 0,42,43
 1004 796 1004 796 898 926 c 128,-1,44
 792 1056 792 1056 642 1056 c 0,45,46
 489 1056 489 1056 383.5 926 c 128,-1,47
 278 796 278 796 278 608 c 0,36,37
EndSplineSet
EndChar

StartChar: yen
Encoding: 165 165 103
Width: 1096
GlyphClass: 1
Flags: W
LayerCount: 2
Fore
SplineSet
545 888 m 1,0,-1
 551 888 l 1,1,-1
 767 1456 l 1,2,-1
 1074 1456 l 1,3,-1
 748 735 l 1,4,-1
 946 735 l 1,5,-1
 946 575 l 1,6,-1
 685 575 l 1,7,-1
 685 445 l 1,8,-1
 946 445 l 1,9,-1
 946 286 l 1,10,-1
 685 286 l 1,11,-1
 685 0 l 1,12,-1
 404 0 l 1,13,-1
 404 286 l 1,14,-1
 125 286 l 1,15,-1
 125 445 l 1,16,-1
 404 445 l 1,17,-1
 404 575 l 1,18,-1
 125 575 l 1,19,-1
 125 735 l 1,20,-1
 348 735 l 1,21,-1
 21 1456 l 1,22,-1
 329 1456 l 1,23,-1
 545 888 l 1,0,-1
EndSplineSet
EndChar

StartChar: brokenbar
Encoding: 166 166 104
Width: 469
GlyphClass: 1
Flags: W
LayerCount: 2
Fore
SplineSet
111 -270 m 1,0,-1
 111 521 l 1,1,-1
 360 521 l 1,2,-1
 360 -270 l 1,3,-1
 111 -270 l 1,0,-1
360 698 m 1,4,-1
 111 698 l 1,5,-1
 111 1456 l 1,6,-1
 360 1456 l 1,7,-1
 360 698 l 1,4,-1
EndSplineSet
EndChar

StartChar: section
Encoding: 167 167 105
Width: 1129
GlyphClass: 1
Flags: W
LayerCount: 2
Fore
SplineSet
1032 479 m 0,0,1
 1032 388 1032 388 994 320.5 c 128,-1,2
 956 253 956 253 886 210 c 1,3,4
 950 159 950 159 982 88.5 c 128,-1,5
 1014 18 1014 18 1014 -82 c 0,6,7
 1014 -259 1014 -259 891 -358.5 c 128,-1,8
 768 -458 768 -458 560 -458 c 0,9,10
 357 -458 357 -458 221 -359 c 128,-1,11
 85 -260 85 -260 90 -42 c 1,12,-1
 92 -36 l 1,13,-1
 366 -36 l 1,14,15
 366 -144 366 -144 421 -190.5 c 128,-1,16
 476 -237 476 -237 560 -237 c 0,17,18
 642 -237 642 -237 687 -195 c 128,-1,19
 732 -153 732 -153 732 -83 c 0,20,21
 732 -15 732 -15 683 26 c 128,-1,22
 634 67 634 67 498 116 c 1,23,24
 287 180 287 180 186 272 c 128,-1,25
 85 364 85 364 85 534 c 0,26,27
 85 623 85 623 122.5 691 c 128,-1,28
 160 759 160 759 232 804 c 1,29,30
 167 854 167 854 135 925 c 128,-1,31
 103 996 103 996 103 1097 c 0,32,33
 103 1269 103 1269 227 1373 c 128,-1,34
 351 1477 351 1477 560 1477 c 0,35,36
 773 1477 773 1477 893.5 1365.5 c 128,-1,37
 1014 1254 1014 1254 1010 1055 c 1,38,-1
 1008 1049 l 1,39,-1
 734 1049 l 1,40,41
 734 1139 734 1139 688.5 1197.5 c 128,-1,42
 643 1256 643 1256 560 1256 c 0,43,44
 471 1256 471 1256 428.5 1212 c 128,-1,45
 386 1168 386 1168 386 1099 c 0,46,47
 386 1023 386 1023 430.5 983 c 128,-1,48
 475 943 475 943 617 896 c 1,49,50
 830 833 830 833 931 740.5 c 128,-1,51
 1032 648 1032 648 1032 479 c 0,0,1
522 669 m 0,52,53
 496 676 496 676 470.5 685 c 128,-1,54
 445 694 445 694 419 704 c 1,55,56
 392 682 392 682 379 645.5 c 128,-1,57
 366 609 366 609 366 563 c 0,58,59
 366 481 366 481 409 439.5 c 128,-1,60
 452 398 452 398 593 344 c 0,61,62
 623 334 623 334 647.5 326 c 128,-1,63
 672 318 672 318 694 310 c 1,64,65
 723 333 723 333 739 369.5 c 128,-1,66
 755 406 755 406 755 451 c 0,67,68
 755 525 755 525 706 570.5 c 128,-1,69
 657 616 657 616 522 669 c 0,52,53
EndSplineSet
EndChar

StartChar: dieresis
Encoding: 168 168 106
Width: 1009
GlyphClass: 1
Flags: W
LayerCount: 2
Fore
SplineSet
850 1259 m 1,0,-1
 600 1259 l 1,1,-1
 600 1456 l 1,2,-1
 850 1456 l 1,3,-1
 850 1259 l 1,0,-1
395 1259 m 1,4,-1
 144 1259 l 1,5,-1
 144 1456 l 1,6,-1
 395 1456 l 1,7,-1
 395 1259 l 1,4,-1
EndSplineSet
EndChar

StartChar: copyright
Encoding: 169 169 107
Width: 1456
GlyphClass: 1
Flags: W
LayerCount: 2
Fore
SplineSet
1002 596 m 1,0,-1
 1005 590 l 1,1,2
 1008 439 1008 439 929 360.5 c 128,-1,3
 850 282 850 282 707 282 c 0,4,5
 563 282 563 282 477.5 388.5 c 128,-1,6
 392 495 392 495 392 669 c 2,7,-1
 392 788 l 2,8,9
 392 961 392 961 477.5 1068 c 128,-1,10
 563 1175 563 1175 707 1175 c 0,11,12
 850 1175 850 1175 929.5 1095.5 c 128,-1,13
 1009 1016 1009 1016 1006 867 c 1,14,-1
 1003 861 l 1,15,-1
 866 861 l 1,16,17
 866 958 866 958 826.5 1002.5 c 128,-1,18
 787 1047 787 1047 707 1047 c 0,19,20
 624 1047 624 1047 580 976 c 128,-1,21
 536 905 536 905 536 789 c 2,22,-1
 536 669 l 2,23,24
 536 550 536 550 580 479.5 c 128,-1,25
 624 409 624 409 707 409 c 0,26,27
 787 409 787 409 826.5 452.5 c 128,-1,28
 866 496 866 496 866 596 c 1,29,-1
 1002 596 l 1,0,-1
194 729 m 0,30,31
 194 462 194 462 347.5 279.5 c 128,-1,32
 501 97 501 97 721 97 c 0,33,34
 939 97 939 97 1092.5 279.5 c 128,-1,35
 1246 462 1246 462 1246 729 c 0,36,37
 1246 994 1246 994 1092.5 1175.5 c 128,-1,38
 939 1357 939 1357 721 1357 c 0,39,40
 501 1357 501 1357 347.5 1175.5 c 128,-1,41
 194 994 194 994 194 729 c 0,30,31
82 729 m 0,42,43
 82 1044 82 1044 268 1260 c 128,-1,44
 454 1476 454 1476 721 1476 c 0,45,46
 986 1476 986 1476 1172.5 1260 c 128,-1,47
 1359 1044 1359 1044 1359 729 c 0,48,49
 1359 413 1359 413 1172 196 c 128,-1,50
 985 -21 985 -21 721 -21 c 0,51,52
 454 -21 454 -21 268 196 c 128,-1,53
 82 413 82 413 82 729 c 0,42,43
EndSplineSet
EndChar

StartChar: ordfeminine
Encoding: 170 170 108
Width: 795
GlyphClass: 1
Flags: W
LayerCount: 2
Fore
SplineSet
519 706 m 1,0,1
 512 727 512 727 507.5 751.5 c 128,-1,2
 503 776 503 776 501 802 c 1,3,4
 473 754 473 754 426 723 c 128,-1,5
 379 692 379 692 313 692 c 0,6,7
 211 692 211 692 155 753.5 c 128,-1,8
 99 815 99 815 99 920 c 0,9,10
 99 1029 99 1029 172.5 1089 c 128,-1,11
 246 1149 246 1149 387 1149 c 2,12,-1
 499 1149 l 1,13,-1
 499 1202 l 2,14,15
 499 1267 499 1267 475 1302 c 128,-1,16
 451 1337 451 1337 405 1337 c 0,17,18
 352 1337 352 1337 323.5 1309 c 128,-1,19
 295 1281 295 1281 295 1230 c 1,20,-1
 144 1243 l 1,21,-1
 142 1249 l 1,22,23
 137 1347 137 1347 210 1412 c 128,-1,24
 283 1477 283 1477 405 1477 c 0,25,26
 522 1477 522 1477 590.5 1406 c 128,-1,27
 659 1335 659 1335 659 1201 c 2,28,-1
 659 887 l 2,29,30
 659 836 659 836 664 792 c 128,-1,31
 669 748 669 748 681 706 c 1,32,-1
 519 706 l 1,0,1
353 827 m 0,33,34
 394 827 394 827 439.5 859 c 128,-1,35
 485 891 485 891 499 928 c 1,36,-1
 499 1037 l 1,37,-1
 388 1037 l 2,38,39
 327 1037 327 1037 293.5 1004 c 128,-1,40
 260 971 260 971 260 924 c 256,41,42
 260 877 260 877 283 852 c 128,-1,43
 306 827 306 827 353 827 c 0,33,34
EndSplineSet
EndChar

StartChar: logicalnot
Encoding: 172 172 110
Width: 985
GlyphClass: 1
Flags: W
LayerCount: 2
Fore
SplineSet
836 375 m 1,0,-1
 653 375 l 1,1,-1
 653 639 l 1,2,-1
 116 639 l 1,3,-1
 116 800 l 1,4,-1
 836 800 l 1,5,-1
 836 375 l 1,0,-1
EndSplineSet
EndChar

StartChar: registered
Encoding: 174 174 112
Width: 1455
GlyphClass: 1
Flags: W
LayerCount: 2
Fore
SplineSet
82 729 m 0,0,1
 82 1044 82 1044 268 1260 c 128,-1,2
 454 1476 454 1476 720 1476 c 0,3,4
 985 1476 985 1476 1172 1260 c 128,-1,5
 1359 1044 1359 1044 1359 729 c 0,6,7
 1359 413 1359 413 1172 196 c 128,-1,8
 985 -21 985 -21 720 -21 c 0,9,10
 454 -21 454 -21 268 196 c 128,-1,11
 82 413 82 413 82 729 c 0,0,1
196 729 m 0,12,13
 196 462 196 462 349 279.5 c 128,-1,14
 502 97 502 97 720 97 c 0,15,16
 939 97 939 97 1092.5 279.5 c 128,-1,17
 1246 462 1246 462 1246 729 c 0,18,19
 1246 994 1246 994 1092.5 1175.5 c 128,-1,20
 939 1357 939 1357 720 1357 c 256,21,22
 501 1357 501 1357 348.5 1175.5 c 128,-1,23
 196 994 196 994 196 729 c 0,12,13
593 656 m 1,24,-1
 593 316 l 1,25,-1
 453 316 l 1,26,-1
 453 1166 l 1,27,-1
 708 1166 l 2,28,29
 844 1166 844 1166 922.5 1098.5 c 128,-1,30
 1001 1031 1001 1031 1001 905 c 0,31,32
 1001 847 1001 847 974.5 803 c 128,-1,33
 948 759 948 759 897 729 c 1,34,35
 951 699 951 699 975.5 644.5 c 128,-1,36
 1000 590 1000 590 1000 515 c 2,37,-1
 1000 459 l 2,38,39
 1000 417 1000 417 1003 384.5 c 128,-1,40
 1006 352 1006 352 1015 332 c 1,41,-1
 1015 316 l 1,42,-1
 871 316 l 1,43,44
 863 337 863 337 861.5 377.5 c 128,-1,45
 860 418 860 418 860 460 c 2,46,-1
 860 514 l 2,47,48
 860 587 860 587 830 621.5 c 128,-1,49
 800 656 800 656 733 656 c 2,50,-1
 593 656 l 1,24,-1
593 783 m 1,51,-1
 709 783 l 2,52,53
 773 783 773 783 817.5 815 c 128,-1,54
 862 847 862 847 862 905 c 0,55,56
 862 979 862 979 828 1009 c 128,-1,57
 794 1039 794 1039 708 1039 c 2,58,-1
 593 1039 l 1,59,-1
 593 783 l 1,51,-1
EndSplineSet
EndChar

StartChar: macron
Encoding: 175 175 113
AltUni2: 0002c9.ffffffff.0 0002c9.ffffffff.0
Width: 956
GlyphClass: 1
Flags: W
LayerCount: 2
Fore
SplineSet
807 1300 m 1,0,-1
 145 1300 l 1,1,-1
 145 1457 l 1,2,-1
 807 1457 l 1,3,-1
 807 1300 l 1,0,-1
EndSplineSet
EndChar

StartChar: degree
Encoding: 176 176 114
Width: 734
GlyphClass: 1
Flags: W
LayerCount: 2
Fore
SplineSet
119 1204 m 0,0,1
 119 1316 119 1316 191.5 1396.5 c 128,-1,2
 264 1477 264 1477 367 1477 c 0,3,4
 467 1477 467 1477 539.5 1396.5 c 128,-1,5
 612 1316 612 1316 612 1204 c 0,6,7
 612 1091 612 1091 539.5 1012.5 c 128,-1,8
 467 934 467 934 367 934 c 0,9,10
 264 934 264 934 191.5 1012.5 c 128,-1,11
 119 1091 119 1091 119 1204 c 0,0,1
257 1204 m 0,12,13
 257 1149 257 1149 289 1112 c 128,-1,14
 321 1075 321 1075 367 1075 c 0,15,16
 412 1075 412 1075 443 1111.5 c 128,-1,17
 474 1148 474 1148 474 1204 c 256,18,19
 474 1260 474 1260 443 1298.5 c 128,-1,20
 412 1337 412 1337 367 1337 c 0,21,22
 321 1337 321 1337 289 1298.5 c 128,-1,23
 257 1260 257 1260 257 1204 c 0,12,13
EndSplineSet
EndChar

StartChar: plusminus
Encoding: 177 177 115
Width: 1005
GlyphClass: 1
Flags: W
LayerCount: 2
Fore
SplineSet
624 949 m 1,0,-1
 911 949 l 1,1,-1
 911 720 l 1,2,-1
 624 720 l 1,3,-1
 624 335 l 1,4,-1
 376 335 l 1,5,-1
 376 720 l 1,6,-1
 87 720 l 1,7,-1
 87 949 l 1,8,-1
 376 949 l 1,9,-1
 376 1313 l 1,10,-1
 624 1313 l 1,11,-1
 624 949 l 1,0,-1
813 -40 m 1,12,-1
 95 -40 l 1,13,-1
 95 183 l 1,14,-1
 813 183 l 1,15,-1
 813 -40 l 1,12,-1
EndSplineSet
EndChar

StartChar: twosuperior
Encoding: 178 178 116
Width: 756
GlyphClass: 1
Flags: W
LayerCount: 2
Fore
SplineSet
647 667 m 1,0,-1
 102 667 l 1,1,-1
 102 816 l 1,2,-1
 369 1071 l 2,3,4
 417 1122 417 1122 431 1156.5 c 128,-1,5
 445 1191 445 1191 445 1234 c 0,6,7
 445 1275 445 1275 427 1302 c 128,-1,8
 409 1329 409 1329 371 1329 c 0,9,10
 329 1329 329 1329 308 1298 c 128,-1,11
 287 1267 287 1267 287 1217 c 1,12,-1
 99 1217 l 1,13,-1
 97 1223 l 1,14,15
 92 1329 92 1329 169.5 1404 c 128,-1,16
 247 1479 247 1479 377 1479 c 0,17,18
 504 1479 504 1479 573 1414.5 c 128,-1,19
 642 1350 642 1350 642 1233 c 0,20,21
 642 1150 642 1150 593 1084.5 c 128,-1,22
 544 1019 544 1019 437 922 c 1,23,-1
 352 821 l 1,24,-1
 354 816 l 1,25,-1
 647 816 l 1,26,-1
 647 667 l 1,0,-1
EndSplineSet
EndChar

StartChar: threesuperior
Encoding: 179 179 117
Width: 749
GlyphClass: 1
Flags: W
LayerCount: 2
Fore
SplineSet
356 1135 m 2,0,1
 405 1135 405 1135 428.5 1161 c 128,-1,2
 452 1187 452 1187 452 1235 c 0,3,4
 452 1275 452 1275 430.5 1301.5 c 128,-1,5
 409 1328 409 1328 367 1328 c 0,6,7
 326 1328 326 1328 305.5 1305 c 128,-1,8
 285 1282 285 1282 285 1247 c 1,9,-1
 97 1247 l 1,10,-1
 95 1253 l 1,11,12
 89 1355 89 1355 166 1416.5 c 128,-1,13
 243 1478 243 1478 362 1478 c 0,14,15
 495 1478 495 1478 573 1418.5 c 128,-1,16
 651 1359 651 1359 651 1249 c 0,17,18
 651 1194 651 1194 620 1148.5 c 128,-1,19
 589 1103 589 1103 535 1077 c 1,20,21
 596 1054 596 1054 629.5 1006 c 128,-1,22
 663 958 663 958 663 890 c 0,23,24
 663 778 663 778 585 716.5 c 128,-1,25
 507 655 507 655 373 655 c 0,26,27
 242 655 242 655 160 717.5 c 128,-1,28
 78 780 78 780 84 894 c 1,29,-1
 86 900 l 1,30,-1
 274 900 l 1,31,32
 274 855 274 855 298.5 829.5 c 128,-1,33
 323 804 323 804 370 804 c 0,34,35
 412 804 412 804 438.5 829 c 128,-1,36
 465 854 465 854 465 901 c 0,37,38
 465 953 465 953 437 981 c 128,-1,39
 409 1009 409 1009 356 1009 c 2,40,-1
 263 1009 l 1,41,-1
 263 1135 l 1,42,-1
 356 1135 l 2,0,1
EndSplineSet
EndChar

StartChar: acute
Encoding: 180 180 118
Width: 685
GlyphClass: 1
Flags: W
LayerCount: 2
Fore
SplineSet
287 1518 m 1,0,-1
 601 1518 l 1,1,-1
 604 1512 l 1,2,-1
 352 1252 l 1,3,-1
 108 1252 l 1,4,-1
 287 1518 l 1,0,-1
EndSplineSet
EndChar

StartChar: mu
Encoding: 181 181 119
Width: 1124
GlyphClass: 1
Flags: W
LayerCount: 2
Fore
SplineSet
403 1082 m 1,0,-1
 403 459 l 2,1,2
 403 310 403 310 437 256 c 128,-1,3
 471 202 471 202 543 202 c 0,4,5
 599 202 599 202 637.5 227.5 c 128,-1,6
 676 253 676 253 699 302 c 1,7,-1
 699 1082 l 1,8,-1
 980 1082 l 1,9,-1
 980 0 l 1,10,-1
 717 0 l 1,11,-1
 713 54 l 1,12,13
 677 17 677 17 632 -2 c 128,-1,14
 587 -21 587 -21 534 -21 c 0,15,16
 496 -21 496 -21 463 -11.5 c 128,-1,17
 430 -2 430 -2 403 16 c 1,18,-1
 403 -416 l 1,19,-1
 122 -416 l 1,20,-1
 122 1082 l 1,21,-1
 403 1082 l 1,0,-1
EndSplineSet
EndChar

StartChar: paragraph
Encoding: 182 182 120
Width: 960
GlyphClass: 1
Flags: W
LayerCount: 2
Fore
SplineSet
547 0 m 1,0,-1
 547 520 l 1,1,-1
 479 520 l 2,2,3
 279 520 279 520 167.5 649.5 c 128,-1,4
 56 779 56 779 56 988 c 0,5,6
 56 1195 56 1195 167.5 1325.5 c 128,-1,7
 279 1456 279 1456 479 1456 c 2,8,-1
 829 1456 l 1,9,-1
 829 0 l 1,10,-1
 547 0 l 1,0,-1
EndSplineSet
EndChar

StartChar: periodcentered
Encoding: 183 183 121
Width: 567
GlyphClass: 1
Flags: W
LayerCount: 2
Fore
SplineSet
418 564 m 1,0,-1
 142 564 l 1,1,-1
 142 822 l 1,2,-1
 418 822 l 1,3,-1
 418 564 l 1,0,-1
EndSplineSet
EndChar

StartChar: cedilla
Encoding: 184 184 122
Width: 496
GlyphClass: 1
Flags: W
LayerCount: 2
Fore
SplineSet
323 6 m 1,0,-1
 313 -53 l 1,1,2
 366 -63 366 -63 402 -104 c 128,-1,3
 438 -145 438 -145 438 -225 c 0,4,5
 438 -333 438 -333 357 -396.5 c 128,-1,6
 276 -460 276 -460 127 -460 c 1,7,-1
 121 -302 l 1,8,9
 158 -302 158 -302 178.5 -281 c 128,-1,10
 199 -260 199 -260 199 -216 c 0,11,12
 199 -173 199 -173 173 -156 c 128,-1,13
 147 -139 147 -139 84 -134 c 1,14,-1
 112 6 l 1,15,-1
 323 6 l 1,0,-1
EndSplineSet
EndChar

StartChar: onesuperior
Encoding: 185 185 123
Width: 516
GlyphClass: 1
Flags: W
LayerCount: 2
Fore
SplineSet
376 665 m 1,0,-1
 177 665 l 1,1,-1
 177 1302 l 1,2,-1
 71 1300 l 1,3,-1
 71 1454 l 1,4,-1
 376 1477 l 1,5,-1
 376 665 l 1,0,-1
EndSplineSet
EndChar

StartChar: ordmasculine
Encoding: 186 186 124
Width: 821
GlyphClass: 1
Flags: W
LayerCount: 2
Fore
SplineSet
105 1142 m 2,0,1
 105 1290 105 1290 187 1383.5 c 128,-1,2
 269 1477 269 1477 407 1477 c 256,3,4
 545 1477 545 1477 627 1383.5 c 128,-1,5
 709 1290 709 1290 709 1142 c 2,6,-1
 709 1025 l 2,7,8
 709 876 709 876 627 783.5 c 128,-1,9
 545 691 545 691 408 691 c 0,10,11
 269 691 269 691 187 783.5 c 128,-1,12
 105 876 105 876 105 1025 c 2,13,-1
 105 1142 l 2,0,1
266 1025 m 2,14,15
 266 936 266 936 302 882 c 128,-1,16
 338 828 338 828 408 828 c 0,17,18
 476 828 476 828 512 882 c 128,-1,19
 548 936 548 936 548 1025 c 2,20,-1
 548 1142 l 2,21,22
 548 1228 548 1228 511.5 1282.5 c 128,-1,23
 475 1337 475 1337 407 1337 c 0,24,25
 338 1337 338 1337 302 1282.5 c 128,-1,26
 266 1228 266 1228 266 1142 c 2,27,-1
 266 1025 l 2,14,15
EndSplineSet
EndChar

StartChar: questiondown
Encoding: 191 191 129
Width: 917
GlyphClass: 1
Flags: W
LayerCount: 2
Fore
SplineSet
658 668 m 1,0,1
 656 531 656 531 618 466.5 c 128,-1,2
 580 402 580 402 472 309 c 1,3,4
 413 251 413 251 379 183.5 c 128,-1,5
 345 116 345 116 345 30 c 0,6,7
 345 -64 345 -64 383.5 -117.5 c 128,-1,8
 422 -171 422 -171 495 -171 c 0,9,10
 550 -171 550 -171 590 -124.5 c 128,-1,11
 630 -78 630 -78 632 9 c 1,12,-1
 907 9 l 1,13,-1
 909 3 l 1,14,15
 910 -191 910 -191 794.5 -292.5 c 128,-1,16
 679 -394 679 -394 495 -394 c 0,17,18
 292 -394 292 -394 177.5 -280 c 128,-1,19
 63 -166 63 -166 63 29 c 0,20,21
 63 154 63 154 127 260.5 c 128,-1,22
 191 367 191 367 290 442 c 1,23,24
 342 487 342 487 359.5 535.5 c 128,-1,25
 377 584 377 584 377 668 c 1,26,-1
 658 668 l 1,0,1
378 1082 m 1,27,-1
 658 1082 l 1,28,-1
 658 838 l 1,29,-1
 378 838 l 1,30,-1
 378 1082 l 1,27,-1
EndSplineSet
EndChar

StartChar: AE
Encoding: 198 198 136
Width: 1689
GlyphClass: 1
Flags: W
LayerCount: 2
Fore
SplineSet
1619 0 m 1,0,-1
 836 0 l 1,1,-1
 824 341 l 1,2,-1
 483 341 l 1,3,-1
 342 0 l 1,4,-1
 14 0 l 1,5,-1
 667 1456 l 1,6,-1
 1567 1456 l 1,7,-1
 1567 1232 l 1,8,-1
 1073 1232 l 1,9,-1
 1086 859 l 1,10,-1
 1497 859 l 1,11,-1
 1497 636 l 1,12,-1
 1094 636 l 1,13,-1
 1110 223 l 1,14,-1
 1619 223 l 1,15,-1
 1619 0 l 1,0,-1
579 573 m 1,16,-1
 815 573 l 1,17,-1
 797 1087 l 1,18,-1
 791 1088 l 1,19,-1
 579 573 l 1,16,-1
EndSplineSet
EndChar

StartChar: Eth
Encoding: 208 208 146
Width: 1173
GlyphClass: 1
Flags: W
LayerCount: 2
Fore
SplineSet
112 0 m 1,0,-1
 112 655 l 1,1,-1
 -1 655 l 1,2,-1
 -1 827 l 1,3,-1
 112 827 l 1,4,-1
 112 1456 l 1,5,-1
 561 1456 l 2,6,7
 789 1456 789 1456 938 1285.5 c 128,-1,8
 1087 1115 1087 1115 1087 848 c 2,9,-1
 1087 607 l 2,10,11
 1087 339 1087 339 938 169.5 c 128,-1,12
 789 0 789 0 561 0 c 2,13,-1
 112 0 l 1,0,-1
587 655 m 1,14,-1
 394 655 l 1,15,-1
 394 220 l 1,16,-1
 561 220 l 2,17,18
 670 220 670 220 737 328 c 128,-1,19
 804 436 804 436 804 607 c 2,20,-1
 804 850 l 2,21,22
 804 1019 804 1019 737 1127 c 128,-1,23
 670 1235 670 1235 561 1235 c 2,24,-1
 394 1235 l 1,25,-1
 394 827 l 1,26,-1
 587 827 l 1,27,-1
 587 655 l 1,14,-1
EndSplineSet
Substitution2: "'smcp' Lowercase to Small Capitals lookup 0 subtable" Eth.smcp
EndChar

StartChar: multiply
Encoding: 215 215 153
Width: 991
GlyphClass: 1
Flags: W
LayerCount: 2
Fore
SplineSet
60 367 m 1,0,-1
 339 684 l 1,1,-1
 59 1002 l 1,2,-1
 224 1161 l 1,3,-1
 492 857 l 1,4,-1
 760 1161 l 1,5,-1
 925 1002 l 1,6,-1
 644 684 l 1,7,-1
 924 367 l 1,8,-1
 760 208 l 1,9,-1
 492 511 l 1,10,-1
 225 208 l 1,11,-1
 60 367 l 1,0,-1
EndSplineSet
EndChar

StartChar: Oslash
Encoding: 216 216 154
Width: 1232
GlyphClass: 1
Flags: W
LayerCount: 2
Fore
SplineSet
1145 524 m 2,0,1
 1145 267 1145 267 1000 123 c 128,-1,2
 855 -21 855 -21 614 -21 c 0,3,4
 544 -21 544 -21 481.5 -8.5 c 128,-1,5
 419 4 419 4 365 29 c 1,6,-1
 304 -93 l 1,7,-1
 175 -93 l 1,8,-1
 266 90 l 1,9,10
 178 160 178 160 131.5 270 c 128,-1,11
 85 380 85 380 85 524 c 2,12,-1
 85 930 l 2,13,14
 85 1186 85 1186 228.5 1331.5 c 128,-1,15
 372 1477 372 1477 613 1477 c 0,16,17
 700 1477 700 1477 777 1456.5 c 128,-1,18
 854 1436 854 1436 918 1397 c 1,19,-1
 978 1516 l 1,20,-1
 1106 1516 l 1,21,-1
 1009 1322 l 1,22,23
 1074 1250 1074 1250 1109.5 1151 c 128,-1,24
 1145 1052 1145 1052 1145 930 c 2,25,-1
 1145 524 l 2,0,1
366 524 m 2,26,27
 366 469 366 469 372.5 425.5 c 128,-1,28
 379 382 379 382 392 355 c 1,29,-1
 397 354 l 1,30,-1
 804 1168 l 1,31,32
 771 1210 771 1210 723 1232 c 128,-1,33
 675 1254 675 1254 613 1254 c 0,34,35
 490 1254 490 1254 428 1173.5 c 128,-1,36
 366 1093 366 1093 366 933 c 2,37,-1
 366 524 l 2,26,27
864 933 m 2,38,39
 864 956 864 956 862.5 976 c 128,-1,40
 861 996 861 996 859 1008 c 1,41,-1
 853 1009 l 1,42,-1
 470 241 l 1,43,44
 498 220 498 220 534 210 c 128,-1,45
 570 200 570 200 614 200 c 0,46,47
 737 200 737 200 800.5 281 c 128,-1,48
 864 362 864 362 864 524 c 2,49,-1
 864 933 l 2,38,39
EndSplineSet
EndChar

StartChar: Thorn
Encoding: 222 222 160
Width: 1093
GlyphClass: 1
Flags: W
LayerCount: 2
Fore
SplineSet
393 1456 m 1,0,-1
 393 1185 l 1,1,-1
 565 1185 l 2,2,3
 790 1185 790 1185 915 1061.5 c 128,-1,4
 1040 938 1040 938 1040 738 c 0,5,6
 1040 536 1040 536 915 413 c 128,-1,7
 790 290 790 290 565 290 c 2,8,-1
 393 290 l 1,9,-1
 393 0 l 1,10,-1
 111 0 l 1,11,-1
 111 1456 l 1,12,-1
 393 1456 l 1,0,-1
393 966 m 1,13,-1
 393 510 l 1,14,-1
 565 510 l 2,15,16
 662 510 662 510 710 574.5 c 128,-1,17
 758 639 758 639 758 736 c 256,18,19
 758 833 758 833 710 899 c 128,-1,20
 662 965 662 965 565 965 c 2,21,-1
 394 965 l 1,22,-1
 393 966 l 1,13,-1
EndSplineSet
EndChar

StartChar: germandbls
Encoding: 223 223 161
Width: 1144
GlyphClass: 1
Flags: W
LayerCount: 2
Fore
SplineSet
401 0 m 1,0,-1
 120 0 l 1,1,-1
 120 1102 l 2,2,3
 120 1325 120 1325 235.5 1445.5 c 128,-1,4
 351 1566 351 1566 553 1566 c 0,5,6
 714 1566 714 1566 821.5 1471 c 128,-1,7
 929 1376 929 1376 929 1204 c 0,8,9
 929 1098 929 1098 885 1002.5 c 128,-1,10
 841 907 841 907 841 834 c 0,11,12
 841 778 841 778 963.5 637 c 128,-1,13
 1086 496 1086 496 1086 355 c 0,14,15
 1086 166 1086 166 985.5 72.5 c 128,-1,16
 885 -21 885 -21 687 -21 c 0,17,18
 619 -21 619 -21 553.5 -6 c 128,-1,19
 488 9 488 9 453 35 c 1,20,-1
 503 253 l 1,21,22
 535 230 535 230 581.5 214.5 c 128,-1,23
 628 199 628 199 685 199 c 0,24,25
 741 199 741 199 773 238 c 128,-1,26
 805 277 805 277 805 345 c 0,27,28
 805 417 805 417 683 550.5 c 128,-1,29
 561 684 561 684 561 824 c 0,30,31
 561 917 561 917 605.5 1016 c 128,-1,32
 650 1115 650 1115 650 1191 c 0,33,34
 650 1256 650 1256 613 1301.5 c 128,-1,35
 576 1347 576 1347 529 1347 c 0,36,37
 472 1347 472 1347 436.5 1280 c 128,-1,38
 401 1213 401 1213 401 1098 c 2,39,-1
 401 0 l 1,0,-1
EndSplineSet
Substitution2: "'smcp' Lowercase to Small Capitals lookup 0 subtable" germandbls.smcp
EndChar

StartChar: ae
Encoding: 230 230 168
Width: 1532
GlyphClass: 1
Flags: W
LayerCount: 2
Fore
SplineSet
1105 -21 m 0,0,1
 995 -21 995 -21 909 17.5 c 128,-1,2
 823 56 823 56 764 129 c 1,3,4
 711 63 711 63 625.5 21 c 128,-1,5
 540 -21 540 -21 425 -21 c 0,6,7
 256 -21 256 -21 163.5 69.5 c 128,-1,8
 71 160 71 160 71 316 c 0,9,10
 71 473 71 473 183.5 558.5 c 128,-1,11
 296 644 296 644 510 644 c 2,12,-1
 650 644 l 1,13,-1
 650 706 l 2,14,15
 650 788 650 788 619.5 834.5 c 128,-1,16
 589 881 589 881 533 881 c 0,17,18
 471 881 471 881 436.5 842.5 c 128,-1,19
 402 804 402 804 402 746 c 1,20,-1
 128 763 l 1,21,-1
 126 769 l 1,22,23
 121 913 121 913 234.5 1007.5 c 128,-1,24
 348 1102 348 1102 536 1102 c 0,25,26
 621 1102 621 1102 692 1078 c 128,-1,27
 763 1054 763 1054 815 1008 c 1,28,29
 868 1053 868 1053 936 1077.5 c 128,-1,30
 1004 1102 1004 1102 1087 1102 c 0,31,32
 1272 1102 1272 1102 1378 971 c 128,-1,33
 1484 840 1484 840 1484 616 c 2,34,-1
 1484 459 l 1,35,-1
 935 459 l 1,36,37
 940 337 940 337 988.5 268 c 128,-1,38
 1037 199 1037 199 1138 199 c 0,39,40
 1216 199 1216 199 1267 218.5 c 128,-1,41
 1318 238 1318 238 1385 279 c 1,42,-1
 1456 101 l 1,43,44
 1403 52 1403 52 1307.5 15.5 c 128,-1,45
 1212 -21 1212 -21 1105 -21 c 0,0,1
481 179 m 0,46,47
 523 179 523 179 571.5 206 c 128,-1,48
 620 233 620 233 650 272 c 1,49,-1
 650 466 l 1,50,-1
 512 466 l 2,51,52
 437 466 437 466 394.5 421 c 128,-1,53
 352 376 352 376 352 312 c 0,54,55
 352 249 352 249 384 214 c 128,-1,56
 416 179 416 179 481 179 c 0,46,47
1087 881 m 0,57,58
 1012 881 1012 881 977 818.5 c 128,-1,59
 942 756 942 756 936 643 c 1,60,-1
 1207 643 l 1,61,-1
 1207 671 l 2,62,63
 1207 767 1207 767 1176.5 824 c 128,-1,64
 1146 881 1146 881 1087 881 c 0,57,58
EndSplineSet
EndChar

StartChar: eth
Encoding: 240 240 178
Width: 1066
GlyphClass: 1
Flags: W
LayerCount: 2
Fore
SplineSet
802 1293 m 1,0,1
 896 1187 896 1187 948 1047 c 128,-1,2
 1000 907 1000 907 1000 741 c 2,3,-1
 1000 547 l 2,4,5
 1000 297 1000 297 860.5 138 c 128,-1,6
 721 -21 721 -21 513 -21 c 0,7,8
 303 -21 303 -21 171 118.5 c 128,-1,9
 39 258 39 258 39 465 c 0,10,11
 39 692 39 692 155 828 c 128,-1,12
 271 964 271 964 474 964 c 0,13,14
 540 964 540 964 598.5 941 c 128,-1,15
 657 918 657 918 700 879 c 1,16,-1
 704 883 l 1,17,18
 691 962 691 962 659 1029.5 c 128,-1,19
 627 1097 627 1097 580 1150 c 1,20,-1
 379 1021 l 1,21,-1
 308 1130 l 1,22,-1
 476 1238 l 1,23,24
 444 1258 444 1258 409 1275 c 128,-1,25
 374 1292 374 1292 338 1306 c 1,26,-1
 427 1517 l 1,27,28
 503 1497 503 1497 573 1463.5 c 128,-1,29
 643 1430 643 1430 703 1384 c 1,30,-1
 871 1492 l 1,31,-1
 942 1383 l 1,32,-1
 802 1293 l 1,0,1
517 199 m 0,33,34
 610 199 610 199 664 296 c 128,-1,35
 718 393 718 393 718 547 c 2,36,-1
 718 663 l 1,37,38
 690 703 690 703 640 729.5 c 128,-1,39
 590 756 590 756 523 756 c 0,40,41
 426 756 426 756 373 676.5 c 128,-1,42
 320 597 320 597 320 465 c 0,43,44
 320 353 320 353 374 276 c 128,-1,45
 428 199 428 199 517 199 c 0,33,34
EndSplineSet
Substitution2: "'smcp' Lowercase to Small Capitals lookup 0 subtable" Eth.smcp
EndChar

StartChar: divide
Encoding: 247 247 185
Width: 1018
GlyphClass: 1
Flags: W
LayerCount: 2
Fore
SplineSet
950 580 m 1,0,-1
 59 580 l 1,1,-1
 59 796 l 1,2,-1
 950 796 l 1,3,-1
 950 580 l 1,0,-1
644 973 m 1,4,-1
 365 973 l 1,5,-1
 365 1199 l 1,6,-1
 644 1199 l 1,7,-1
 644 973 l 1,4,-1
644 169 m 1,8,-1
 365 169 l 1,9,-1
 365 396 l 1,10,-1
 644 396 l 1,11,-1
 644 169 l 1,8,-1
EndSplineSet
EndChar

StartChar: oslash
Encoding: 248 248 186
Width: 1009
GlyphClass: 1
Flags: W
LayerCount: 2
Fore
SplineSet
59 551 m 2,0,1
 59 795 59 795 175.5 948.5 c 128,-1,2
 292 1102 292 1102 503 1102 c 0,3,4
 545 1102 545 1102 583.5 1095 c 128,-1,5
 622 1088 622 1088 658 1076 c 1,6,-1
 717 1217 l 1,7,-1
 868 1217 l 1,8,-1
 778 1004 l 1,9,10
 861 931 861 931 905 813.5 c 128,-1,11
 949 696 949 696 949 551 c 2,12,-1
 949 528 l 2,13,14
 949 284 949 284 831.5 131.5 c 128,-1,15
 714 -21 714 -21 505 -21 c 0,16,17
 464 -21 464 -21 427.5 -15 c 128,-1,18
 391 -9 391 -9 358 2 c 1,19,-1
 297 -143 l 1,20,-1
 147 -143 l 1,21,-1
 236 70 l 1,22,23
 149 141 149 141 104 259.5 c 128,-1,24
 59 378 59 378 59 528 c 2,25,-1
 59 551 l 2,0,1
340 528 m 2,26,27
 340 477 340 477 343.5 435.5 c 128,-1,28
 347 394 347 394 355 367 c 1,29,-1
 361 366 l 1,30,-1
 569 864 l 1,31,32
 554 872 554 872 537.5 876.5 c 128,-1,33
 521 881 521 881 503 881 c 0,34,35
 415 881 415 881 377.5 790 c 128,-1,36
 340 699 340 699 340 551 c 2,37,-1
 340 528 l 2,26,27
667 551 m 2,38,39
 667 594 667 594 663.5 632 c 128,-1,40
 660 670 660 670 655 695 c 1,41,-1
 649 696 l 1,42,-1
 446 212 l 1,43,44
 458 205 458 205 472.5 202 c 128,-1,45
 487 199 487 199 505 199 c 0,46,47
 591 199 591 199 629 288 c 128,-1,48
 667 377 667 377 667 528 c 2,49,-1
 667 551 l 2,38,39
EndSplineSet
EndChar

StartChar: thorn
Encoding: 254 254 192
Width: 1012
GlyphClass: 1
Flags: W
LayerCount: 2
Fore
SplineSet
962 514 m 2,0,1
 962 272 962 272 866.5 125.5 c 128,-1,2
 771 -21 771 -21 599 -21 c 0,3,4
 530 -21 530 -21 477 6.5 c 128,-1,5
 424 34 424 34 385 87 c 1,6,-1
 385 -416 l 1,7,-1
 104 -416 l 1,8,-1
 104 0 l 1,9,-1
 101 0 l 1,10,-1
 101 1560 l 1,11,-1
 383 1560 l 1,12,-1
 383 984 l 1,13,14
 422 1041 422 1041 475.5 1071.5 c 128,-1,15
 529 1102 529 1102 597 1102 c 0,16,17
 771 1102 771 1102 866.5 946 c 128,-1,18
 962 790 962 790 962 535 c 2,19,-1
 962 514 l 2,0,1
680 535 m 2,20,21
 680 690 680 690 642 785 c 128,-1,22
 604 880 604 880 524 880 c 0,23,24
 476 880 476 880 441 855.5 c 128,-1,25
 406 831 406 831 385 787 c 1,26,-1
 385 277 l 1,27,28
 406 239 406 239 441 219 c 128,-1,29
 476 199 476 199 525 199 c 0,30,31
 607 199 607 199 643.5 282.5 c 128,-1,32
 680 366 680 366 680 514 c 2,33,-1
 680 535 l 2,20,21
EndSplineSet
EndChar

StartChar: Dcroat
Encoding: 272 272 210
Width: 1173
GlyphClass: 1
Flags: W
LayerCount: 2
Fore
SplineSet
112 0 m 1,0,-1
 112 655 l 1,1,-1
 -1 655 l 1,2,-1
 -1 827 l 1,3,-1
 112 827 l 1,4,-1
 112 1456 l 1,5,-1
 561 1456 l 2,6,7
 789 1456 789 1456 938 1285.5 c 128,-1,8
 1087 1115 1087 1115 1087 848 c 2,9,-1
 1087 607 l 2,10,11
 1087 339 1087 339 938 169.5 c 128,-1,12
 789 0 789 0 561 0 c 2,13,-1
 112 0 l 1,0,-1
587 655 m 1,14,-1
 394 655 l 1,15,-1
 394 220 l 1,16,-1
 561 220 l 2,17,18
 670 220 670 220 737 328 c 128,-1,19
 804 436 804 436 804 607 c 2,20,-1
 804 850 l 2,21,22
 804 1019 804 1019 737 1127 c 128,-1,23
 670 1235 670 1235 561 1235 c 2,24,-1
 394 1235 l 1,25,-1
 394 827 l 1,26,-1
 587 827 l 1,27,-1
 587 655 l 1,14,-1
EndSplineSet
Substitution2: "'smcp' Lowercase to Small Capitals lookup 0 subtable" Dcroat.smcp
EndChar

StartChar: dcroat
Encoding: 273 273 211
Width: 1008
GlyphClass: 1
Flags: W
LayerCount: 2
Fore
SplineSet
1029 1223 m 1,0,-1
 913 1223 l 1,1,-1
 913 0 l 1,2,-1
 672 0 l 1,3,-1
 651 122 l 1,4,5
 608 52 608 52 550 15.5 c 128,-1,6
 492 -21 492 -21 418 -21 c 0,7,8
 246 -21 246 -21 151 125.5 c 128,-1,9
 56 272 56 272 56 514 c 2,10,-1
 56 535 l 2,11,12
 56 790 56 790 151 946 c 128,-1,13
 246 1102 246 1102 420 1102 c 0,14,15
 485 1102 485 1102 537.5 1071 c 128,-1,16
 590 1040 590 1040 631 983 c 1,17,-1
 631 1223 l 1,18,-1
 441 1223 l 1,19,-1
 441 1395 l 1,20,-1
 631 1395 l 1,21,-1
 631 1560 l 1,22,-1
 913 1560 l 1,23,-1
 913 1395 l 1,24,-1
 1029 1395 l 1,25,-1
 1029 1223 l 1,0,-1
336 514 m 2,26,27
 336 367 336 367 372 283.5 c 128,-1,28
 408 200 408 200 491 200 c 0,29,30
 537 200 537 200 572.5 221.5 c 128,-1,31
 608 243 608 243 631 285 c 1,32,-1
 631 782 l 1,33,34
 608 828 608 828 572 854 c 128,-1,35
 536 880 536 880 492 880 c 0,36,37
 410 880 410 880 373 785 c 128,-1,38
 336 690 336 690 336 535 c 2,39,-1
 336 514 l 2,26,27
EndSplineSet
Substitution2: "'smcp' Lowercase to Small Capitals lookup 0 subtable" Dcroat.smcp
EndChar

StartChar: Hbar
Encoding: 294 294 232
Width: 1261
GlyphClass: 1
Flags: W
LayerCount: 2
Fore
SplineSet
1152 1193 m 1,0,-1
 1252 1193 l 1,1,-1
 1252 1029 l 1,2,-1
 1152 1029 l 1,3,-1
 1152 0 l 1,4,-1
 871 0 l 1,5,-1
 871 607 l 1,6,-1
 402 607 l 1,7,-1
 402 0 l 1,8,-1
 120 0 l 1,9,-1
 120 1029 l 1,10,-1
 19 1029 l 1,11,-1
 19 1193 l 1,12,-1
 120 1193 l 1,13,-1
 120 1456 l 1,14,-1
 402 1456 l 1,15,-1
 402 1193 l 1,16,-1
 871 1193 l 1,17,-1
 871 1456 l 1,18,-1
 1152 1456 l 1,19,-1
 1152 1193 l 1,0,-1
402 827 m 1,20,-1
 871 827 l 1,21,-1
 871 1029 l 1,22,-1
 402 1029 l 1,23,-1
 402 827 l 1,20,-1
EndSplineSet
EndChar

StartChar: hbar
Encoding: 295 295 233
Width: 1008
GlyphClass: 1
Flags: W
LayerCount: 2
Fore
SplineSet
579 1220 m 1,0,-1
 368 1220 l 1,1,-1
 368 951 l 1,2,3
 411 1023 411 1023 471.5 1062.5 c 128,-1,4
 532 1102 532 1102 605 1102 c 0,5,6
 750 1102 750 1102 834 988 c 128,-1,7
 918 874 918 874 918 637 c 2,8,-1
 918 0 l 1,9,-1
 636 0 l 1,10,-1
 636 639 l 2,11,12
 636 773 636 773 606.5 826.5 c 128,-1,13
 577 880 577 880 515 880 c 0,14,15
 466 880 466 880 429.5 860.5 c 128,-1,16
 393 841 393 841 368 805 c 1,17,-1
 368 0 l 1,18,-1
 87 0 l 1,19,-1
 87 1220 l 1,20,-1
 -9 1220 l 1,21,-1
 -9 1392 l 1,22,-1
 87 1392 l 1,23,-1
 87 1560 l 1,24,-1
 368 1560 l 1,25,-1
 368 1392 l 1,26,-1
 579 1392 l 1,27,-1
 579 1220 l 1,0,-1
EndSplineSet
EndChar

StartChar: dotlessi
Encoding: 305 305 243
Width: 514
GlyphClass: 1
Flags: W
LayerCount: 2
Fore
SplineSet
397 0 m 1,0,-1
 114 0 l 1,1,-1
 114 1082 l 1,2,-1
 397 1082 l 1,3,-1
 397 0 l 1,0,-1
EndSplineSet
EndChar

StartChar: kgreenlandic
Encoding: 312 312 250
Width: 1073
GlyphClass: 1
Flags: W
LayerCount: 2
Fore
SplineSet
483 407 m 1,0,-1
 393 407 l 1,1,-1
 393 0 l 1,2,-1
 112 0 l 1,3,-1
 112 1082 l 1,4,-1
 393 1082 l 1,5,-1
 393 669 l 1,6,-1
 461 669 l 1,7,-1
 670 1082 l 1,8,-1
 1028 1082 l 1,9,-1
 709 590 l 1,10,-1
 1036 0 l 1,11,-1
 675 0 l 1,12,-1
 483 407 l 1,0,-1
EndSplineSet
EndChar

StartChar: Lslash
Encoding: 321 321 259
Width: 902
GlyphClass: 1
Flags: W
LayerCount: 2
Fore
SplineSet
387 888 m 1,0,-1
 585 953 l 1,1,-1
 585 767 l 1,2,-1
 387 702 l 1,3,-1
 387 220 l 1,4,-1
 930 220 l 1,5,-1
 930 0 l 1,6,-1
 105 0 l 1,7,-1
 105 610 l 1,8,-1
 13 580 l 1,9,-1
 13 766 l 1,10,-1
 105 796 l 1,11,-1
 105 1456 l 1,12,-1
 387 1456 l 1,13,-1
 387 888 l 1,0,-1
EndSplineSet
EndChar

StartChar: lslash
Encoding: 322 322 260
Width: 536
GlyphClass: 1
Flags: W
LayerCount: 2
Fore
SplineSet
409 914 m 1,0,-1
 521 956 l 1,1,-1
 521 769 l 1,2,-1
 409 727 l 1,3,-1
 409 0 l 1,4,-1
 127 0 l 1,5,-1
 127 623 l 1,6,-1
 17 582 l 1,7,-1
 17 769 l 1,8,-1
 127 810 l 1,9,-1
 127 1560 l 1,10,-1
 409 1560 l 1,11,-1
 409 914 l 1,0,-1
EndSplineSet
EndChar

StartChar: Eng
Encoding: 330 330 268
Width: 1253
GlyphClass: 1
Flags: W
LayerCount: 2
Fore
SplineSet
1143 1456 m 1,0,-1
 1143 -37 l 2,1,2
 1143 -228 1143 -228 1051.5 -332.5 c 128,-1,3
 960 -437 960 -437 799 -437 c 0,4,5
 763 -437 763 -437 733 -432.5 c 128,-1,6
 703 -428 703 -428 668 -419 c 1,7,-1
 680 -203 l 1,8,9
 704 -209 704 -209 723 -212.5 c 128,-1,10
 742 -216 742 -216 766 -216 c 0,11,12
 811 -216 811 -216 836 -169.5 c 128,-1,13
 861 -123 861 -123 861 -37 c 2,14,-1
 861 0 l 1,15,-1
 398 931 l 1,16,-1
 392 930 l 1,17,-1
 392 0 l 1,18,-1
 110 0 l 1,19,-1
 110 1456 l 1,20,-1
 392 1456 l 1,21,-1
 855 524 l 1,22,-1
 861 525 l 1,23,-1
 861 1456 l 1,24,-1
 1143 1456 l 1,0,-1
EndSplineSet
EndChar

StartChar: eng
Encoding: 331 331 269
Width: 1008
GlyphClass: 1
Flags: W
LayerCount: 2
Fore
SplineSet
352 1082 m 1,0,-1
 364 933 l 1,1,2
 409 1013 409 1013 476 1057.5 c 128,-1,3
 543 1102 543 1102 624 1102 c 0,4,5
 762 1102 762 1102 840.5 994.5 c 128,-1,6
 919 887 919 887 919 657 c 2,7,-1
 919 -37 l 2,8,9
 919 -228 919 -228 828 -332.5 c 128,-1,10
 737 -437 737 -437 576 -437 c 0,11,12
 541 -437 541 -437 511 -432.5 c 128,-1,13
 481 -428 481 -428 447 -419 c 1,14,-1
 459 -201 l 1,15,16
 481 -207 481 -207 500 -210.5 c 128,-1,17
 519 -214 519 -214 543 -214 c 0,18,19
 588 -214 588 -214 612.5 -168.5 c 128,-1,20
 637 -123 637 -123 637 -37 c 2,21,-1
 637 657 l 2,22,23
 637 779 637 779 607.5 829.5 c 128,-1,24
 578 880 578 880 517 880 c 0,25,26
 471 880 471 880 434 858 c 128,-1,27
 397 836 397 836 371 797 c 1,28,-1
 371 0 l 1,29,-1
 89 0 l 1,30,-1
 89 1082 l 1,31,-1
 352 1082 l 1,0,-1
EndSplineSet
EndChar

StartChar: OE
Encoding: 338 338 276
Width: 1731
GlyphClass: 1
Flags: W
LayerCount: 2
Fore
SplineSet
1662 0 m 1,0,-1
 867 0 l 1,1,2
 788 -10 788 -10 733.5 -15.5 c 128,-1,3
 679 -21 679 -21 623 -21 c 0,4,5
 384 -21 384 -21 236 144.5 c 128,-1,6
 88 310 88 310 88 576 c 2,7,-1
 88 880 l 2,8,9
 88 1145 88 1145 235.5 1311 c 128,-1,10
 383 1477 383 1477 621 1477 c 0,11,12
 679 1477 679 1477 739.5 1471 c 128,-1,13
 800 1465 800 1465 867 1456 c 1,14,-1
 1660 1456 l 1,15,-1
 1660 1235 l 1,16,-1
 1129 1235 l 1,17,-1
 1129 863 l 1,18,-1
 1574 863 l 1,19,-1
 1574 643 l 1,20,-1
 1129 643 l 1,21,-1
 1129 220 l 1,22,-1
 1662 220 l 1,23,-1
 1662 0 l 1,0,-1
623 199 m 0,24,25
 680 199 680 199 736 205 c 128,-1,26
 792 211 792 211 847 222 c 1,27,-1
 847 1233 l 1,28,29
 791 1244 791 1244 734 1250.5 c 128,-1,30
 677 1257 677 1257 621 1257 c 0,31,32
 502 1257 502 1257 435.5 1160 c 128,-1,33
 369 1063 369 1063 369 882 c 2,34,-1
 369 576 l 2,35,36
 369 394 369 394 436.5 296.5 c 128,-1,37
 504 199 504 199 623 199 c 0,24,25
EndSplineSet
EndChar

StartChar: oe
Encoding: 339 339 277
Width: 1596
GlyphClass: 1
Flags: W
LayerCount: 2
Fore
SplineSet
1288 -21 m 0,0,1
 1147 -21 1147 -21 1046 46 c 128,-1,2
 945 113 945 113 892 233 c 1,3,4
 838 112 838 112 739.5 45.5 c 128,-1,5
 641 -21 641 -21 505 -21 c 0,6,7
 293 -21 293 -21 176 131 c 128,-1,8
 59 283 59 283 59 528 c 2,9,-1
 59 551 l 2,10,11
 59 795 59 795 175.5 948.5 c 128,-1,12
 292 1102 292 1102 503 1102 c 0,13,14
 640 1102 640 1102 739 1034 c 128,-1,15
 838 966 838 966 893 845 c 1,16,17
 944 966 944 966 1040 1034 c 128,-1,18
 1136 1102 1136 1102 1271 1102 c 0,19,20
 1462 1102 1462 1102 1564 971 c 128,-1,21
 1666 840 1666 840 1666 615 c 2,22,-1
 1666 461 l 1,23,-1
 1120 461 l 1,24,25
 1127 341 1127 341 1174.5 270 c 128,-1,26
 1222 199 1222 199 1321 199 c 0,27,28
 1405 199 1405 199 1461.5 218.5 c 128,-1,29
 1518 238 1518 238 1583 280 c 1,30,-1
 1656 104 l 1,31,32
 1598 51 1598 51 1499.5 15 c 128,-1,33
 1401 -21 1401 -21 1288 -21 c 0,0,1
340 528 m 2,34,35
 340 377 340 377 377.5 288 c 128,-1,36
 415 199 415 199 505 199 c 0,37,38
 591 199 591 199 629 288 c 128,-1,39
 667 377 667 377 667 528 c 2,40,-1
 667 551 l 2,41,42
 667 700 667 700 629 790.5 c 128,-1,43
 591 881 591 881 503 881 c 256,44,45
 415 881 415 881 377.5 790 c 128,-1,46
 340 699 340 699 340 551 c 2,47,-1
 340 528 l 2,34,35
1271 881 m 0,48,49
 1200 881 1200 881 1165.5 818.5 c 128,-1,50
 1131 756 1131 756 1122 647 c 1,51,-1
 1390 647 l 1,52,-1
 1390 672 l 2,53,54
 1390 771 1390 771 1362.5 826 c 128,-1,55
 1335 881 1335 881 1271 881 c 0,48,49
EndSplineSet
EndChar

StartChar: Tbar
Encoding: 358 358 296
Width: 1014
GlyphClass: 1
Flags: W
LayerCount: 2
Fore
SplineSet
808 753 m 1,0,-1
 646 753 l 1,1,-1
 646 0 l 1,2,-1
 363 0 l 1,3,-1
 363 753 l 1,4,-1
 220 753 l 1,5,-1
 220 925 l 1,6,-1
 363 925 l 1,7,-1
 363 1235 l 1,8,-1
 30 1235 l 1,9,-1
 30 1456 l 1,10,-1
 988 1456 l 1,11,-1
 988 1235 l 1,12,-1
 646 1235 l 1,13,-1
 646 925 l 1,14,-1
 808 925 l 1,15,-1
 808 753 l 1,0,-1
EndSplineSet
Substitution2: "'smcp' Lowercase to Small Capitals lookup 0 subtable" Tbar.smcp
EndChar

StartChar: tbar
Encoding: 359 359 297
Width: 635
GlyphClass: 1
Flags: W
LayerCount: 2
Fore
SplineSet
424 1351 m 1,0,-1
 424 1082 l 1,1,-1
 571 1082 l 1,2,-1
 571 881 l 1,3,-1
 424 881 l 1,4,-1
 424 708 l 1,5,-1
 580 708 l 1,6,-1
 580 536 l 1,7,-1
 424 536 l 1,8,-1
 424 330 l 2,9,10
 424 261 424 261 444 232 c 128,-1,11
 464 203 464 203 499 203 c 0,12,13
 519 203 519 203 532 205.5 c 128,-1,14
 545 208 545 208 564 214 c 1,15,-1
 586 6 l 1,16,17
 546 -8 546 -8 509.5 -14.5 c 128,-1,18
 473 -21 473 -21 427 -21 c 0,19,20
 289 -21 289 -21 215.5 63 c 128,-1,21
 142 147 142 147 142 328 c 2,22,-1
 142 536 l 1,23,-1
 -8 536 l 1,24,-1
 -8 708 l 1,25,-1
 142 708 l 1,26,-1
 142 881 l 1,27,-1
 11 881 l 1,28,-1
 11 1082 l 1,29,-1
 142 1082 l 1,30,-1
 142 1351 l 1,31,-1
 424 1351 l 1,0,-1
EndSplineSet
Substitution2: "'smcp' Lowercase to Small Capitals lookup 0 subtable" Tbar.smcp
EndChar

StartChar: longs
Encoding: 383 383 321
Width: 481
GlyphClass: 1
Flags: W
LayerCount: 2
Fore
SplineSet
96 0 m 1,0,-1
 96 1204 l 2,1,2
 96 1385 96 1385 190 1483 c 128,-1,3
 284 1581 284 1581 456 1581 c 0,4,5
 489 1581 489 1581 522 1575.5 c 128,-1,6
 555 1570 555 1570 598 1560 c 1,7,-1
 576 1349 l 1,8,9
 555 1354 555 1354 537 1357 c 128,-1,10
 519 1360 519 1360 494 1360 c 0,11,12
 437 1360 437 1360 407 1319 c 128,-1,13
 377 1278 377 1278 377 1204 c 2,14,-1
 377 0 l 1,15,-1
 96 0 l 1,0,-1
EndSplineSet
EndChar

StartChar: florin
Encoding: 402 402 322
Width: 661
GlyphClass: 1
Flags: W
LayerCount: 2
Fore
SplineSet
610 881 m 1,0,-1
 437 881 l 1,1,-1
 436 -37 l 2,2,3
 436 -228 436 -228 345 -332.5 c 128,-1,4
 254 -437 254 -437 93 -437 c 0,5,6
 57 -437 57 -437 27 -432.5 c 128,-1,7
 -3 -428 -3 -428 -36 -419 c 1,8,-1
 -23 -203 l 1,9,10
 -3 -209 -3 -209 16.5 -212.5 c 128,-1,11
 36 -216 36 -216 60 -216 c 0,12,13
 105 -216 105 -216 129.5 -169.5 c 128,-1,14
 154 -123 154 -123 154 -37 c 2,15,-1
 154 881 l 1,16,-1
 19 881 l 1,17,-1
 19 1082 l 1,18,-1
 154 1082 l 1,19,-1
 154 1204 l 2,20,21
 154 1385 154 1385 248.5 1483 c 128,-1,22
 343 1581 343 1581 516 1581 c 0,23,24
 549 1581 549 1581 583 1575.5 c 128,-1,25
 617 1570 617 1570 657 1560 c 1,26,-1
 635 1348 l 1,27,28
 614 1353 614 1353 595 1356 c 128,-1,29
 576 1359 576 1359 551 1359 c 0,30,31
 495 1359 495 1359 466 1318.5 c 128,-1,32
 437 1278 437 1278 437 1204 c 2,33,-1
 437 1082 l 1,34,-1
 610 1082 l 1,35,-1
 610 881 l 1,0,-1
EndSplineSet
EndChar

StartChar: Ohorn
Encoding: 416 416 323
Width: 1250
GlyphClass: 1
Flags: W
LayerCount: 2
Fore
SplineSet
1140 524 m 2,0,1
 1140 267 1140 267 995 123 c 128,-1,2
 850 -21 850 -21 609 -21 c 256,3,4
 368 -21 368 -21 224 123 c 128,-1,5
 80 267 80 267 80 524 c 2,6,-1
 80 930 l 2,7,8
 80 1186 80 1186 223.5 1331.5 c 128,-1,9
 367 1477 367 1477 608 1477 c 0,10,11
 737 1477 737 1477 841.5 1433.5 c 128,-1,12
 946 1390 946 1390 1017 1307 c 1,13,14
 1085 1343 1085 1343 1120.5 1420 c 128,-1,15
 1156 1497 1156 1497 1156 1609 c 1,16,-1
 1356 1609 l 1,17,18
 1356 1430 1356 1430 1293.5 1308 c 128,-1,19
 1231 1186 1231 1186 1112 1128 c 1,20,21
 1125 1082 1125 1082 1132.5 1032.5 c 128,-1,22
 1140 983 1140 983 1140 930 c 2,23,-1
 1140 524 l 2,0,1
859 933 m 2,24,25
 859 1092 859 1092 794.5 1173 c 128,-1,26
 730 1254 730 1254 608 1254 c 0,27,28
 485 1254 485 1254 423 1173.5 c 128,-1,29
 361 1093 361 1093 361 933 c 2,30,-1
 361 524 l 2,31,32
 361 362 361 362 423.5 281 c 128,-1,33
 486 200 486 200 609 200 c 256,34,35
 732 200 732 200 795.5 281 c 128,-1,36
 859 362 859 362 859 524 c 2,37,-1
 859 933 l 2,24,25
EndSplineSet
EndChar

StartChar: ohorn
Encoding: 417 417 324
Width: 1045
GlyphClass: 1
Flags: W
LayerCount: 2
Fore
SplineSet
59 551 m 2,0,1
 59 795 59 795 175.5 948.5 c 128,-1,2
 292 1102 292 1102 503 1102 c 0,3,4
 598 1102 598 1102 676 1068 c 128,-1,5
 754 1034 754 1034 811 972 c 1,6,7
 853 1010 853 1010 875 1077 c 128,-1,8
 897 1144 897 1144 897 1235 c 1,9,-1
 1095 1235 l 1,10,11
 1095 1092 1095 1092 1043.5 991.5 c 128,-1,12
 992 891 992 891 895 840 c 1,13,14
 921 777 921 777 935 704 c 128,-1,15
 949 631 949 631 949 551 c 2,16,-1
 949 528 l 2,17,18
 949 284 949 284 831.5 131.5 c 128,-1,19
 714 -21 714 -21 505 -21 c 0,20,21
 293 -21 293 -21 176 131 c 128,-1,22
 59 283 59 283 59 528 c 2,23,-1
 59 551 l 2,0,1
340 528 m 2,24,25
 340 377 340 377 377.5 288 c 128,-1,26
 415 199 415 199 505 199 c 0,27,28
 591 199 591 199 629 288 c 128,-1,29
 667 377 667 377 667 528 c 2,30,-1
 667 551 l 2,31,32
 667 700 667 700 629 790.5 c 128,-1,33
 591 881 591 881 503 881 c 256,34,35
 415 881 415 881 377.5 790 c 128,-1,36
 340 699 340 699 340 551 c 2,37,-1
 340 528 l 2,24,25
EndSplineSet
EndChar

StartChar: Uhorn
Encoding: 431 431 325
Width: 1281
GlyphClass: 1
Flags: W
LayerCount: 2
Fore
SplineSet
1128 1456 m 1,0,-1
 1128 1282 l 1,1,-1
 1134 1281 l 1,2,3
 1198 1300 1198 1300 1223.5 1382.5 c 128,-1,4
 1249 1465 1249 1465 1249 1611 c 1,5,-1
 1449 1611 l 1,6,7
 1449 1381 1449 1381 1372 1250 c 128,-1,8
 1295 1119 1295 1119 1128 1090 c 1,9,-1
 1128 505 l 2,10,11
 1128 257 1128 257 985.5 118 c 128,-1,12
 843 -21 843 -21 614 -21 c 0,13,14
 386 -21 386 -21 244 118.5 c 128,-1,15
 102 258 102 258 102 505 c 2,16,-1
 102 1456 l 1,17,-1
 383 1456 l 1,18,-1
 383 505 l 2,19,20
 383 356 383 356 445 277.5 c 128,-1,21
 507 199 507 199 614 199 c 0,22,23
 723 199 723 199 784.5 277 c 128,-1,24
 846 355 846 355 846 505 c 2,25,-1
 846 1456 l 1,26,-1
 1128 1456 l 1,0,-1
EndSplineSet
EndChar

StartChar: uhorn
Encoding: 432 432 326
Width: 1015
GlyphClass: 1
Flags: W
LayerCount: 2
Fore
SplineSet
1224 1198 m 1,0,1
 1224 1021 1224 1021 1150 922 c 128,-1,2
 1076 823 1076 823 919 800 c 1,3,-1
 919 0 l 1,4,-1
 688 0 l 1,5,-1
 657 154 l 1,6,7
 614 70 614 70 549.5 24.5 c 128,-1,8
 485 -21 485 -21 400 -21 c 0,9,10
 254 -21 254 -21 170.5 96 c 128,-1,11
 87 213 87 213 87 458 c 2,12,-1
 87 1082 l 1,13,-1
 369 1082 l 1,14,-1
 369 456 l 2,15,16
 369 311 369 311 397.5 255.5 c 128,-1,17
 426 200 426 200 487 200 c 0,18,19
 536 200 536 200 573 218.5 c 128,-1,20
 610 237 610 237 636 273 c 1,21,-1
 636 1082 l 1,22,-1
 919 1082 l 1,23,-1
 919 961 l 1,24,-1
 925 960 l 1,25,26
 989 972 989 972 1016 1030.5 c 128,-1,27
 1043 1089 1043 1089 1043 1198 c 1,28,-1
 1224 1198 l 1,0,1
EndSplineSet
EndChar

StartChar: uni0237
Encoding: 567 567 336
Width: 529
GlyphClass: 1
Flags: W
LayerCount: 2
Fore
SplineSet
411 1082 m 1,0,-1
 411 -37 l 2,1,2
 411 -228 411 -228 320 -332.5 c 128,-1,3
 229 -437 229 -437 68 -437 c 0,4,5
 32 -437 32 -437 3.5 -432.5 c 128,-1,6
 -25 -428 -25 -428 -61 -419 c 1,7,-1
 -48 -203 l 1,8,9
 -25 -209 -25 -209 -7 -212.5 c 128,-1,10
 11 -216 11 -216 35 -216 c 0,11,12
 80 -216 80 -216 105 -169.5 c 128,-1,13
 130 -123 130 -123 130 -37 c 2,14,-1
 130 1082 l 1,15,-1
 411 1082 l 1,0,-1
EndSplineSet
EndChar

StartChar: circumflex
Encoding: 710 710 338
Width: 909
GlyphClass: 1
Flags: W
LayerCount: 2
Fore
SplineSet
787 1274 m 1,0,-1
 787 1252 l 1,1,-1
 567 1252 l 1,2,-1
 451 1387 l 1,3,-1
 335 1252 l 1,4,-1
 119 1252 l 1,5,-1
 119 1277 l 1,6,-1
 372 1514 l 1,7,-1
 531 1514 l 1,8,-1
 787 1274 l 1,0,-1
EndSplineSet
EndChar

StartChar: caron
Encoding: 711 711 339
Width: 864
GlyphClass: 1
Flags: W
LayerCount: 2
Fore
SplineSet
430 1392 m 1,0,-1
 521 1521 l 1,1,-1
 775 1521 l 1,2,-1
 775 1504 l 1,3,-1
 525 1252 l 1,4,-1
 334 1252 l 1,5,-1
 83 1505 l 1,6,-1
 83 1521 l 1,7,-1
 338 1521 l 1,8,-1
 430 1392 l 1,0,-1
EndSplineSet
EndChar

StartChar: breve
Encoding: 728 728 340
Width: 838
GlyphClass: 1
Flags: W
LayerCount: 2
Fore
SplineSet
731 1456 m 1,0,-1
 733 1450 l 1,1,2
 737 1323 737 1323 650 1242.5 c 128,-1,3
 563 1162 563 1162 418 1162 c 0,4,5
 270 1162 270 1162 184 1242 c 128,-1,6
 98 1322 98 1322 103 1450 c 1,7,-1
 105 1456 l 1,8,-1
 310 1456 l 1,9,10
 310 1401 310 1401 336 1367 c 128,-1,11
 362 1333 362 1333 418 1333 c 0,12,13
 472 1333 472 1333 497.5 1367.5 c 128,-1,14
 523 1402 523 1402 523 1456 c 1,15,-1
 731 1456 l 1,0,-1
EndSplineSet
EndChar

StartChar: dotaccent
Encoding: 729 729 341
Width: 579
GlyphClass: 1
Flags: W
LayerCount: 2
Fore
SplineSet
435 1231 m 1,0,-1
 121 1231 l 1,1,-1
 121 1469 l 1,2,-1
 435 1469 l 1,3,-1
 435 1231 l 1,0,-1
EndSplineSet
EndChar

StartChar: ring
Encoding: 730 730 342
Width: 624
GlyphClass: 1
Flags: W
LayerCount: 2
Fore
SplineSet
142 1307 m 0,0,1
 142 1378 142 1378 191.5 1427.5 c 128,-1,2
 241 1477 241 1477 314 1477 c 0,3,4
 386 1477 386 1477 435.5 1428 c 128,-1,5
 485 1379 485 1379 485 1307 c 0,6,7
 485 1234 485 1234 436 1187.5 c 128,-1,8
 387 1141 387 1141 314 1141 c 256,9,10
 241 1141 241 1141 191.5 1188 c 128,-1,11
 142 1235 142 1235 142 1307 c 0,0,1
250 1307 m 0,12,13
 250 1276 250 1276 268 1255.5 c 128,-1,14
 286 1235 286 1235 314 1235 c 0,15,16
 340 1235 340 1235 357.5 1255 c 128,-1,17
 375 1275 375 1275 375 1307 c 256,18,19
 375 1339 375 1339 358 1360 c 128,-1,20
 341 1381 341 1381 314 1381 c 0,21,22
 286 1381 286 1381 268 1360 c 128,-1,23
 250 1339 250 1339 250 1307 c 0,12,13
EndSplineSet
EndChar

StartChar: ogonek
Encoding: 731 731 343
Width: 563
GlyphClass: 1
Flags: W
LayerCount: 2
Fore
SplineSet
363 0 m 1,0,1
 322 -53 322 -53 303 -90 c 128,-1,2
 284 -127 284 -127 284 -176 c 0,3,4
 284 -200 284 -200 298 -222 c 128,-1,5
 312 -244 312 -244 357 -244 c 0,6,7
 380 -244 380 -244 398 -238 c 128,-1,8
 416 -232 416 -232 435 -223 c 1,9,-1
 467 -371 l 1,10,11
 436 -389 436 -389 396 -402 c 128,-1,12
 356 -415 356 -415 303 -415 c 0,13,14
 204 -415 204 -415 140.5 -360.5 c 128,-1,15
 77 -306 77 -306 77 -209 c 0,16,17
 77 -133 77 -133 115 -65 c 128,-1,18
 153 3 153 3 236 56 c 1,19,-1
 363 0 l 1,0,1
EndSplineSet
EndChar

StartChar: tilde
Encoding: 732 732 344
Width: 875
GlyphClass: 1
Flags: W
LayerCount: 2
Fore
SplineSet
770 1481 m 1,0,1
 770 1387 770 1387 718 1320.5 c 128,-1,2
 666 1254 666 1254 587 1254 c 0,3,4
 526 1254 526 1254 448 1298.5 c 128,-1,5
 370 1343 370 1343 326 1343 c 0,6,7
 297 1343 297 1343 277.5 1310.5 c 128,-1,8
 258 1278 258 1278 258 1231 c 1,9,-1
 110 1273 l 1,10,11
 110 1365 110 1365 162 1433 c 128,-1,12
 214 1501 214 1501 293 1501 c 0,13,14
 340 1501 340 1501 425 1456.5 c 128,-1,15
 510 1412 510 1412 554 1412 c 0,16,17
 582 1412 582 1412 602.5 1444.5 c 128,-1,18
 623 1477 623 1477 623 1525 c 1,19,-1
 770 1481 l 1,0,1
EndSplineSet
EndChar

StartChar: hungarumlaut
Encoding: 733 733 345
Width: 788
GlyphClass: 1
Flags: W
LayerCount: 2
Fore
SplineSet
652 1518 m 1,0,-1
 913 1518 l 1,1,-1
 916 1512 l 1,2,-1
 672 1252 l 1,3,-1
 444 1252 l 1,4,-1
 652 1518 l 1,0,-1
301 1518 m 1,5,-1
 567 1518 l 1,6,-1
 357 1252 l 1,7,-1
 132 1252 l 1,8,-1
 301 1518 l 1,5,-1
EndSplineSet
EndChar

StartChar: uni02F3
Encoding: 755 755 346
Width: 584
GlyphClass: 1
Flags: W
LayerCount: 2
Fore
SplineSet
138 -226 m 0,0,1
 138 -156 138 -156 185 -109 c 128,-1,2
 232 -62 232 -62 302 -62 c 0,3,4
 371 -62 371 -62 418 -109 c 128,-1,5
 465 -156 465 -156 465 -226 c 0,6,7
 465 -295 465 -295 418 -340.5 c 128,-1,8
 371 -386 371 -386 302 -386 c 0,9,10
 232 -386 232 -386 185 -340.5 c 128,-1,11
 138 -295 138 -295 138 -226 c 0,0,1
242 -226 m 0,12,13
 242 -255 242 -255 258.5 -274.5 c 128,-1,14
 275 -294 275 -294 302 -294 c 0,15,16
 327 -294 327 -294 343 -275 c 128,-1,17
 359 -256 359 -256 359 -226 c 0,18,19
 359 -195 359 -195 343 -175.5 c 128,-1,20
 327 -156 327 -156 302 -156 c 0,21,22
 275 -156 275 -156 258.5 -175.5 c 128,-1,23
 242 -195 242 -195 242 -226 c 0,12,13
EndSplineSet
EndChar

StartChar: hook
Encoding: 777 777 350
Width: 13
GlyphClass: 1
Flags: W
LayerCount: 2
Fore
SplineSet
-629 1264 m 1,0,-1
 -645 1394 l 1,1,2
 -584 1397 -584 1397 -557 1413.5 c 128,-1,3
 -530 1430 -530 1430 -530 1463 c 0,4,5
 -530 1502 -530 1502 -558.5 1518.5 c 128,-1,6
 -587 1535 -587 1535 -643 1535 c 1,7,-1
 -637 1664 l 1,8,9
 -468 1664 -468 1664 -380 1613 c 128,-1,10
 -292 1562 -292 1562 -292 1472 c 0,11,12
 -292 1408 -292 1408 -328.5 1371.5 c 128,-1,13
 -365 1335 -365 1335 -417 1327 c 1,14,-1
 -417 1264 l 1,15,-1
 -629 1264 l 1,0,-1
EndSplineSet
EndChar

StartChar: uni030F
Encoding: 783 783 351
Width: 13
GlyphClass: 1
Flags: W
LayerCount: 2
Fore
SplineSet
-425 1252 m 1,0,-1
 -653 1252 l 1,1,-1
 -896 1512 l 1,2,-1
 -893 1518 l 1,3,-1
 -632 1518 l 1,4,-1
 -425 1252 l 1,0,-1
-112 1252 m 1,5,-1
 -338 1252 l 1,6,-1
 -547 1518 l 1,7,-1
 -281 1518 l 1,8,-1
 -112 1252 l 1,5,-1
EndSplineSet
EndChar

StartChar: dotbelow
Encoding: 803 803 352
Width: 13
GlyphClass: 1
Flags: W
LayerCount: 2
Fore
SplineSet
-352 -351 m 1,0,-1
 -666 -351 l 1,1,-1
 -666 -114 l 1,2,-1
 -352 -114 l 1,3,-1
 -352 -351 l 1,0,-1
EndSplineSet
EndChar

StartChar: tonos
Encoding: 900 900 353
Width: 646
GlyphClass: 1
Flags: W
LayerCount: 2
Fore
SplineSet
278 1551 m 1,0,-1
 539 1551 l 1,1,-1
 357 1276 l 1,2,-1
 219 1276 l 1,3,-1
 278 1551 l 1,0,-1
EndSplineSet
EndChar

StartChar: dieresistonos
Encoding: 901 901 354
Width: 1006
GlyphClass: 1
Flags: W
LayerCount: 2
Fore
SplineSet
853 1260 m 1,0,-1
 618 1260 l 1,1,-1
 618 1456 l 1,2,-1
 853 1456 l 1,3,-1
 853 1260 l 1,0,-1
371 1260 m 1,4,-1
 136 1260 l 1,5,-1
 136 1456 l 1,6,-1
 371 1456 l 1,7,-1
 371 1260 l 1,4,-1
461 1751 m 1,8,-1
 722 1751 l 1,9,-1
 561 1479 l 1,10,-1
 424 1479 l 1,11,-1
 461 1751 l 1,8,-1
EndSplineSet
EndChar

StartChar: Gamma
Encoding: 915 915 366
Width: 994
GlyphClass: 1
Flags: W
LayerCount: 2
Fore
SplineSet
941 1235 m 1,0,-1
 393 1235 l 1,1,-1
 393 0 l 1,2,-1
 110 0 l 1,3,-1
 110 1456 l 1,4,-1
 941 1456 l 1,5,-1
 941 1235 l 1,0,-1
EndSplineSet
EndChar

StartChar: Delta
Encoding: 916 916 367
AltUni2: 002206.ffffffff.0 002206.ffffffff.0
Width: 1310
GlyphClass: 1
Flags: W
LayerCount: 2
Fore
SplineSet
516 1456 m 1,0,-1
 809 1456 l 1,1,-1
 1298 0 l 1,2,-1
 21 0 l 1,3,-1
 516 1456 l 1,0,-1
387 220 m 1,4,-1
 932 220 l 1,5,-1
 664 1063 l 1,6,-1
 658 1063 l 1,7,-1
 387 220 l 1,4,-1
EndSplineSet
EndChar

StartChar: Theta
Encoding: 920 920 371
Width: 1232
GlyphClass: 1
Flags: W
LayerCount: 2
Fore
SplineSet
768 612 m 1,0,-1
 474 612 l 1,1,-1
 474 832 l 1,2,-1
 768 832 l 1,3,-1
 768 612 l 1,0,-1
1145 524 m 2,4,5
 1145 267 1145 267 1000 123 c 128,-1,6
 855 -21 855 -21 614 -21 c 256,7,8
 373 -21 373 -21 229 123 c 128,-1,9
 85 267 85 267 85 524 c 2,10,-1
 85 930 l 2,11,12
 85 1186 85 1186 228.5 1331.5 c 128,-1,13
 372 1477 372 1477 613 1477 c 256,14,15
 854 1477 854 1477 999.5 1331.5 c 128,-1,16
 1145 1186 1145 1186 1145 930 c 2,17,-1
 1145 524 l 2,4,5
864 933 m 2,18,19
 864 1092 864 1092 799.5 1173 c 128,-1,20
 735 1254 735 1254 613 1254 c 0,21,22
 490 1254 490 1254 428 1173.5 c 128,-1,23
 366 1093 366 1093 366 933 c 2,24,-1
 366 524 l 2,25,26
 366 362 366 362 428.5 281 c 128,-1,27
 491 200 491 200 614 200 c 256,28,29
 737 200 737 200 800.5 281 c 128,-1,30
 864 362 864 362 864 524 c 2,31,-1
 864 933 l 2,18,19
EndSplineSet
EndChar

StartChar: Lambda
Encoding: 923 923 374
Width: 1153
GlyphClass: 1
Flags: W
LayerCount: 2
Fore
SplineSet
309 0 m 1,0,-1
 14 0 l 1,1,-1
 430 1456 l 1,2,-1
 723 1456 l 1,3,-1
 1139 0 l 1,4,-1
 843 0 l 1,5,-1
 580 1134 l 1,6,-1
 579 1137 l 1,7,-1
 573 1137 l 1,8,-1
 573 1135 l 1,9,-1
 309 0 l 1,0,-1
EndSplineSet
EndChar

StartChar: Xi
Encoding: 926 926 377
Width: 1015
GlyphClass: 1
Flags: W
LayerCount: 2
Fore
SplineSet
87 220 m 1,0,-1
 941 220 l 1,1,-1
 941 0 l 1,2,-1
 87 0 l 1,3,-1
 87 220 l 1,0,-1
187 841 m 1,4,-1
 842 841 l 1,5,-1
 842 629 l 1,6,-1
 187 629 l 1,7,-1
 187 841 l 1,4,-1
108 1456 m 1,8,-1
 902 1456 l 1,9,-1
 902 1235 l 1,10,-1
 108 1235 l 1,11,-1
 108 1456 l 1,8,-1
EndSplineSet
EndChar

StartChar: Pi
Encoding: 928 928 379
Width: 1256
GlyphClass: 1
Flags: W
LayerCount: 2
Fore
SplineSet
1144 0 m 1,0,-1
 863 0 l 1,1,-1
 863 1235 l 1,2,-1
 393 1235 l 1,3,-1
 393 0 l 1,4,-1
 111 0 l 1,5,-1
 111 1456 l 1,6,-1
 1144 1456 l 1,7,-1
 1144 0 l 1,0,-1
EndSplineSet
EndChar

StartChar: Sigma
Encoding: 931 931 381
Width: 1015
GlyphClass: 1
Flags: W
LayerCount: 2
Fore
SplineSet
736 730 m 1,0,-1
 425 220 l 1,1,-1
 962 220 l 1,2,-1
 962 0 l 1,3,-1
 70 0 l 1,4,-1
 70 142 l 1,5,-1
 438 739 l 1,6,-1
 70 1315 l 1,7,-1
 70 1456 l 1,8,-1
 945 1456 l 1,9,-1
 945 1235 l 1,10,-1
 430 1235 l 1,11,-1
 736 749 l 1,12,-1
 736 730 l 1,0,-1
EndSplineSet
EndChar

StartChar: Phi
Encoding: 934 934 384
Width: 1324
GlyphClass: 1
Flags: W
LayerCount: 2
Fore
SplineSet
813 1257 m 1,0,1
 1026 1239 1026 1239 1158.5 1093 c 128,-1,2
 1291 947 1291 947 1291 719 c 0,3,4
 1291 496 1291 496 1158.5 353 c 128,-1,5
 1026 210 1026 210 813 194 c 1,6,-1
 813 0 l 1,7,-1
 531 0 l 1,8,-1
 531 194 l 1,9,10
 314 209 314 209 181 351 c 128,-1,11
 48 493 48 493 48 717 c 0,12,13
 48 946 48 946 181 1093 c 128,-1,14
 314 1240 314 1240 531 1257 c 1,15,-1
 531 1456 l 1,16,-1
 813 1456 l 1,17,-1
 813 1257 l 1,0,1
324 717 m 0,18,19
 324 594 324 594 378.5 521 c 128,-1,20
 433 448 433 448 525 439 c 1,21,-1
 531 441 l 1,22,-1
 531 1009 l 1,23,-1
 525 1011 l 1,24,25
 433 1001 433 1001 378.5 923.5 c 128,-1,26
 324 846 324 846 324 717 c 0,18,19
1015 719 m 0,27,28
 1015 847 1015 847 962 923.5 c 128,-1,29
 909 1000 909 1000 819 1010 c 1,30,-1
 813 1009 l 1,31,-1
 813 442 l 1,32,-1
 819 440 l 1,33,34
 909 449 909 449 962 522.5 c 128,-1,35
 1015 596 1015 596 1015 719 c 0,27,28
EndSplineSet
EndChar

StartChar: Psi
Encoding: 936 936 386
Width: 1301
GlyphClass: 1
Flags: W
LayerCount: 2
Fore
SplineSet
795 589 m 1,0,-1
 801 588 l 1,1,2
 887 603 887 603 930 693 c 128,-1,3
 973 783 973 783 973 945 c 2,4,-1
 973 1456 l 1,5,-1
 1255 1456 l 1,6,-1
 1255 945 l 2,7,8
 1255 687 1255 687 1131.5 532.5 c 128,-1,9
 1008 378 1008 378 795 352 c 1,10,-1
 795 0 l 1,11,-1
 514 0 l 1,12,-1
 514 350 l 1,13,14
 294 372 294 372 168.5 527 c 128,-1,15
 43 682 43 682 43 945 c 2,16,-1
 43 1456 l 1,17,-1
 324 1456 l 1,18,-1
 324 945 l 2,19,20
 324 789 324 789 371.5 698 c 128,-1,21
 419 607 419 607 508 589 c 1,22,-1
 514 591 l 1,23,-1
 514 1456 l 1,24,-1
 795 1456 l 1,25,-1
 795 589 l 1,0,-1
EndSplineSet
EndChar

StartChar: Omega
Encoding: 937 937 387
AltUni2: 002126.ffffffff.0 002126.ffffffff.0
Width: 1201
GlyphClass: 1
Flags: W
LayerCount: 2
Fore
SplineSet
636 228 m 1,0,1
 706 266 706 266 743.5 396.5 c 128,-1,2
 781 527 781 527 781 769 c 2,3,-1
 781 861 l 2,4,5
 781 1049 781 1049 731.5 1150 c 128,-1,6
 682 1251 682 1251 596 1247 c 1,7,-1
 590 1247 l 1,8,9
 504 1251 504 1251 455.5 1150 c 128,-1,10
 407 1049 407 1049 407 861 c 2,11,-1
 407 769 l 2,12,13
 407 524 407 524 444.5 394.5 c 128,-1,14
 482 265 482 265 556 228 c 1,15,-1
 556 0 l 1,16,-1
 117 0 l 1,17,-1
 117 223 l 1,18,-1
 342 223 l 1,19,20
 230 311 230 311 161 455 c 128,-1,21
 92 599 92 599 92 769 c 2,22,-1
 92 859 l 2,23,24
 92 1132 92 1132 231 1304.5 c 128,-1,25
 370 1477 370 1477 593 1477 c 0,26,27
 815 1477 815 1477 955 1304 c 128,-1,28
 1095 1131 1095 1131 1095 859 c 2,29,-1
 1095 769 l 2,30,31
 1095 599 1095 599 1026 455 c 128,-1,32
 957 311 957 311 846 223 c 1,33,-1
 1077 223 l 1,34,-1
 1077 0 l 1,35,-1
 636 0 l 1,36,-1
 636 228 l 1,0,1
EndSplineSet
EndChar

StartChar: alpha
Encoding: 945 945 395
Width: 1006
GlyphClass: 1
Flags: W
LayerCount: 2
Fore
SplineSet
901 1081 m 1,0,-1
 901 324 l 2,1,2
 901 257 901 257 914.5 230.5 c 128,-1,3
 928 204 928 204 957 204 c 0,4,5
 969 204 969 204 975.5 205.5 c 128,-1,6
 982 207 982 207 990 211 c 1,7,-1
 1013 4 l 1,8,9
 980 -10 980 -10 951 -15.5 c 128,-1,10
 922 -21 922 -21 884 -21 c 0,11,12
 801 -21 801 -21 742.5 15 c 128,-1,13
 684 51 684 51 653 125 c 1,14,15
 613 54 613 54 556.5 16.5 c 128,-1,16
 500 -21 500 -21 425 -21 c 0,17,18
 252 -21 252 -21 157 125.5 c 128,-1,19
 62 272 62 272 62 514 c 2,20,-1
 62 535 l 2,21,22
 62 790 62 790 157 946 c 128,-1,23
 252 1102 252 1102 427 1102 c 0,24,25
 499 1102 499 1102 554 1064.5 c 128,-1,26
 609 1027 609 1027 648 957 c 1,27,-1
 686 1081 l 1,28,-1
 901 1081 l 1,0,-1
343 514 m 2,29,30
 343 366 343 366 378.5 282.5 c 128,-1,31
 414 199 414 199 498 199 c 0,32,33
 540 199 540 199 570 217 c 128,-1,34
 600 235 600 235 620 271 c 1,35,36
 619 282 619 282 619 293.5 c 128,-1,37
 619 305 619 305 619 324 c 2,38,-1
 619 802 l 1,39,40
 598 839 598 839 568 860 c 128,-1,41
 538 881 538 881 499 881 c 0,42,43
 417 881 417 881 380 785.5 c 128,-1,44
 343 690 343 690 343 535 c 2,45,-1
 343 514 l 2,29,30
EndSplineSet
EndChar

StartChar: beta
Encoding: 946 946 396
Width: 1077
GlyphClass: 1
Flags: W
LayerCount: 2
Fore
SplineSet
552 1477 m 0,0,1
 742 1477 742 1477 854 1372.5 c 128,-1,2
 966 1268 966 1268 966 1083 c 0,3,4
 966 982 966 982 920 899 c 128,-1,5
 874 816 874 816 794 768 c 1,6,7
 901 725 901 725 959 632.5 c 128,-1,8
 1017 540 1017 540 1017 410 c 0,9,10
 1017 204 1017 204 916 91.5 c 128,-1,11
 815 -21 815 -21 635 -21 c 0,12,13
 575 -21 575 -21 515 -4.5 c 128,-1,14
 455 12 455 12 404 45 c 1,15,-1
 404 -407 l 1,16,-1
 122 -407 l 1,17,-1
 122 1033 l 2,18,19
 122 1229 122 1229 246 1353 c 128,-1,20
 370 1477 370 1477 552 1477 c 0,0,1
548 852 m 2,21,22
 619 852 619 852 652 905.5 c 128,-1,23
 685 959 685 959 685 1063 c 0,24,25
 685 1143 685 1143 650 1199.5 c 128,-1,26
 615 1256 615 1256 552 1256 c 0,27,28
 486 1256 486 1256 445 1195 c 128,-1,29
 404 1134 404 1134 404 1033 c 2,30,-1
 404 248 l 1,31,32
 434 224 434 224 475.5 211.5 c 128,-1,33
 517 199 517 199 567 199 c 0,34,35
 644 199 644 199 690 259 c 128,-1,36
 736 319 736 319 736 413 c 0,37,38
 736 526 736 526 693 589 c 128,-1,39
 650 652 650 652 571 652 c 2,40,-1
 498 652 l 1,41,-1
 498 852 l 1,42,-1
 548 852 l 2,21,22
EndSplineSet
EndChar

StartChar: gamma
Encoding: 947 947 397
Width: 921
GlyphClass: 1
Flags: W
LayerCount: 2
Fore
SplineSet
610 1082 m 1,0,-1
 905 1082 l 1,1,-1
 600 10 l 1,2,-1
 600 -417 l 1,3,-1
 319 -417 l 1,4,-1
 319 10 l 1,5,-1
 13 1082 l 1,6,-1
 310 1082 l 1,7,-1
 444 400 l 1,8,-1
 457 318 l 1,9,-1
 463 318 l 1,10,-1
 478 400 l 1,11,-1
 610 1082 l 1,0,-1
EndSplineSet
EndChar

StartChar: delta
Encoding: 948 948 398
Width: 1008
GlyphClass: 1
Flags: W
LayerCount: 2
Fore
SplineSet
856 1456 m 1,0,-1
 856 1236 l 1,1,-1
 535 1236 l 1,2,-1
 533 1231 l 1,3,-1
 703 1040 l 1,4,5
 809 951 809 951 879 828.5 c 128,-1,6
 949 706 949 706 949 551 c 2,7,-1
 949 528 l 2,8,9
 949 284 949 284 831.5 131.5 c 128,-1,10
 714 -21 714 -21 505 -21 c 0,11,12
 293 -21 293 -21 176 123 c 128,-1,13
 59 267 59 267 59 500 c 2,14,-1
 59 523 l 2,15,16
 59 725 59 725 150 864.5 c 128,-1,17
 241 1004 241 1004 381 1031 c 0,18,19
 384 1031 384 1031 386.5 1031 c 128,-1,20
 389 1031 389 1031 391 1032 c 1,21,-1
 147 1280 l 1,22,-1
 147 1456 l 1,23,-1
 856 1456 l 1,0,-1
503 881 m 256,24,25
 415 881 415 881 377.5 790 c 128,-1,26
 340 699 340 699 340 551 c 2,27,-1
 340 528 l 2,28,29
 340 377 340 377 377.5 288 c 128,-1,30
 415 199 415 199 505 199 c 0,31,32
 591 199 591 199 629 288 c 128,-1,33
 667 377 667 377 667 528 c 2,34,-1
 667 551 l 2,35,36
 667 700 667 700 629 790.5 c 128,-1,37
 591 881 591 881 503 881 c 256,24,25
EndSplineSet
EndChar

StartChar: epsilon
Encoding: 949 949 399
Width: 1000
GlyphClass: 1
Flags: W
LayerCount: 2
Fore
SplineSet
517 462 m 2,0,1
 446 462 446 462 406.5 429 c 128,-1,2
 367 396 367 396 367 325 c 0,3,4
 367 266 367 266 405 226 c 128,-1,5
 443 186 443 186 514 186 c 0,6,7
 586 186 586 186 624.5 223 c 128,-1,8
 663 260 663 260 663 318 c 1,9,-1
 935 318 l 1,10,-1
 937 312 l 1,11,12
 941 152 941 152 819.5 66.5 c 128,-1,13
 698 -19 698 -19 531 -19 c 0,14,15
 337 -19 337 -19 211 67.5 c 128,-1,16
 85 154 85 154 85 304 c 0,17,18
 85 395 85 395 131.5 459.5 c 128,-1,19
 178 524 178 524 266 556 c 1,20,21
 189 592 189 592 145.5 653 c 128,-1,22
 102 714 102 714 102 787 c 0,23,24
 102 936 102 936 219.5 1018 c 128,-1,25
 337 1100 337 1100 531 1100 c 0,26,27
 699 1100 699 1100 813 1011.5 c 128,-1,28
 927 923 927 923 922 779 c 1,29,-1
 920 773 l 1,30,-1
 648 773 l 1,31,32
 648 829 648 829 610.5 861.5 c 128,-1,33
 573 894 573 894 515 894 c 0,34,35
 449 894 449 894 416 856 c 128,-1,36
 383 818 383 818 383 765 c 0,37,38
 383 708 383 708 418 676 c 128,-1,39
 453 644 453 644 517 644 c 2,40,-1
 677 644 l 1,41,-1
 677 462 l 1,42,-1
 517 462 l 2,0,1
EndSplineSet
EndChar

StartChar: zeta
Encoding: 950 950 400
Width: 901
GlyphClass: 1
Flags: W
LayerCount: 2
Fore
SplineSet
845 1456 m 1,0,-1
 845 1303 l 1,1,-1
 540 858 l 2,2,3
 450 724 450 724 411.5 631 c 128,-1,4
 373 538 373 538 373 420 c 0,5,6
 373 319 373 319 412 267 c 128,-1,7
 451 215 451 215 532 215 c 2,8,-1
 576 215 l 2,9,10
 704 215 704 215 780 143 c 128,-1,11
 856 71 856 71 856 -57 c 0,12,13
 854 -183 854 -183 775 -283 c 128,-1,14
 696 -383 696 -383 556 -422 c 1,15,-1
 464 -232 l 1,16,17
 518 -206 518 -206 550.5 -170 c 128,-1,18
 583 -134 583 -134 583 -82 c 0,19,20
 583 -42 583 -42 558 -21 c 128,-1,21
 533 0 533 0 473 0 c 2,22,-1
 435 0 l 2,23,24
 268 0 268 0 180.5 109.5 c 128,-1,25
 93 219 93 219 93 377 c 0,26,27
 93 530 93 530 149.5 663.5 c 128,-1,28
 206 797 206 797 327 973 c 2,29,-1
 513 1237 l 1,30,-1
 68 1237 l 1,31,-1
 68 1456 l 1,32,-1
 845 1456 l 1,0,-1
EndSplineSet
EndChar

StartChar: eta
Encoding: 951 951 401
Width: 1008
GlyphClass: 1
Flags: W
LayerCount: 2
Fore
SplineSet
352 1082 m 1,0,-1
 364 933 l 1,1,2
 409 1013 409 1013 476 1057.5 c 128,-1,3
 543 1102 543 1102 624 1102 c 0,4,5
 762 1102 762 1102 840.5 995.5 c 128,-1,6
 919 889 919 889 919 657 c 2,7,-1
 919 -415 l 1,8,-1
 637 -415 l 1,9,-1
 637 657 l 2,10,11
 637 779 637 779 607.5 830 c 128,-1,12
 578 881 578 881 517 881 c 0,13,14
 471 881 471 881 434 859 c 128,-1,15
 397 837 397 837 371 798 c 1,16,-1
 371 0 l 1,17,-1
 89 0 l 1,18,-1
 89 1082 l 1,19,-1
 352 1082 l 1,0,-1
EndSplineSet
EndChar

StartChar: theta
Encoding: 952 952 402
Width: 1061
GlyphClass: 1
Flags: W
LayerCount: 2
Fore
SplineSet
992 528 m 2,0,1
 992 271 992 271 869 125 c 128,-1,2
 746 -21 746 -21 545 -21 c 0,3,4
 341 -21 341 -21 217.5 125 c 128,-1,5
 94 271 94 271 94 528 c 2,6,-1
 94 927 l 2,7,8
 94 1182 94 1182 217 1329.5 c 128,-1,9
 340 1477 340 1477 543 1477 c 0,10,11
 745 1477 745 1477 868.5 1329.5 c 128,-1,12
 992 1182 992 1182 992 927 c 2,13,-1
 992 528 l 2,0,1
709 626 m 1,14,-1
 377 626 l 1,15,-1
 377 505 l 2,16,17
 377 358 377 358 421 278.5 c 128,-1,18
 465 199 465 199 545 199 c 0,19,20
 622 199 622 199 665.5 278.5 c 128,-1,21
 709 358 709 358 709 505 c 2,22,-1
 709 626 l 1,14,-1
377 837 m 1,23,-1
 709 837 l 1,24,-1
 709 952 l 2,25,26
 709 1096 709 1096 664.5 1176 c 128,-1,27
 620 1256 620 1256 543 1256 c 0,28,29
 464 1256 464 1256 420.5 1176 c 128,-1,30
 377 1096 377 1096 377 952 c 2,31,-1
 377 837 l 1,23,-1
EndSplineSet
EndChar

StartChar: iota
Encoding: 953 953 403
Width: 609
GlyphClass: 1
Flags: W
LayerCount: 2
Fore
SplineSet
396 1081 m 1,0,-1
 396 326 l 2,1,2
 396 256 396 256 412.5 228.5 c 128,-1,3
 429 201 429 201 466 201 c 0,4,5
 491 201 491 201 501 203 c 128,-1,6
 511 205 511 205 550 216 c 1,7,-1
 576 8 l 1,8,9
 533 -8 533 -8 495.5 -14.5 c 128,-1,10
 458 -21 458 -21 409 -21 c 0,11,12
 267 -21 267 -21 190.5 65.5 c 128,-1,13
 114 152 114 152 114 328 c 2,14,-1
 114 1081 l 1,15,-1
 396 1081 l 1,0,-1
EndSplineSet
EndChar

StartChar: lambda
Encoding: 955 955 405
Width: 951
GlyphClass: 1
Flags: W
LayerCount: 2
Fore
SplineSet
311 0 m 1,0,-1
 9 0 l 1,1,-1
 326 1065 l 1,2,-1
 279 1174 l 2,3,4
 260 1228 260 1228 226.5 1262 c 128,-1,5
 193 1296 193 1296 150 1296 c 0,6,7
 137 1296 137 1296 119.5 1294 c 128,-1,8
 102 1292 102 1292 93 1290 c 1,9,-1
 88 1495 l 1,10,11
 131 1507 131 1507 158 1512.5 c 128,-1,12
 185 1518 185 1518 221 1518 c 0,13,14
 364 1518 364 1518 434.5 1439.5 c 128,-1,15
 505 1361 505 1361 546 1245 c 2,16,-1
 859 346 l 1,17,18
 873 292 873 292 897 256 c 128,-1,19
 921 220 921 220 954 213 c 0,20,21
 963 210 963 210 973.5 210 c 128,-1,22
 984 210 984 210 998 211 c 1,23,-1
 977 -2 l 1,24,25
 945 -8 945 -8 913.5 -10.5 c 128,-1,26
 882 -13 882 -13 850 -10 c 0,27,28
 737 0 737 0 671 94 c 128,-1,29
 605 188 605 188 566 315 c 2,30,-1
 459 670 l 1,31,-1
 453 670 l 1,32,-1
 448 640 l 1,33,-1
 311 0 l 1,0,-1
EndSplineSet
EndChar

StartChar: xi
Encoding: 958 958 408
Width: 968
GlyphClass: 1
Flags: W
LayerCount: 2
Fore
SplineSet
864 1456 m 1,0,-1
 864 1228 l 1,1,-1
 620 1228 l 2,2,3
 536 1225 536 1225 494.5 1182.5 c 128,-1,4
 453 1140 453 1140 453 1069 c 0,5,6
 453 992 453 992 493.5 948 c 128,-1,7
 534 904 534 904 620 904 c 2,8,-1
 753 904 l 1,9,-1
 753 676 l 1,10,-1
 628 676 l 2,11,12
 501 676 501 676 437.5 611 c 128,-1,13
 374 546 374 546 374 419 c 0,14,15
 374 324 374 324 419.5 266 c 128,-1,16
 465 208 465 208 547 208 c 2,17,-1
 665 208 l 2,18,19
 797 208 797 208 873.5 138.5 c 128,-1,20
 950 69 950 69 950 -64 c 0,21,22
 949 -206 949 -206 874 -301 c 128,-1,23
 799 -396 799 -396 652 -441 c 1,24,-1
 576 -274 l 1,25,26
 623 -249 623 -249 659 -211.5 c 128,-1,27
 695 -174 695 -174 695 -117 c 0,28,29
 695 -70 695 -70 670 -44 c 128,-1,30
 645 -18 645 -18 592 -18 c 2,31,-1
 530 -18 l 2,32,33
 328 -18 328 -18 210.5 97.5 c 128,-1,34
 93 213 93 213 93 423 c 0,35,36
 93 557 93 557 159 649.5 c 128,-1,37
 225 742 225 742 353 788 c 1,38,39
 266 822 266 822 219 881 c 128,-1,40
 172 940 172 940 172 1022 c 0,41,42
 172 1092 172 1092 204.5 1143.5 c 128,-1,43
 237 1195 237 1195 299 1228 c 1,44,-1
 117 1228 l 1,45,-1
 117 1456 l 1,46,-1
 864 1456 l 1,0,-1
EndSplineSet
EndChar

StartChar: pi
Encoding: 960 960 410
Width: 1215
GlyphClass: 1
Flags: W
LayerCount: 2
Fore
SplineSet
1081 874 m 1,0,-1
 997 874 l 1,1,-1
 997 326 l 2,2,3
 997 256 997 256 1013.5 228.5 c 128,-1,4
 1030 201 1030 201 1067 201 c 0,5,6
 1092 201 1092 201 1102 203 c 128,-1,7
 1112 205 1112 205 1151 216 c 1,8,-1
 1177 8 l 1,9,10
 1134 -8 1134 -8 1096.5 -14.5 c 128,-1,11
 1059 -21 1059 -21 1010 -21 c 0,12,13
 868 -21 868 -21 791.5 65.5 c 128,-1,14
 715 152 715 152 715 328 c 2,15,-1
 715 874 l 1,16,-1
 492 874 l 1,17,-1
 492 0 l 1,18,-1
 211 0 l 1,19,-1
 211 874 l 1,20,-1
 74 874 l 1,21,-1
 74 1082 l 1,22,-1
 1081 1082 l 1,23,-1
 1081 874 l 1,0,-1
EndSplineSet
EndChar

StartChar: rho
Encoding: 961 961 411
Width: 1008
GlyphClass: 1
Flags: W
LayerCount: 2
Fore
SplineSet
951 514 m 2,0,1
 951 272 951 272 856 125.5 c 128,-1,2
 761 -21 761 -21 589 -21 c 0,3,4
 521 -21 521 -21 468 6 c 128,-1,5
 415 33 415 33 375 85 c 1,6,-1
 375 -416 l 1,7,-1
 94 -416 l 1,8,-1
 94 581 l 1,9,-1
 96 581 l 1,10,-1
 94 582 l 1,11,12
 94 815 94 815 210.5 958.5 c 128,-1,13
 327 1102 327 1102 532 1102 c 0,14,15
 732 1102 732 1102 841.5 946.5 c 128,-1,16
 951 791 951 791 951 535 c 2,17,-1
 951 514 l 2,0,1
669 535 m 2,18,19
 669 691 669 691 633 784.5 c 128,-1,20
 597 878 597 878 519 874 c 1,21,-1
 513 874 l 1,22,23
 444 878 444 878 409.5 788 c 128,-1,24
 375 698 375 698 375 556 c 1,25,-1
 374 555 l 1,26,-1
 375 555 l 1,27,-1
 375 277 l 1,28,29
 396 239 396 239 431 219 c 128,-1,30
 466 199 466 199 515 199 c 0,31,32
 597 199 597 199 633 282.5 c 128,-1,33
 669 366 669 366 669 514 c 2,34,-1
 669 535 l 2,18,19
EndSplineSet
EndChar

StartChar: sigma1
Encoding: 962 962 412
Width: 909
GlyphClass: 1
Flags: W
LayerCount: 2
Fore
SplineSet
487 1102 m 0,0,1
 665 1102 665 1102 769.5 991 c 128,-1,2
 874 880 874 880 871 686 c 1,3,-1
 869 681 l 1,4,-1
 613 681 l 1,5,6
 613 772 613 772 582 826.5 c 128,-1,7
 551 881 551 881 487 881 c 0,8,9
 401 881 401 881 366 791 c 128,-1,10
 331 701 331 701 331 555 c 2,11,-1
 331 526 l 2,12,13
 331 383 331 383 382 308 c 128,-1,14
 433 233 433 233 549 213 c 0,15,16
 716 184 716 184 794 119.5 c 128,-1,17
 872 55 872 55 872 -76 c 0,18,19
 869 -201 869 -201 790 -300 c 128,-1,20
 711 -399 711 -399 573 -438 c 1,21,-1
 481 -248 l 1,22,23
 535 -221 535 -221 567 -186 c 128,-1,24
 599 -151 599 -151 599 -99 c 0,25,26
 599 -58 599 -58 567.5 -35 c 128,-1,27
 536 -12 536 -12 473 1 c 0,28,29
 258 35 258 35 154.5 167 c 128,-1,30
 51 299 51 299 51 526 c 2,31,-1
 51 555 l 2,32,33
 51 795 51 795 164.5 948.5 c 128,-1,34
 278 1102 278 1102 487 1102 c 0,0,1
EndSplineSet
EndChar

StartChar: sigma
Encoding: 963 963 413
Width: 1026
GlyphClass: 1
Flags: W
LayerCount: 2
Fore
SplineSet
998 861 m 1,0,-1
 774 861 l 1,1,2
 843 795 843 795 887 704 c 128,-1,3
 931 613 931 613 931 514 c 2,4,-1
 931 491 l 2,5,6
 931 266 931 266 817.5 122.5 c 128,-1,7
 704 -21 704 -21 503 -21 c 0,8,9
 291 -21 291 -21 174 131 c 128,-1,10
 57 283 57 283 57 528 c 2,11,-1
 57 551 l 2,12,13
 57 787 57 787 173.5 934.5 c 128,-1,14
 290 1082 290 1082 501 1082 c 1,15,16
 0 0 0 0 250.5 540.5 c 128,-1,17
 501 1081 501 1081 502 1081 c 1,18,-1
 502 1082 l 1,19,-1
 998 1082 l 1,20,-1
 998 861 l 1,0,-1
338 528 m 2,21,22
 338 377 338 377 375 288.5 c 128,-1,23
 412 200 412 200 500 205 c 1,24,-1
 506 205 l 1,25,26
 583 200 583 200 616 288.5 c 128,-1,27
 649 377 649 377 649 528 c 2,28,-1
 649 551 l 2,29,30
 649 691 649 691 615.5 776 c 128,-1,31
 582 861 582 861 502 861 c 0,32,33
 414 861 414 861 376 775.5 c 128,-1,34
 338 690 338 690 338 551 c 2,35,-1
 338 528 l 2,21,22
EndSplineSet
EndChar

StartChar: tau
Encoding: 964 964 414
Width: 942
GlyphClass: 1
Flags: W
LayerCount: 2
Fore
SplineSet
904 863 m 1,0,-1
 614 863 l 1,1,-1
 614 0 l 1,2,-1
 332 0 l 1,3,-1
 332 863 l 1,4,-1
 44 863 l 1,5,-1
 44 1082 l 1,6,-1
 904 1082 l 1,7,-1
 904 863 l 1,0,-1
EndSplineSet
EndChar

StartChar: upsilon
Encoding: 965 965 415
Width: 1008
GlyphClass: 1
Flags: W
LayerCount: 2
Fore
SplineSet
377 1082 m 1,0,-1
 377 471 l 2,1,2
 377 326 377 326 414.5 263 c 128,-1,3
 452 200 452 200 512 205 c 1,4,-1
 518 206 l 1,5,6
 595 201 595 201 630.5 304 c 128,-1,7
 666 407 666 407 666 559 c 0,8,9
 663 690 663 690 641.5 821 c 128,-1,10
 620 952 620 952 583 1082 c 1,11,-1
 848 1082 l 1,12,13
 892 976 892 976 919.5 846 c 128,-1,14
 947 716 947 716 947 560 c 0,15,16
 947 292 947 292 848 135.5 c 128,-1,17
 749 -21 749 -21 523 -21 c 0,18,19
 321 -21 321 -21 208 101 c 128,-1,20
 95 223 95 223 95 473 c 2,21,-1
 95 1082 l 1,22,-1
 377 1082 l 1,0,-1
EndSplineSet
EndChar

StartChar: phi
Encoding: 966 966 416
Width: 1351
GlyphClass: 1
Flags: W
LayerCount: 2
Fore
SplineSet
808 1082 m 2,0,1
 1046 1082 1046 1082 1170.5 918.5 c 128,-1,2
 1295 755 1295 755 1295 538 c 0,3,4
 1295 318 1295 318 1179.5 168 c 128,-1,5
 1064 18 1064 18 808 -13 c 1,6,-1
 808 -478 l 1,7,-1
 526 -478 l 1,8,-1
 526 -10 l 1,9,10
 271 27 271 27 156 191 c 128,-1,11
 41 355 41 355 41 592 c 0,12,13
 41 739 41 739 71 861.5 c 128,-1,14
 101 984 101 984 152 1082 c 1,15,-1
 409 1082 l 1,16,17
 369 953 369 953 346.5 832 c 128,-1,18
 324 711 324 711 322 592 c 0,19,20
 322 450 322 450 368 355.5 c 128,-1,21
 414 261 414 261 520 232 c 1,22,-1
 526 233 l 1,23,-1
 526 1082 l 1,24,-1
 808 1082 l 2,0,1
1013 538 m 0,25,26
 1011 680 1011 680 960 769 c 128,-1,27
 909 858 909 858 814 852 c 1,28,-1
 808 850 l 1,29,-1
 808 226 l 1,30,-1
 814 224 l 1,31,32
 920 248 920 248 966.5 330 c 128,-1,33
 1013 412 1013 412 1013 538 c 0,25,26
EndSplineSet
EndChar

StartChar: chi
Encoding: 967 967 417
Width: 951
GlyphClass: 1
Flags: W
LayerCount: 2
Fore
SplineSet
148 1097 m 0,0,1
 293 1097 293 1097 364 1018.5 c 128,-1,2
 435 940 435 940 473 827 c 2,3,-1
 512 718 l 1,4,-1
 518 718 l 1,5,-1
 669 1082 l 1,6,-1
 955 1082 l 1,7,-1
 647 348 l 1,8,-1
 800 -72 l 1,9,10
 814 -125 814 -125 837.5 -160.5 c 128,-1,11
 861 -196 861 -196 894 -205 c 0,12,13
 903 -207 903 -207 914.5 -207 c 128,-1,14
 926 -207 926 -207 938 -207 c 1,15,-1
 918 -421 l 1,16,17
 888 -428 888 -428 856 -430 c 128,-1,18
 824 -432 824 -432 791 -429 c 0,19,20
 691 -419 691 -419 631 -325.5 c 128,-1,21
 571 -232 571 -232 532 -102 c 1,22,-1
 501 -15 l 1,23,-1
 495 -15 l 1,24,-1
 327 -415 l 1,25,-1
 51 -415 l 1,26,-1
 368 353 l 1,27,-1
 223 756 l 2,28,29
 206 812 206 812 165.5 844 c 128,-1,30
 125 876 125 876 76 876 c 0,31,32
 64 876 64 876 47 874 c 128,-1,33
 30 872 30 872 21 870 c 1,34,-1
 16 1075 l 1,35,36
 55 1086 55 1086 83.5 1091.5 c 128,-1,37
 112 1097 112 1097 148 1097 c 0,0,1
EndSplineSet
EndChar

StartChar: psi
Encoding: 968 968 418
Width: 1349
GlyphClass: 1
Flags: W
LayerCount: 2
Fore
SplineSet
807 1081 m 1,0,-1
 807 233 l 1,1,-1
 813 232 l 1,2,3
 915 261 915 261 963 357.5 c 128,-1,4
 1011 454 1011 454 1011 596 c 0,5,6
 1009 714 1009 714 986 834 c 128,-1,7
 963 954 963 954 924 1082 c 1,8,-1
 1181 1082 l 1,9,10
 1231 984 1231 984 1262 863 c 128,-1,11
 1293 742 1293 742 1293 596 c 0,12,13
 1293 354 1293 354 1177.5 188.5 c 128,-1,14
 1062 23 1062 23 807 -12 c 1,15,-1
 807 -472 l 1,16,-1
 525 -472 l 1,17,-1
 525 -10 l 1,18,19
 300 25 300 25 178 172.5 c 128,-1,20
 56 320 56 320 56 589 c 2,21,-1
 56 1082 l 1,22,-1
 338 1082 l 1,23,-1
 338 586 l 2,24,25
 338 433 338 433 386.5 346 c 128,-1,26
 435 259 435 259 519 234 c 1,27,-1
 525 236 l 1,28,-1
 525 1081 l 1,29,-1
 807 1081 l 1,0,-1
EndSplineSet
EndChar

StartChar: omega
Encoding: 969 969 419
Width: 1528
GlyphClass: 1
Flags: W
LayerCount: 2
Fore
SplineSet
465 1082 m 1,0,1
 411 952 411 952 380.5 821 c 128,-1,2
 350 690 350 690 347 559 c 0,3,4
 347 402 347 402 376.5 301.5 c 128,-1,5
 406 201 406 201 476 206 c 1,6,-1
 482 206 l 1,7,8
 539 200 539 200 576.5 270 c 128,-1,9
 614 340 614 340 614 492 c 2,10,-1
 614 841 l 1,11,-1
 912 841 l 1,12,-1
 912 492 l 2,13,14
 912 340 912 340 949.5 270 c 128,-1,15
 987 200 987 200 1046 206 c 1,16,-1
 1052 206 l 1,17,18
 1120 201 1120 201 1150 301 c 128,-1,19
 1180 401 1180 401 1180 559 c 1,20,21
 1176 692 1176 692 1145.5 823.5 c 128,-1,22
 1115 955 1115 955 1062 1082 c 1,23,-1
 1327 1082 l 1,24,25
 1387 977 1387 977 1424 847 c 128,-1,26
 1461 717 1461 717 1461 560 c 0,27,28
 1461 291 1461 291 1367.5 135 c 128,-1,29
 1274 -21 1274 -21 1058 -21 c 0,30,31
 958 -21 958 -21 882.5 31.5 c 128,-1,32
 807 84 807 84 763 186 c 1,33,34
 718 84 718 84 643 31.5 c 128,-1,35
 568 -21 568 -21 470 -21 c 0,36,37
 252 -21 252 -21 159 135 c 128,-1,38
 66 291 66 291 66 560 c 0,39,40
 66 716 66 716 102.5 846 c 128,-1,41
 139 976 139 976 200 1082 c 1,42,-1
 465 1082 l 1,0,1
EndSplineSet
EndChar

StartChar: uni03D1
Encoding: 977 977 425
Width: 1242
GlyphClass: 2
Flags: W
LayerCount: 2
Fore
SplineSet
478 963 m 1,0,-1
 478 1069 l 2,1,2
 478 1254 478 1254 574.5 1365.5 c 128,-1,3
 671 1477 671 1477 826 1477 c 0,4,5
 978 1477 978 1477 1066.5 1368.5 c 128,-1,6
 1155 1260 1155 1260 1155 1069 c 2,7,-1
 1155 545 l 2,8,9
 1155 287 1155 287 1014 133 c 128,-1,10
 873 -21 873 -21 642 -21 c 0,11,12
 405 -21 405 -21 258 139 c 128,-1,13
 111 299 111 299 111 545 c 2,14,-1
 111 1252 l 1,15,-1
 409 1254 l 1,16,-1
 409 545 l 2,17,18
 409 395 409 395 471.5 301.5 c 128,-1,19
 534 208 534 208 642 208 c 0,20,21
 742 208 742 208 799.5 296 c 128,-1,22
 857 384 857 384 858 542 c 1,23,24
 696 558 696 558 587 675.5 c 128,-1,25
 478 793 478 793 478 963 c 1,26,-1
 478 963 l 1,0,-1
858 1098 m 2,27,28
 858 1165 858 1165 846 1198 c 128,-1,29
 834 1231 834 1231 812 1226 c 1,30,-1
 806 1226 l 1,31,32
 778 1231 778 1231 761 1197.5 c 128,-1,33
 744 1164 744 1164 744 1098 c 2,34,-1
 744 961 l 2,35,36
 744 880 744 880 773 824 c 128,-1,37
 802 768 802 768 852 758 c 1,38,-1
 858 759 l 1,39,-1
 858 1098 l 2,27,28
EndSplineSet
EndChar

StartChar: uni03D2
Encoding: 978 978 426
Width: 1068
GlyphClass: 1
Flags: W
LayerCount: 2
Fore
SplineSet
669 1200 m 1,0,1
 723 1355 723 1355 791 1417.5 c 128,-1,2
 859 1480 859 1480 980 1480 c 0,3,4
 1006 1480 1006 1480 1028 1475.5 c 128,-1,5
 1050 1471 1050 1471 1069 1462 c 1,6,-1
 1047 1246 l 1,7,8
 1044 1247 1044 1247 1029 1249 c 128,-1,9
 1014 1251 1014 1251 1005 1251 c 0,10,11
 973 1251 973 1251 950.5 1222 c 128,-1,12
 928 1193 928 1193 917 1142 c 1,13,-1
 670 474 l 1,14,-1
 670 0 l 1,15,-1
 389 0 l 1,16,-1
 389 490 l 1,17,-1
 150 1142 l 1,18,19
 138 1193 138 1193 115.5 1222 c 128,-1,20
 93 1251 93 1251 62 1251 c 0,21,22
 52 1251 52 1251 36.5 1249 c 128,-1,23
 21 1247 21 1247 19 1246 c 1,24,-1
 0 1462 l 1,25,26
 16 1471 16 1471 37.5 1475.5 c 128,-1,27
 59 1480 59 1480 87 1480 c 0,28,29
 209 1480 209 1480 276 1420.5 c 128,-1,30
 343 1361 343 1361 397 1207 c 1,31,-1
 518 820 l 1,32,-1
 530 751 l 1,33,-1
 536 751 l 1,34,-1
 549 820 l 1,35,-1
 669 1200 l 1,0,1
EndSplineSet
EndChar

StartChar: uni03D6
Encoding: 982 982 427
Width: 1489
GlyphClass: 1
Flags: W
LayerCount: 2
Fore
SplineSet
1483 908 m 1,0,-1
 1364 908 l 1,1,2
 1389 831 1389 831 1403.5 744 c 128,-1,3
 1418 657 1418 657 1418 560 c 0,4,5
 1418 291 1418 291 1330.5 135 c 128,-1,6
 1243 -21 1243 -21 1039 -21 c 0,7,8
 940 -21 940 -21 864.5 31.5 c 128,-1,9
 789 84 789 84 745 185 c 1,10,11
 700 83 700 83 625 31 c 128,-1,12
 550 -21 550 -21 452 -21 c 0,13,14
 247 -21 247 -21 159.5 135 c 128,-1,15
 72 291 72 291 72 560 c 0,16,17
 72 657 72 657 86 744 c 128,-1,18
 100 831 100 831 126 908 c 1,19,-1
 13 908 l 1,20,-1
 13 1082 l 1,21,-1
 1483 1082 l 1,22,-1
 1483 908 l 1,0,-1
1137 559 m 0,23,24
 1134 646 1134 646 1120.5 733.5 c 128,-1,25
 1107 821 1107 821 1083 908 c 1,26,-1
 408 908 l 1,27,28
 383 820 383 820 369 733 c 128,-1,29
 355 646 355 646 353 559 c 0,30,31
 353 401 353 401 377 301 c 128,-1,32
 401 201 401 201 459 207 c 1,33,-1
 465 207 l 1,34,35
 521 200 521 200 558.5 270 c 128,-1,36
 596 340 596 340 596 492 c 2,37,-1
 596 699 l 1,38,-1
 894 699 l 1,39,-1
 894 492 l 2,40,41
 894 340 894 340 931 270 c 128,-1,42
 968 200 968 200 1025 207 c 1,43,-1
 1031 207 l 1,44,45
 1088 201 1088 201 1112.5 301 c 128,-1,46
 1137 401 1137 401 1137 559 c 0,23,24
EndSplineSet
EndChar

StartChar: uni0402
Encoding: 1026 1026 430
Width: 1360
GlyphClass: 1
Flags: W
LayerCount: 2
Fore
SplineSet
1008 1235 m 1,0,-1
 666 1235 l 1,1,-1
 666 916 l 1,2,-1
 913 916 l 2,3,4
 1149 916 1149 916 1289 793 c 128,-1,5
 1429 670 1429 670 1429 431 c 0,6,7
 1432 300 1432 300 1348.5 166 c 128,-1,8
 1265 32 1265 32 1111 -28 c 1,9,-1
 989 152 l 1,10,11
 1063 199 1063 199 1105 268 c 128,-1,12
 1147 337 1147 337 1147 431 c 0,13,14
 1147 562 1147 562 1086.5 627.5 c 128,-1,15
 1026 693 1026 693 913 693 c 2,16,-1
 666 693 l 1,17,-1
 666 0 l 1,18,-1
 383 0 l 1,19,-1
 383 1235 l 1,20,-1
 50 1235 l 1,21,-1
 50 1456 l 1,22,-1
 1008 1456 l 1,23,-1
 1008 1235 l 1,0,-1
EndSplineSet
EndChar

StartChar: uni0404
Encoding: 1028 1028 432
Width: 1108
GlyphClass: 1
Flags: W
LayerCount: 2
Fore
SplineSet
1083 453 m 1,0,-1
 1085 447 l 1,1,2
 1089 213 1089 213 965.5 96.5 c 128,-1,3
 842 -20 842 -20 613 -20 c 0,4,5
 378 -20 378 -20 240 118.5 c 128,-1,6
 102 257 102 257 102 512 c 2,7,-1
 102 944 l 2,8,9
 102 1198 102 1198 235.5 1338 c 128,-1,10
 369 1478 369 1478 596 1478 c 0,11,12
 835 1478 835 1478 963 1362 c 128,-1,13
 1091 1246 1091 1246 1087 1011 c 1,14,-1
 1085 1005 l 1,15,-1
 811 1005 l 1,16,17
 811 1145 811 1145 761.5 1201 c 128,-1,18
 712 1257 712 1257 596 1257 c 0,19,20
 490 1257 490 1257 437 1180.5 c 128,-1,21
 384 1104 384 1104 384 946 c 2,22,-1
 384 842 l 1,23,-1
 725 842 l 1,24,-1
 725 620 l 1,25,-1
 384 620 l 1,26,-1
 384 512 l 2,27,28
 384 353 384 353 441 276.5 c 128,-1,29
 498 200 498 200 613 200 c 0,30,31
 718 200 718 200 764 255.5 c 128,-1,32
 810 311 810 311 810 453 c 1,33,-1
 1083 453 l 1,0,-1
EndSplineSet
EndChar

StartChar: uni0405
Encoding: 1029 1029 433
Width: 1107
GlyphClass: 1
Flags: W
LayerCount: 2
Fore
SplineSet
754 378 m 0,0,1
 754 465 754 465 709.5 515.5 c 128,-1,2
 665 566 665 566 550 614 c 1,3,4
 326 693 326 693 213 793 c 128,-1,5
 100 893 100 893 100 1073 c 0,6,7
 100 1252 100 1252 229 1364.5 c 128,-1,8
 358 1477 358 1477 558 1477 c 0,9,10
 770 1477 770 1477 899 1357 c 128,-1,11
 1028 1237 1028 1237 1024 1035 c 1,12,-1
 1022 1029 l 1,13,-1
 748 1029 l 1,14,15
 748 1142 748 1142 697.5 1200.5 c 128,-1,16
 647 1259 647 1259 553 1259 c 0,17,18
 472 1259 472 1259 427 1205.5 c 128,-1,19
 382 1152 382 1152 382 1072 c 0,20,21
 382 998 382 998 433 950 c 128,-1,22
 484 902 484 902 608 845 c 1,23,24
 819 775 819 775 927.5 668 c 128,-1,25
 1036 561 1036 561 1036 380 c 0,26,27
 1036 193 1036 193 909 86 c 128,-1,28
 782 -21 782 -21 572 -21 c 0,29,30
 365 -21 365 -21 218 94.5 c 128,-1,31
 71 210 71 210 76 446 c 1,32,-1
 78 452 l 1,33,-1
 353 452 l 1,34,35
 353 315 353 315 408.5 255 c 128,-1,36
 464 195 464 195 572 195 c 0,37,38
 663 195 663 195 708.5 245 c 128,-1,39
 754 295 754 295 754 378 c 0,0,1
EndSplineSet
EndChar

StartChar: uni0409
Encoding: 1033 1033 437
Width: 1871
GlyphClass: 1
Flags: W
LayerCount: 2
Fore
SplineSet
1145 1456 m 1,0,-1
 1145 944 l 1,1,-1
 1337 944 l 2,2,3
 1555 944 1555 944 1687 811.5 c 128,-1,4
 1819 679 1819 679 1819 472 c 0,5,6
 1819 264 1819 264 1687 132 c 128,-1,7
 1555 0 1555 0 1337 0 c 2,8,-1
 863 0 l 1,9,-1
 863 1235 l 1,10,-1
 564 1235 l 1,11,-1
 567 800 l 2,12,13
 568 374 568 374 444.5 187 c 128,-1,14
 321 0 321 0 77 0 c 2,15,-1
 41 0 l 1,16,-1
 41 220 l 1,17,-1
 75 220 l 2,18,19
 201 220 201 220 243.5 342.5 c 128,-1,20
 286 465 286 465 284 800 c 2,21,-1
 281 1456 l 1,22,-1
 1145 1456 l 1,0,-1
1145 723 m 1,23,-1
 1145 220 l 1,24,-1
 1337 220 l 2,25,26
 1432 220 1432 220 1485.5 293.5 c 128,-1,27
 1539 367 1539 367 1539 474 c 0,28,29
 1539 576 1539 576 1485.5 649.5 c 128,-1,30
 1432 723 1432 723 1337 723 c 2,31,-1
 1145 723 l 1,23,-1
EndSplineSet
EndChar

StartChar: uni040A
Encoding: 1034 1034 438
Width: 1871
GlyphClass: 1
Flags: W
LayerCount: 2
Fore
SplineSet
394 833 m 1,0,-1
 862 833 l 1,1,-1
 862 1456 l 1,2,-1
 1144 1456 l 1,3,-1
 1144 933 l 1,4,-1
 1336 933 l 2,5,6
 1555 933 1555 933 1687 802.5 c 128,-1,7
 1819 672 1819 672 1819 467 c 0,8,9
 1819 261 1819 261 1687 130.5 c 128,-1,10
 1555 0 1555 0 1336 0 c 2,11,-1
 862 0 l 1,12,-1
 862 613 l 1,13,-1
 394 613 l 1,14,-1
 394 0 l 1,15,-1
 111 0 l 1,16,-1
 111 1456 l 1,17,-1
 394 1456 l 1,18,-1
 394 833 l 1,0,-1
1144 713 m 1,19,-1
 1144 222 l 1,20,-1
 1336 222 l 2,21,22
 1431 222 1431 222 1484.5 293.5 c 128,-1,23
 1538 365 1538 365 1538 469 c 0,24,25
 1538 570 1538 570 1484.5 641.5 c 128,-1,26
 1431 713 1431 713 1336 713 c 2,27,-1
 1144 713 l 1,19,-1
EndSplineSet
EndChar

StartChar: uni040B
Encoding: 1035 1035 439
Width: 1417
GlyphClass: 1
Flags: W
LayerCount: 2
Fore
SplineSet
1024 1235 m 1,0,-1
 682 1235 l 1,1,-1
 682 975 l 1,2,-1
 827 975 l 2,3,4
 1060 975 1060 975 1184.5 856.5 c 128,-1,5
 1309 738 1309 738 1309 491 c 2,6,-1
 1309 0 l 1,7,-1
 1027 0 l 1,8,-1
 1027 491 l 2,9,10
 1027 639 1027 639 982 697 c 128,-1,11
 937 755 937 755 827 755 c 2,12,-1
 682 755 l 1,13,-1
 682 0 l 1,14,-1
 399 0 l 1,15,-1
 399 1235 l 1,16,-1
 66 1235 l 1,17,-1
 66 1456 l 1,18,-1
 1024 1456 l 1,19,-1
 1024 1235 l 1,0,-1
EndSplineSet
EndChar

StartChar: uni040F
Encoding: 1039 1039 443
Width: 1242
GlyphClass: 1
Flags: W
LayerCount: 2
Fore
SplineSet
97 1456 m 1,0,-1
 379 1456 l 1,1,-1
 379 220 l 1,2,-1
 848 220 l 1,3,-1
 848 1456 l 1,4,-1
 1130 1456 l 1,5,-1
 1130 0 l 1,6,-1
 767 0 l 1,7,-1
 767 -358 l 1,8,-1
 485 -358 l 1,9,-1
 485 0 l 1,10,-1
 97 0 l 1,11,-1
 97 1456 l 1,0,-1
EndSplineSet
EndChar

StartChar: uni0411
Encoding: 1041 1041 445
Width: 1116
GlyphClass: 1
Flags: W
LayerCount: 2
Fore
SplineSet
941 1235 m 1,0,-1
 393 1235 l 1,1,-1
 393 942 l 1,2,-1
 585 942 l 2,3,4
 804 942 804 942 936.5 810 c 128,-1,5
 1069 678 1069 678 1069 472 c 0,6,7
 1069 264 1069 264 937 132 c 128,-1,8
 805 0 805 0 585 0 c 2,9,-1
 110 0 l 1,10,-1
 110 1456 l 1,11,-1
 941 1456 l 1,12,-1
 941 1235 l 1,0,-1
393 721 m 1,13,-1
 393 220 l 1,14,-1
 585 220 l 2,15,16
 680 220 680 220 733.5 293.5 c 128,-1,17
 787 367 787 367 787 474 c 0,18,19
 787 576 787 576 733.5 648.5 c 128,-1,20
 680 721 680 721 585 721 c 2,21,-1
 393 721 l 1,13,-1
EndSplineSet
EndChar

StartChar: uni0414
Encoding: 1044 1044 448
Width: 1262
GlyphClass: 1
Flags: W
LayerCount: 2
Fore
SplineSet
1277 -357 m 1,0,-1
 995 -357 l 1,1,-1
 995 0 l 1,2,-1
 291 0 l 1,3,-1
 291 -357 l 1,4,-1
 10 -357 l 1,5,-1
 10 220 l 1,6,-1
 84 220 l 2,7,8
 178 220 178 220 215 370.5 c 128,-1,9
 252 521 252 521 263 872 c 1,10,-1
 290 1456 l 1,11,-1
 1128 1456 l 1,12,-1
 1128 220 l 1,13,-1
 1277 220 l 1,14,-1
 1277 -357 l 1,0,-1
545 872 m 2,15,16
 536 654 536 654 503.5 491.5 c 128,-1,17
 471 329 471 329 414 220 c 1,18,-1
 846 220 l 1,19,-1
 846 1235 l 1,20,-1
 562 1235 l 1,21,-1
 545 872 l 2,15,16
EndSplineSet
EndChar

StartChar: uni0416
Encoding: 1046 1046 450
Width: 1665
GlyphClass: 1
Flags: W
LayerCount: 2
Fore
SplineSet
1056 609 m 1,0,-1
 979 609 l 1,1,-1
 979 0 l 1,2,-1
 697 0 l 1,3,-1
 697 609 l 1,4,-1
 615 609 l 1,5,-1
 359 0 l 1,6,-1
 7 0 l 1,7,-1
 395 797 l 1,8,-1
 24 1456 l 1,9,-1
 375 1456 l 1,10,-1
 636 858 l 1,11,-1
 697 858 l 1,12,-1
 697 1456 l 1,13,-1
 979 1456 l 1,14,-1
 979 858 l 1,15,-1
 1037 858 l 1,16,-1
 1289 1456 l 1,17,-1
 1639 1456 l 1,18,-1
 1276 798 l 1,19,-1
 1657 0 l 1,20,-1
 1306 0 l 1,21,-1
 1056 609 l 1,0,-1
EndSplineSet
EndChar

StartChar: uni0417
Encoding: 1047 1047 451
Width: 1167
GlyphClass: 1
Flags: W
LayerCount: 2
Fore
SplineSet
579 850 m 2,0,1
 683 850 683 850 733 904.5 c 128,-1,2
 783 959 783 959 783 1059 c 0,3,4
 783 1144 783 1144 726.5 1200 c 128,-1,5
 670 1256 670 1256 563 1256 c 0,6,7
 480 1256 480 1256 426 1203 c 128,-1,8
 372 1150 372 1150 372 1064 c 1,9,-1
 99 1064 l 1,10,-1
 96 1070 l 1,11,12
 91 1251 91 1251 227.5 1364 c 128,-1,13
 364 1477 364 1477 563 1477 c 0,14,15
 795 1477 795 1477 929.5 1369 c 128,-1,16
 1064 1261 1064 1261 1064 1062 c 0,17,18
 1064 961 1064 961 1007 877.5 c 128,-1,19
 950 794 950 794 851 747 c 1,20,21
 963 705 963 705 1023.5 617.5 c 128,-1,22
 1084 530 1084 530 1084 405 c 0,23,24
 1084 205 1084 205 940 92 c 128,-1,25
 796 -21 796 -21 563 -21 c 0,26,27
 364 -21 364 -21 219 86 c 128,-1,28
 74 193 74 193 79 398 c 1,29,-1
 82 404 l 1,30,-1
 354 404 l 1,31,32
 354 316 354 316 413 257.5 c 128,-1,33
 472 199 472 199 563 199 c 0,34,35
 674 199 674 199 738 257.5 c 128,-1,36
 802 316 802 316 802 409 c 0,37,38
 802 527 802 527 746 581 c 128,-1,39
 690 635 690 635 579 635 c 2,40,-1
 406 635 l 1,41,-1
 406 850 l 1,42,-1
 579 850 l 2,0,1
EndSplineSet
EndChar

StartChar: uni0418
Encoding: 1048 1048 452
Width: 1241
GlyphClass: 1
Flags: W
LayerCount: 2
Fore
SplineSet
850 1456 m 1,0,-1
 1133 1456 l 1,1,-1
 1133 0 l 1,2,-1
 850 0 l 1,3,-1
 850 917 l 1,4,-1
 844 918 l 1,5,-1
 382 0 l 1,6,-1
 101 0 l 1,7,-1
 101 1456 l 1,8,-1
 382 1456 l 1,9,-1
 382 537 l 1,10,-1
 388 536 l 1,11,-1
 850 1456 l 1,0,-1
EndSplineSet
EndChar

StartChar: uni041B
Encoding: 1051 1051 455
Width: 1257
GlyphClass: 1
Flags: W
LayerCount: 2
Fore
SplineSet
1145 1456 m 1,0,-1
 1145 0 l 1,1,-1
 863 0 l 1,2,-1
 863 1235 l 1,3,-1
 545 1235 l 1,4,-1
 548 800 l 2,5,6
 550 373 550 373 432.5 186.5 c 128,-1,7
 315 0 315 0 78 0 c 2,8,-1
 42 0 l 1,9,-1
 42 220 l 1,10,-1
 76 220 l 2,11,12
 194 220 194 220 230.5 340 c 128,-1,13
 267 460 267 460 265 800 c 2,14,-1
 262 1456 l 1,15,-1
 1145 1456 l 1,0,-1
EndSplineSet
EndChar

StartChar: uni0423
Encoding: 1059 1059 463
Width: 1139
GlyphClass: 1
Flags: W
LayerCount: 2
Fore
SplineSet
564 789 m 1,0,-1
 573 754 l 1,1,-1
 579 754 l 1,2,-1
 825 1456 l 1,3,-1
 1121 1456 l 1,4,-1
 671 280 l 2,5,6
 613 137 613 137 535.5 58 c 128,-1,7
 458 -21 458 -21 319 -21 c 0,8,9
 266 -21 266 -21 228.5 -11 c 128,-1,10
 191 -1 191 -1 134 22 c 1,11,-1
 165 226 l 1,12,13
 203 212 203 212 230 205.5 c 128,-1,14
 257 199 257 199 287 199 c 0,15,16
 356 199 356 199 390 235 c 128,-1,17
 424 271 424 271 444 346 c 2,18,-1
 460 398 l 1,19,-1
 19 1456 l 1,20,-1
 322 1456 l 1,21,-1
 564 789 l 1,0,-1
EndSplineSet
EndChar

StartChar: uni0426
Encoding: 1062 1062 466
Width: 1367
GlyphClass: 1
Flags: W
LayerCount: 2
Fore
SplineSet
288 1456 m 1,0,-1
 569 1456 l 1,1,-1
 569 221 l 1,2,-1
 1032 221 l 1,3,-1
 1032 223 l 1,4,-1
 1039 223 l 1,5,-1
 1039 1456 l 1,6,-1
 1321 1456 l 1,7,-1
 1321 0 l 1,8,-1
 1313 0 l 1,9,-1
 1313 -358 l 1,10,-1
 1032 -358 l 1,11,-1
 1032 0 l 1,12,-1
 288 0 l 1,13,-1
 288 1456 l 1,0,-1
EndSplineSet
EndChar

StartChar: uni0427
Encoding: 1063 1063 467
Width: 1245
GlyphClass: 1
Flags: W
LayerCount: 2
Fore
SplineSet
1133 1456 m 1,0,-1
 1133 0 l 1,1,-1
 852 0 l 1,2,-1
 852 567 l 1,3,4
 799 553 799 553 732 545 c 128,-1,5
 665 537 665 537 619 537 c 0,6,7
 382 537 382 537 251 654 c 128,-1,8
 120 771 120 771 120 1015 c 2,9,-1
 120 1456 l 1,10,-1
 402 1456 l 1,11,-1
 402 1015 l 2,12,13
 402 870 402 870 453.5 813.5 c 128,-1,14
 505 757 505 757 619 757 c 0,15,16
 664 757 664 757 731.5 765 c 128,-1,17
 799 773 799 773 852 787 c 1,18,-1
 852 1456 l 1,19,-1
 1133 1456 l 1,0,-1
EndSplineSet
EndChar

StartChar: uni0428
Encoding: 1064 1064 468
Width: 1847
GlyphClass: 1
Flags: W
LayerCount: 2
Fore
SplineSet
390 1456 m 1,0,-1
 390 220 l 1,1,-1
 787 220 l 1,2,-1
 787 1456 l 1,3,-1
 1068 1456 l 1,4,-1
 1068 220 l 1,5,-1
 1460 220 l 1,6,-1
 1460 1456 l 1,7,-1
 1742 1456 l 1,8,-1
 1742 0 l 1,9,-1
 108 0 l 1,10,-1
 108 1456 l 1,11,-1
 390 1456 l 1,0,-1
EndSplineSet
EndChar

StartChar: uni0429
Encoding: 1065 1065 469
Width: 2005
GlyphClass: 1
Flags: W
LayerCount: 2
Fore
SplineSet
390 1456 m 1,0,-1
 390 220 l 1,1,-1
 787 220 l 1,2,-1
 787 1456 l 1,3,-1
 1068 1456 l 1,4,-1
 1068 220 l 1,5,-1
 1460 220 l 1,6,-1
 1460 1456 l 1,7,-1
 1742 1456 l 1,8,-1
 1742 205 l 1,9,-1
 1958 205 l 1,10,-1
 1958 -347 l 1,11,-1
 1677 -347 l 1,12,-1
 1677 0 l 1,13,-1
 108 0 l 1,14,-1
 108 1456 l 1,15,-1
 390 1456 l 1,0,-1
EndSplineSet
EndChar

StartChar: uni042A
Encoding: 1066 1066 470
Width: 1275
GlyphClass: 1
Flags: W
LayerCount: 2
Fore
SplineSet
15 1456 m 1,0,-1
 556 1456 l 1,1,-1
 556 942 l 1,2,-1
 748 942 l 2,3,4
 967 942 967 942 1099.5 810 c 128,-1,5
 1232 678 1232 678 1232 472 c 0,6,7
 1232 264 1232 264 1100 132 c 128,-1,8
 968 0 968 0 748 0 c 2,9,-1
 273 0 l 1,10,-1
 273 1236 l 1,11,-1
 15 1236 l 1,12,-1
 15 1456 l 1,0,-1
556 721 m 1,13,-1
 556 220 l 1,14,-1
 748 220 l 2,15,16
 843 220 843 220 896.5 293.5 c 128,-1,17
 950 367 950 367 950 474 c 0,18,19
 950 576 950 576 896.5 648.5 c 128,-1,20
 843 721 843 721 748 721 c 2,21,-1
 556 721 l 1,13,-1
EndSplineSet
EndChar

StartChar: uni042B
Encoding: 1067 1067 471
Width: 1555
GlyphClass: 1
Flags: W
LayerCount: 2
Fore
SplineSet
393 942 m 1,0,-1
 585 942 l 2,1,2
 804 942 804 942 936.5 810 c 128,-1,3
 1069 678 1069 678 1069 472 c 0,4,5
 1069 264 1069 264 937 132 c 128,-1,6
 805 0 805 0 585 0 c 2,7,-1
 110 0 l 1,8,-1
 110 1456 l 1,9,-1
 393 1456 l 1,10,-1
 393 942 l 1,0,-1
1607 0 m 1,11,-1
 1326 0 l 1,12,-1
 1326 1456 l 1,13,-1
 1607 1456 l 1,14,-1
 1607 0 l 1,11,-1
393 721 m 1,15,-1
 393 220 l 1,16,-1
 585 220 l 2,17,18
 680 220 680 220 733.5 293.5 c 128,-1,19
 787 367 787 367 787 474 c 0,20,21
 787 576 787 576 733.5 648.5 c 128,-1,22
 680 721 680 721 585 721 c 2,23,-1
 393 721 l 1,15,-1
EndSplineSet
EndChar

StartChar: uni042C
Encoding: 1068 1068 472
Width: 1120
GlyphClass: 1
Flags: W
LayerCount: 2
Fore
SplineSet
393 942 m 1,0,-1
 585 942 l 2,1,2
 804 942 804 942 936.5 810 c 128,-1,3
 1069 678 1069 678 1069 472 c 0,4,5
 1069 264 1069 264 937 132 c 128,-1,6
 805 0 805 0 585 0 c 2,7,-1
 110 0 l 1,8,-1
 110 1456 l 1,9,-1
 393 1456 l 1,10,-1
 393 942 l 1,0,-1
393 721 m 1,11,-1
 393 220 l 1,12,-1
 585 220 l 2,13,14
 680 220 680 220 733.5 293.5 c 128,-1,15
 787 367 787 367 787 474 c 0,16,17
 787 576 787 576 733.5 648.5 c 128,-1,18
 680 721 680 721 585 721 c 2,19,-1
 393 721 l 1,11,-1
EndSplineSet
EndChar

StartChar: uni042D
Encoding: 1069 1069 473
Width: 1105
GlyphClass: 1
Flags: W
LayerCount: 2
Fore
SplineSet
71 974 m 1,0,-1
 68 980 l 1,1,2
 64 1218 64 1218 185.5 1348 c 128,-1,3
 307 1478 307 1478 533 1478 c 0,4,5
 753 1478 753 1478 886 1309.5 c 128,-1,6
 1019 1141 1019 1141 1019 872 c 2,7,-1
 1019 585 l 2,8,9
 1019 315 1019 315 886 147.5 c 128,-1,10
 753 -20 753 -20 533 -20 c 0,11,12
 306 -20 306 -20 184.5 107 c 128,-1,13
 63 234 63 234 67 474 c 1,14,-1
 70 480 l 1,15,-1
 344 480 l 1,16,17
 344 332 344 332 386.5 266 c 128,-1,18
 429 200 429 200 533 200 c 0,19,20
 634 200 634 200 686 304 c 128,-1,21
 738 408 738 408 738 583 c 2,22,-1
 738 626 l 1,23,-1
 380 626 l 1,24,-1
 380 847 l 1,25,-1
 738 847 l 1,26,-1
 738 872 l 2,27,28
 738 1046 738 1046 686 1151.5 c 128,-1,29
 634 1257 634 1257 533 1257 c 0,30,31
 431 1257 431 1257 388 1189.5 c 128,-1,32
 345 1122 345 1122 345 974 c 1,33,-1
 71 974 l 1,0,-1
EndSplineSet
EndChar

StartChar: uni042E
Encoding: 1070 1070 474
Width: 1695
GlyphClass: 1
Flags: W
LayerCount: 2
Fore
SplineSet
1625 524 m 2,0,1
 1625 267 1625 267 1480 123 c 128,-1,2
 1335 -21 1335 -21 1094 -21 c 256,3,4
 853 -21 853 -21 709 123 c 128,-1,5
 565 267 565 267 565 524 c 2,6,-1
 565 608 l 1,7,-1
 409 608 l 1,8,-1
 409 0 l 1,9,-1
 128 0 l 1,10,-1
 128 1456 l 1,11,-1
 409 1456 l 1,12,-1
 409 829 l 1,13,-1
 565 829 l 1,14,-1
 565 930 l 2,15,16
 565 1186 565 1186 708.5 1331.5 c 128,-1,17
 852 1477 852 1477 1093 1477 c 256,18,19
 1334 1477 1334 1477 1479.5 1331.5 c 128,-1,20
 1625 1186 1625 1186 1625 930 c 2,21,-1
 1625 524 l 2,0,1
1344 933 m 2,22,23
 1344 1092 1344 1092 1279.5 1173 c 128,-1,24
 1215 1254 1215 1254 1093 1254 c 0,25,26
 970 1254 970 1254 908 1173.5 c 128,-1,27
 846 1093 846 1093 846 933 c 2,28,-1
 846 524 l 2,29,30
 846 362 846 362 908.5 281 c 128,-1,31
 971 200 971 200 1094 200 c 256,32,33
 1217 200 1217 200 1280.5 281 c 128,-1,34
 1344 362 1344 362 1344 524 c 2,35,-1
 1344 933 l 2,22,23
EndSplineSet
EndChar

StartChar: uni042F
Encoding: 1071 1071 475
Width: 1047
GlyphClass: 1
Flags: W
LayerCount: 2
Fore
SplineSet
265 0 m 1,0,-1
 -40 0 l 1,1,-1
 227 659 l 1,2,3
 134 717 134 717 86.5 808.5 c 128,-1,4
 39 900 39 900 39 1021 c 0,5,6
 39 1228 39 1228 163 1342 c 128,-1,7
 287 1456 287 1456 507 1456 c 2,8,-1
 952 1456 l 1,9,-1
 952 0 l 1,10,-1
 669 0 l 1,11,-1
 669 562 l 1,12,-1
 493 562 l 1,13,-1
 265 0 l 1,0,-1
669 1235 m 1,14,-1
 507 1235 l 2,15,16
 415 1235 415 1235 368 1175.5 c 128,-1,17
 321 1116 321 1116 321 1008 c 0,18,19
 321 901 321 901 370 835 c 128,-1,20
 419 769 419 769 512 769 c 2,21,-1
 669 769 l 1,22,-1
 669 1235 l 1,14,-1
EndSplineSet
EndChar

StartChar: uni0431
Encoding: 1073 1073 477
Width: 1004
GlyphClass: 1
Flags: W
LayerCount: 2
Fore
SplineSet
523 1102 m 0,0,1
 723 1102 723 1102 834.5 948.5 c 128,-1,2
 946 795 946 795 946 551 c 2,3,-1
 946 528 l 2,4,5
 946 284 946 284 829 131.5 c 128,-1,6
 712 -21 712 -21 502 -21 c 0,7,8
 291 -21 291 -21 173.5 131.5 c 128,-1,9
 56 284 56 284 56 528 c 2,10,-1
 56 809 l 2,11,12
 57 1142 57 1142 159 1287 c 128,-1,13
 261 1432 261 1432 486 1439 c 0,14,15
 595 1441 595 1441 646.5 1468 c 128,-1,16
 698 1495 698 1495 698 1557 c 1,17,-1
 916 1557 l 1,18,-1
 918 1551 l 1,19,20
 922 1362 922 1362 822 1289.5 c 128,-1,21
 722 1217 722 1217 509 1213 c 0,22,23
 385 1210 385 1210 324.5 1151 c 128,-1,24
 264 1092 264 1092 271 992 c 1,25,-1
 274 987 l 1,26,27
 319 1038 319 1038 384.5 1070 c 128,-1,28
 450 1102 450 1102 523 1102 c 0,0,1
500 881 m 0,29,30
 413 881 413 881 375.5 790 c 128,-1,31
 338 699 338 699 338 551 c 2,32,-1
 338 528 l 2,33,34
 338 377 338 377 375.5 288 c 128,-1,35
 413 199 413 199 502 199 c 0,36,37
 589 199 589 199 627 288 c 128,-1,38
 665 377 665 377 665 528 c 2,39,-1
 665 551 l 2,40,41
 665 700 665 700 627 790.5 c 128,-1,42
 589 881 589 881 500 881 c 0,29,30
EndSplineSet
EndChar

StartChar: uni0432
Encoding: 1074 1074 478
Width: 1008
GlyphClass: 1
Flags: W
LayerCount: 2
Fore
SplineSet
109 0 m 1,0,-1
 109 1082 l 1,1,-1
 507 1082 l 2,2,3
 695 1082 695 1082 800 1006.5 c 128,-1,4
 905 931 905 931 905 782 c 0,5,6
 905 705 905 705 858.5 645 c 128,-1,7
 812 585 812 585 727 554 c 1,8,9
 841 530 841 530 899 464 c 128,-1,10
 957 398 957 398 957 307 c 0,11,12
 957 155 957 155 857 77.5 c 128,-1,13
 757 0 757 0 568 0 c 2,14,-1
 109 0 l 1,0,-1
391 454 m 1,15,-1
 391 218 l 1,16,-1
 568 218 l 2,17,18
 624 218 624 218 649.5 247 c 128,-1,19
 675 276 675 276 675 335 c 0,20,21
 675 392 675 392 651 423 c 128,-1,22
 627 454 627 454 568 454 c 2,23,-1
 391 454 l 1,15,-1
391 637 m 1,24,-1
 514 637 l 2,25,26
 572 637 572 637 598 663.5 c 128,-1,27
 624 690 624 690 624 745 c 0,28,29
 624 807 624 807 595.5 835 c 128,-1,30
 567 863 567 863 507 863 c 2,31,-1
 391 863 l 1,32,-1
 391 637 l 1,24,-1
EndSplineSet
EndChar

StartChar: uni0433
Encoding: 1075 1075 479
Width: 749
GlyphClass: 1
Flags: W
LayerCount: 2
Fore
SplineSet
738 861 m 1,0,-1
 371 861 l 1,1,-1
 371 0 l 1,2,-1
 89 0 l 1,3,-1
 89 1082 l 1,4,-1
 738 1082 l 1,5,-1
 738 861 l 1,0,-1
EndSplineSet
EndChar

StartChar: uni0434
Encoding: 1076 1076 480
Width: 1215
GlyphClass: 1
Flags: W
LayerCount: 2
Fore
SplineSet
130 220 m 1,0,-1
 158 221 l 2,1,2
 226 221 226 221 252 315 c 128,-1,3
 278 409 278 409 286 639 c 2,4,-1
 305 1082 l 1,5,-1
 1021 1082 l 1,6,-1
 1021 220 l 1,7,-1
 1155 220 l 1,8,-1
 1155 -357 l 1,9,-1
 874 -357 l 1,10,-1
 874 0 l 1,11,-1
 354 0 l 1,12,-1
 354 -357 l 1,13,-1
 71 -357 l 1,14,-1
 71 220 l 1,15,-1
 130 220 l 1,0,-1
568 639 m 2,16,17
 562 505 562 505 544.5 400.5 c 128,-1,18
 527 296 527 296 496 220 c 1,19,-1
 740 220 l 1,20,-1
 740 857 l 1,21,-1
 577 857 l 1,22,-1
 568 639 l 2,16,17
EndSplineSet
EndChar

StartChar: uni0436
Encoding: 1078 1078 482
Width: 1478
GlyphClass: 1
Flags: W
LayerCount: 2
Fore
SplineSet
941 409 m 1,0,-1
 877 409 l 1,1,-1
 877 0 l 1,2,-1
 597 0 l 1,3,-1
 597 409 l 1,4,-1
 535 409 l 1,5,-1
 379 0 l 1,6,-1
 18 0 l 1,7,-1
 304 591 l 1,8,-1
 310 588 l 1,9,-1
 314 592 l 1,10,-1
 28 1082 l 1,11,-1
 385 1082 l 1,12,-1
 552 671 l 1,13,-1
 597 671 l 1,14,-1
 597 1082 l 1,15,-1
 877 1082 l 1,16,-1
 877 671 l 1,17,-1
 925 671 l 1,18,-1
 1093 1082 l 1,19,-1
 1449 1082 l 1,20,-1
 1163 593 l 1,21,-1
 1167 588 l 1,22,-1
 1172 591 l 1,23,-1
 1457 0 l 1,24,-1
 1097 0 l 1,25,-1
 941 409 l 1,0,-1
EndSplineSet
EndChar

StartChar: uni0437
Encoding: 1079 1079 483
Width: 1000
GlyphClass: 1
Flags: W
LayerCount: 2
Fore
SplineSet
496 641 m 2,0,1
 558 641 558 641 591 674 c 128,-1,2
 624 707 624 707 624 765 c 0,3,4
 624 819 624 819 593.5 856.5 c 128,-1,5
 563 894 563 894 498 894 c 0,6,7
 439 894 439 894 403.5 861.5 c 128,-1,8
 368 829 368 829 368 773 c 1,9,-1
 96 773 l 1,10,-1
 94 779 l 1,11,12
 88 924 88 924 200.5 1012 c 128,-1,13
 313 1100 313 1100 482 1100 c 0,14,15
 675 1100 675 1100 790 1018 c 128,-1,16
 905 936 905 936 905 787 c 0,17,18
 905 714 905 714 862 653 c 128,-1,19
 819 592 819 592 745 556 c 1,20,21
 830 524 830 524 876 460 c 128,-1,22
 922 396 922 396 922 304 c 0,23,24
 922 154 922 154 798.5 67.5 c 128,-1,25
 675 -19 675 -19 482 -19 c 0,26,27
 314 -19 314 -19 194.5 66 c 128,-1,28
 75 151 75 151 80 312 c 1,29,-1
 82 318 l 1,30,-1
 354 318 l 1,31,32
 354 260 354 260 390.5 223 c 128,-1,33
 427 186 427 186 499 186 c 0,34,35
 569 186 569 186 605.5 225.5 c 128,-1,36
 642 265 642 265 642 325 c 0,37,38
 642 396 642 396 603.5 430.5 c 128,-1,39
 565 465 565 465 496 465 c 2,40,-1
 348 465 l 1,41,-1
 348 641 l 1,42,-1
 496 641 l 2,0,1
EndSplineSet
EndChar

StartChar: uni0438
Encoding: 1080 1080 484
Width: 1008
GlyphClass: 1
Flags: W
LayerCount: 2
Fore
SplineSet
639 1082 m 1,0,-1
 921 1082 l 1,1,-1
 921 0 l 1,2,-1
 639 0 l 1,3,-1
 639 606 l 1,4,-1
 633 607 l 1,5,-1
 371 0 l 1,6,-1
 89 0 l 1,7,-1
 89 1082 l 1,8,-1
 371 1082 l 1,9,-1
 371 476 l 1,10,-1
 377 475 l 1,11,-1
 639 1082 l 1,0,-1
EndSplineSet
EndChar

StartChar: uni043A
Encoding: 1082 1082 486
Width: 1033
GlyphClass: 1
Flags: W
LayerCount: 2
Fore
SplineSet
479 407 m 1,0,-1
 393 407 l 1,1,-1
 393 0 l 1,2,-1
 112 0 l 1,3,-1
 112 1082 l 1,4,-1
 393 1082 l 1,5,-1
 393 669 l 1,6,-1
 461 669 l 1,7,-1
 639 1082 l 1,8,-1
 997 1082 l 1,9,-1
 704 595 l 1,10,-1
 708 590 l 1,11,-1
 709 591 l 1,12,-1
 1022 0 l 1,13,-1
 645 0 l 1,14,-1
 479 407 l 1,0,-1
EndSplineSet
EndChar

StartChar: uni043B
Encoding: 1083 1083 487
Width: 1006
GlyphClass: 1
Flags: W
LayerCount: 2
Fore
SplineSet
921 1082 m 1,0,-1
 921 0 l 1,1,-1
 639 0 l 1,2,-1
 639 861 l 1,3,-1
 451 861 l 1,4,-1
 451 618 l 2,5,6
 451 297 451 297 362.5 148.5 c 128,-1,7
 274 0 274 0 59 0 c 2,8,-1
 19 0 l 1,9,-1
 14 224 l 1,10,-1
 40 224 l 2,11,12
 125 224 125 224 147 302.5 c 128,-1,13
 169 381 169 381 169 618 c 2,14,-1
 169 1082 l 1,15,-1
 921 1082 l 1,0,-1
EndSplineSet
EndChar

StartChar: uni043C
Encoding: 1084 1084 488
Width: 1362
GlyphClass: 1
Flags: W
LayerCount: 2
Fore
SplineSet
668 333 m 1,0,-1
 674 333 l 1,1,-1
 886 1082 l 1,2,-1
 1240 1082 l 1,3,-1
 1240 0 l 1,4,-1
 958 0 l 1,5,-1
 958 584 l 1,6,-1
 952 584 l 1,7,-1
 765 0 l 1,8,-1
 577 0 l 1,9,-1
 398 561 l 1,10,-1
 392 560 l 1,11,-1
 392 0 l 1,12,-1
 110 0 l 1,13,-1
 110 1082 l 1,14,-1
 458 1082 l 1,15,-1
 668 333 l 1,0,-1
EndSplineSet
EndChar

StartChar: uni043D
Encoding: 1085 1085 489
Width: 1008
GlyphClass: 1
Flags: W
LayerCount: 2
Fore
SplineSet
918 0 m 1,0,-1
 635 0 l 1,1,-1
 635 424 l 1,2,-1
 371 424 l 1,3,-1
 371 0 l 1,4,-1
 89 0 l 1,5,-1
 89 1082 l 1,6,-1
 371 1082 l 1,7,-1
 371 643 l 1,8,-1
 635 643 l 1,9,-1
 635 1082 l 1,10,-1
 918 1082 l 1,11,-1
 918 0 l 1,0,-1
EndSplineSet
EndChar

StartChar: uni043F
Encoding: 1087 1087 491
Width: 1008
GlyphClass: 1
Flags: W
LayerCount: 2
Fore
SplineSet
921 0 m 1,0,-1
 638 0 l 1,1,-1
 638 861 l 1,2,-1
 371 861 l 1,3,-1
 371 0 l 1,4,-1
 89 0 l 1,5,-1
 89 1082 l 1,6,-1
 921 1082 l 1,7,-1
 921 0 l 1,0,-1
EndSplineSet
EndChar

StartChar: uni0441
Encoding: 1089 1089 493
Width: 921
GlyphClass: 1
Flags: W
LayerCount: 2
Fore
SplineSet
492 199 m 0,0,1
 552 199 552 199 583 243.5 c 128,-1,2
 614 288 614 288 614 371 c 1,3,-1
 869 371 l 1,4,-1
 872 365 l 1,5,6
 875 196 875 196 766.5 87.5 c 128,-1,7
 658 -21 658 -21 492 -21 c 0,8,9
 280 -21 280 -21 166.5 131.5 c 128,-1,10
 53 284 53 284 53 526 c 2,11,-1
 53 555 l 2,12,13
 53 795 53 795 166.5 948.5 c 128,-1,14
 280 1102 280 1102 491 1102 c 0,15,16
 667 1102 667 1102 771 989.5 c 128,-1,17
 875 877 875 877 872 686 c 1,18,-1
 870 681 l 1,19,-1
 614 681 l 1,20,21
 614 771 614 771 583 826 c 128,-1,22
 552 881 552 881 491 881 c 0,23,24
 403 881 403 881 369 791.5 c 128,-1,25
 335 702 335 702 335 555 c 2,26,-1
 335 526 l 2,27,28
 335 375 335 375 369 287 c 128,-1,29
 403 199 403 199 492 199 c 0,0,1
EndSplineSet
EndChar

StartChar: uni0442
Encoding: 1090 1090 494
Width: 939
GlyphClass: 1
Flags: W
LayerCount: 2
Fore
SplineSet
903 863 m 1,0,-1
 612 863 l 1,1,-1
 612 0 l 1,2,-1
 330 0 l 1,3,-1
 330 863 l 1,4,-1
 43 863 l 1,5,-1
 43 1082 l 1,6,-1
 903 1082 l 1,7,-1
 903 863 l 1,0,-1
EndSplineSet
EndChar

StartChar: uni0444
Encoding: 1092 1092 496
Width: 1544
GlyphClass: 1
Flags: W
LayerCount: 2
Fore
SplineSet
51 535 m 2,0,1
 51 790 51 790 146 946 c 128,-1,2
 241 1102 241 1102 415 1102 c 0,3,4
 480 1102 480 1102 532 1074 c 128,-1,5
 584 1046 584 1046 624 993 c 1,6,-1
 624 1560 l 1,7,-1
 906 1560 l 1,8,-1
 906 991 l 1,9,10
 945 1044 945 1044 997.5 1073 c 128,-1,11
 1050 1102 1050 1102 1117 1102 c 0,12,13
 1291 1102 1291 1102 1387 946.5 c 128,-1,14
 1483 791 1483 791 1483 535 c 2,15,-1
 1483 514 l 2,16,17
 1483 272 1483 272 1387.5 125.5 c 128,-1,18
 1292 -21 1292 -21 1119 -21 c 0,19,20
 1051 -21 1051 -21 998.5 5.5 c 128,-1,21
 946 32 946 32 906 84 c 1,22,-1
 906 -416 l 1,23,-1
 624 -416 l 1,24,-1
 624 83 l 1,25,26
 583 32 583 32 531 5.5 c 128,-1,27
 479 -21 479 -21 413 -21 c 0,28,29
 241 -21 241 -21 146 125.5 c 128,-1,30
 51 272 51 272 51 514 c 2,31,-1
 51 535 l 2,0,1
1201 535 m 2,32,33
 1201 690 1201 690 1163 785.5 c 128,-1,34
 1125 881 1125 881 1044 881 c 0,35,36
 996 881 996 881 961.5 857 c 128,-1,37
 927 833 927 833 906 789 c 1,38,-1
 906 276 l 1,39,40
 927 238 927 238 961.5 218.5 c 128,-1,41
 996 199 996 199 1046 199 c 0,42,43
 1128 199 1128 199 1164.5 283 c 128,-1,44
 1201 367 1201 367 1201 514 c 2,45,-1
 1201 535 l 2,32,33
331 514 m 2,46,47
 331 366 331 366 367 282.5 c 128,-1,48
 403 199 403 199 486 199 c 0,49,50
 533 199 533 199 567 218 c 128,-1,51
 601 237 601 237 624 274 c 1,52,-1
 624 794 l 1,53,54
 601 836 601 836 567 858.5 c 128,-1,55
 533 881 533 881 487 881 c 0,56,57
 405 881 405 881 368 785.5 c 128,-1,58
 331 690 331 690 331 535 c 2,59,-1
 331 514 l 2,46,47
EndSplineSet
EndChar

StartChar: uni0446
Encoding: 1094 1094 498
Width: 1100
GlyphClass: 1
Flags: W
LayerCount: 2
Fore
SplineSet
89 1082 m 1,0,-1
 371 1082 l 1,1,-1
 371 220 l 1,2,-1
 638 220 l 1,3,-1
 638 1082 l 1,4,-1
 921 1082 l 1,5,-1
 921 220 l 1,6,-1
 1065 220 l 1,7,-1
 1065 -357 l 1,8,-1
 784 -357 l 1,9,-1
 784 0 l 1,10,-1
 89 0 l 1,11,-1
 89 1082 l 1,0,-1
EndSplineSet
EndChar

StartChar: uni0447
Encoding: 1095 1095 499
Width: 1004
GlyphClass: 1
Flags: W
LayerCount: 2
Fore
SplineSet
916 0 m 1,0,-1
 633 0 l 1,1,-1
 633 346 l 1,2,3
 606 340 606 340 580 337 c 128,-1,4
 554 334 554 334 532 334 c 0,5,6
 317 334 317 334 202 434.5 c 128,-1,7
 87 535 87 535 87 749 c 2,8,-1
 87 1082 l 1,9,-1
 368 1082 l 1,10,-1
 368 749 l 2,11,12
 368 636 368 636 404.5 595 c 128,-1,13
 441 554 441 554 532 554 c 0,14,15
 557 554 557 554 582 557.5 c 128,-1,16
 607 561 607 561 633 568 c 1,17,-1
 633 1082 l 1,18,-1
 916 1082 l 1,19,-1
 916 0 l 1,0,-1
EndSplineSet
EndChar

StartChar: uni0448
Encoding: 1096 1096 500
Width: 1481
GlyphClass: 1
Flags: W
LayerCount: 2
Fore
SplineSet
371 1082 m 1,0,-1
 371 220 l 1,1,-1
 591 220 l 1,2,-1
 591 1082 l 1,3,-1
 874 1082 l 1,4,-1
 874 220 l 1,5,-1
 1095 220 l 1,6,-1
 1095 1082 l 1,7,-1
 1376 1082 l 1,8,-1
 1376 0 l 1,9,-1
 89 0 l 1,10,-1
 89 1082 l 1,11,-1
 371 1082 l 1,0,-1
EndSplineSet
EndChar

StartChar: uni0449
Encoding: 1097 1097 501
Width: 1645
GlyphClass: 1
Flags: W
LayerCount: 2
Fore
SplineSet
371 1082 m 1,0,-1
 371 220 l 1,1,-1
 591 220 l 1,2,-1
 591 1082 l 1,3,-1
 874 1082 l 1,4,-1
 874 220 l 1,5,-1
 1095 220 l 1,6,-1
 1095 1082 l 1,7,-1
 1376 1082 l 1,8,-1
 1376 186 l 1,9,-1
 1593 186 l 1,10,-1
 1593 -321 l 1,11,-1
 1302 -321 l 1,12,-1
 1302 0 l 1,13,-1
 89 0 l 1,14,-1
 89 1082 l 1,15,-1
 371 1082 l 1,0,-1
EndSplineSet
EndChar

StartChar: uni044A
Encoding: 1098 1098 502
Width: 1136
GlyphClass: 1
Flags: W
LayerCount: 2
Fore
SplineSet
591 733 m 1,0,-1
 746 733 l 2,1,2
 939 733 939 733 1051 631.5 c 128,-1,3
 1163 530 1163 530 1163 367 c 0,4,5
 1163 202 1163 202 1051 101 c 128,-1,6
 939 0 939 0 746 0 c 2,7,-1
 308 0 l 1,8,-1
 308 861 l 1,9,-1
 15 861 l 1,10,-1
 15 1082 l 1,11,-1
 591 1082 l 1,12,-1
 591 733 l 1,0,-1
591 513 m 1,13,-1
 591 218 l 1,14,-1
 746 218 l 2,15,16
 814 218 814 218 848 259.5 c 128,-1,17
 882 301 882 301 882 367 c 0,18,19
 882 430 882 430 848 471.5 c 128,-1,20
 814 513 814 513 746 513 c 2,21,-1
 591 513 l 1,13,-1
EndSplineSet
EndChar

StartChar: uni044B
Encoding: 1099 1099 503
Width: 1505
GlyphClass: 1
Flags: W
LayerCount: 2
Fore
SplineSet
413 733 m 1,0,-1
 568 733 l 2,1,2
 761 733 761 733 873 631.5 c 128,-1,3
 985 530 985 530 985 367 c 0,4,5
 985 202 985 202 873 101 c 128,-1,6
 761 0 761 0 568 0 c 2,7,-1
 130 0 l 1,8,-1
 130 1082 l 1,9,-1
 413 1082 l 1,10,-1
 413 733 l 1,0,-1
1479 0 m 1,11,-1
 1196 0 l 1,12,-1
 1196 1082 l 1,13,-1
 1479 1082 l 1,14,-1
 1479 0 l 1,11,-1
413 513 m 1,15,-1
 413 218 l 1,16,-1
 568 218 l 2,17,18
 636 218 636 218 670 259.5 c 128,-1,19
 704 301 704 301 704 367 c 0,20,21
 704 430 704 430 670 471.5 c 128,-1,22
 636 513 636 513 568 513 c 2,23,-1
 413 513 l 1,15,-1
EndSplineSet
EndChar

StartChar: uni044C
Encoding: 1100 1100 504
Width: 1005
GlyphClass: 1
Flags: W
LayerCount: 2
Fore
SplineSet
393 733 m 1,0,-1
 548 733 l 2,1,2
 741 733 741 733 853 631.5 c 128,-1,3
 965 530 965 530 965 367 c 0,4,5
 965 202 965 202 853 101 c 128,-1,6
 741 0 741 0 548 0 c 2,7,-1
 110 0 l 1,8,-1
 110 1082 l 1,9,-1
 393 1082 l 1,10,-1
 393 733 l 1,0,-1
393 513 m 1,11,-1
 393 218 l 1,12,-1
 548 218 l 2,13,14
 616 218 616 218 650 259.5 c 128,-1,15
 684 301 684 301 684 367 c 0,16,17
 684 430 684 430 650 471.5 c 128,-1,18
 616 513 616 513 548 513 c 2,19,-1
 393 513 l 1,11,-1
EndSplineSet
EndChar

StartChar: uni044D
Encoding: 1101 1101 505
Width: 921
GlyphClass: 1
Flags: W
LayerCount: 2
Fore
SplineSet
437 881 m 0,0,1
 376 881 376 881 345 836 c 128,-1,2
 314 791 314 791 314 710 c 1,3,-1
 59 710 l 1,4,-1
 56 716 l 1,5,6
 52 883 52 883 161 992.5 c 128,-1,7
 270 1102 270 1102 437 1102 c 0,8,9
 646 1102 646 1102 761 948.5 c 128,-1,10
 876 795 876 795 876 555 c 2,11,-1
 876 526 l 2,12,13
 876 285 876 285 761.5 132 c 128,-1,14
 647 -21 647 -21 439 -21 c 0,15,16
 262 -21 262 -21 157 91 c 128,-1,17
 52 203 52 203 56 395 c 1,18,-1
 58 400 l 1,19,-1
 314 400 l 1,20,21
 314 308 314 308 345 253.5 c 128,-1,22
 376 199 376 199 439 199 c 0,23,24
 515 199 515 199 550.5 269.5 c 128,-1,25
 586 340 586 340 592 461 c 1,26,-1
 379 461 l 1,27,-1
 379 627 l 1,28,-1
 592 627 l 1,29,30
 585 745 585 745 549.5 813 c 128,-1,31
 514 881 514 881 437 881 c 0,0,1
EndSplineSet
EndChar

StartChar: uni044E
Encoding: 1102 1102 506
Width: 1442
GlyphClass: 1
Flags: W
LayerCount: 2
Fore
SplineSet
397 660 m 1,0,-1
 572 660 l 1,1,2
 596 860 596 860 709.5 981 c 128,-1,3
 823 1102 823 1102 1009 1102 c 0,4,5
 1219 1102 1219 1102 1337 948.5 c 128,-1,6
 1455 795 1455 795 1455 551 c 2,7,-1
 1455 528 l 2,8,9
 1455 284 1455 284 1337.5 131.5 c 128,-1,10
 1220 -21 1220 -21 1011 -21 c 0,11,12
 819 -21 819 -21 704.5 104 c 128,-1,13
 590 229 590 229 569 438 c 1,14,-1
 397 438 l 1,15,-1
 397 0 l 1,16,-1
 114 0 l 1,17,-1
 114 1082 l 1,18,-1
 397 1082 l 1,19,-1
 397 660 l 1,0,-1
846 528 m 2,20,21
 846 377 846 377 883.5 288 c 128,-1,22
 921 199 921 199 1011 199 c 0,23,24
 1097 199 1097 199 1135 288 c 128,-1,25
 1173 377 1173 377 1173 528 c 2,26,-1
 1173 551 l 2,27,28
 1173 700 1173 700 1135 790.5 c 128,-1,29
 1097 881 1097 881 1009 881 c 256,30,31
 921 881 921 881 883.5 790 c 128,-1,32
 846 699 846 699 846 551 c 2,33,-1
 846 528 l 2,20,21
EndSplineSet
EndChar

StartChar: uni044F
Encoding: 1103 1103 507
Width: 1010
GlyphClass: 1
Flags: W
LayerCount: 2
Fore
SplineSet
897 1082 m 1,0,-1
 897 0 l 1,1,-1
 617 0 l 1,2,-1
 617 379 l 1,3,-1
 506 379 l 1,4,-1
 323 0 l 1,5,-1
 40 0 l 1,6,-1
 247 429 l 1,7,8
 160 473 160 473 113 549.5 c 128,-1,9
 66 626 66 626 66 722 c 0,10,11
 66 880 66 880 178 981 c 128,-1,12
 290 1082 290 1082 478 1082 c 2,13,-1
 897 1082 l 1,0,-1
347 713 m 0,14,15
 347 655 347 655 381.5 612 c 128,-1,16
 416 569 416 569 479 569 c 2,17,-1
 617 569 l 1,18,-1
 617 863 l 1,19,-1
 478 863 l 2,20,21
 416 863 416 863 381.5 817.5 c 128,-1,22
 347 772 347 772 347 713 c 0,14,15
EndSplineSet
EndChar

StartChar: uni0452
Encoding: 1106 1106 510
Width: 1009
GlyphClass: 1
Flags: W
LayerCount: 2
Fore
SplineSet
458 1209 m 1,0,-1
 368 1209 l 1,1,-1
 368 951 l 1,2,3
 411 1023 411 1023 471.5 1062.5 c 128,-1,4
 532 1102 532 1102 605 1102 c 0,5,6
 750 1102 750 1102 834 988 c 128,-1,7
 918 874 918 874 918 637 c 2,8,-1
 918 467 l 1,9,-1
 919 467 l 1,10,-1
 919 -37 l 2,11,12
 919 -229 919 -229 828 -333 c 128,-1,13
 737 -437 737 -437 576 -437 c 0,14,15
 540 -437 540 -437 510 -433 c 128,-1,16
 480 -429 480 -429 447 -420 c 1,17,-1
 459 -204 l 1,18,19
 481 -210 481 -210 500 -213.5 c 128,-1,20
 519 -217 519 -217 543 -217 c 0,21,22
 588 -217 588 -217 612.5 -170.5 c 128,-1,23
 637 -124 637 -124 637 -37 c 2,24,-1
 637 0 l 1,25,-1
 636 0 l 1,26,-1
 636 639 l 2,27,28
 636 773 636 773 606.5 826.5 c 128,-1,29
 577 880 577 880 515 880 c 0,30,31
 466 880 466 880 429.5 860.5 c 128,-1,32
 393 841 393 841 368 805 c 1,33,-1
 368 0 l 1,34,-1
 87 0 l 1,35,-1
 87 1209 l 1,36,-1
 -48 1209 l 1,37,-1
 -48 1386 l 1,38,-1
 87 1386 l 1,39,-1
 87 1560 l 1,40,-1
 368 1560 l 1,41,-1
 368 1386 l 1,42,-1
 458 1386 l 1,43,-1
 458 1209 l 1,0,-1
EndSplineSet
EndChar

StartChar: uni0454
Encoding: 1108 1108 512
Width: 922
GlyphClass: 1
Flags: W
LayerCount: 2
Fore
SplineSet
492 199 m 0,0,1
 552 199 552 199 583 243.5 c 128,-1,2
 614 288 614 288 614 371 c 1,3,-1
 869 371 l 1,4,-1
 872 365 l 1,5,6
 875 196 875 196 766.5 87.5 c 128,-1,7
 658 -21 658 -21 492 -21 c 0,8,9
 280 -21 280 -21 166.5 131.5 c 128,-1,10
 53 284 53 284 53 526 c 2,11,-1
 53 555 l 2,12,13
 53 795 53 795 166.5 948.5 c 128,-1,14
 280 1102 280 1102 491 1102 c 0,15,16
 667 1102 667 1102 771 989.5 c 128,-1,17
 875 877 875 877 872 686 c 1,18,-1
 870 681 l 1,19,-1
 614 681 l 1,20,21
 614 771 614 771 583 826 c 128,-1,22
 552 881 552 881 491 881 c 0,23,24
 412 881 412 881 376.5 808 c 128,-1,25
 341 735 341 735 336 613 c 1,26,-1
 564 613 l 1,27,-1
 564 446 l 1,28,-1
 337 446 l 1,29,30
 344 330 344 330 380 264.5 c 128,-1,31
 416 199 416 199 492 199 c 0,0,1
EndSplineSet
EndChar

StartChar: uni0459
Encoding: 1113 1113 517
Width: 1535
GlyphClass: 1
Flags: W
LayerCount: 2
Fore
SplineSet
922 1082 m 1,0,-1
 922 733 l 1,1,-1
 1076 733 l 2,2,3
 1270 733 1270 733 1382 632 c 128,-1,4
 1494 531 1494 531 1494 367 c 0,5,6
 1494 202 1494 202 1382 101 c 128,-1,7
 1270 0 1270 0 1076 0 c 2,8,-1
 639 0 l 1,9,-1
 639 861 l 1,10,-1
 475 861 l 1,11,-1
 475 618 l 2,12,13
 475 301 475 301 378.5 150.5 c 128,-1,14
 282 0 282 0 65 0 c 2,15,-1
 25 0 l 1,16,-1
 21 221 l 1,17,-1
 46 221 l 2,18,19
 120 221 120 221 156.5 317 c 128,-1,20
 193 413 193 413 193 618 c 2,21,-1
 193 1082 l 1,22,-1
 922 1082 l 1,0,-1
922 513 m 1,23,-1
 922 218 l 1,24,-1
 1076 218 l 2,25,26
 1145 218 1145 218 1178.5 260 c 128,-1,27
 1212 302 1212 302 1212 369 c 0,28,29
 1212 432 1212 432 1178.5 472.5 c 128,-1,30
 1145 513 1145 513 1076 513 c 2,31,-1
 922 513 l 1,23,-1
EndSplineSet
EndChar

StartChar: uni045A
Encoding: 1114 1114 518
Width: 1532
GlyphClass: 1
Flags: W
LayerCount: 2
Fore
SplineSet
371 660 m 1,0,-1
 635 660 l 1,1,-1
 635 1082 l 1,2,-1
 918 1082 l 1,3,-1
 918 733 l 1,4,-1
 1073 733 l 2,5,6
 1266 733 1266 733 1378 631.5 c 128,-1,7
 1490 530 1490 530 1490 367 c 0,8,9
 1490 202 1490 202 1378 101 c 128,-1,10
 1266 0 1266 0 1073 0 c 2,11,-1
 635 0 l 1,12,-1
 635 441 l 1,13,-1
 371 441 l 1,14,-1
 371 0 l 1,15,-1
 89 0 l 1,16,-1
 89 1082 l 1,17,-1
 371 1082 l 1,18,-1
 371 660 l 1,0,-1
918 513 m 1,19,-1
 918 218 l 1,20,-1
 1073 218 l 2,21,22
 1142 218 1142 218 1175.5 260 c 128,-1,23
 1209 302 1209 302 1209 369 c 0,24,25
 1209 432 1209 432 1175.5 472.5 c 128,-1,26
 1142 513 1142 513 1073 513 c 2,27,-1
 918 513 l 1,19,-1
EndSplineSet
EndChar

StartChar: uni045B
Encoding: 1115 1115 519
Width: 1009
GlyphClass: 1
Flags: W
LayerCount: 2
Fore
SplineSet
606 1218 m 1,0,-1
 368 1218 l 1,1,-1
 368 951 l 1,2,3
 411 1023 411 1023 471.5 1062.5 c 128,-1,4
 532 1102 532 1102 605 1102 c 0,5,6
 750 1102 750 1102 834 988 c 128,-1,7
 918 874 918 874 918 637 c 2,8,-1
 918 0 l 1,9,-1
 636 0 l 1,10,-1
 636 639 l 2,11,12
 636 773 636 773 606.5 826.5 c 128,-1,13
 577 880 577 880 515 880 c 0,14,15
 466 880 466 880 429.5 860.5 c 128,-1,16
 393 841 393 841 368 805 c 1,17,-1
 368 0 l 1,18,-1
 87 0 l 1,19,-1
 87 1218 l 1,20,-1
 18 1218 l 1,21,-1
 18 1390 l 1,22,-1
 87 1390 l 1,23,-1
 87 1560 l 1,24,-1
 368 1560 l 1,25,-1
 368 1390 l 1,26,-1
 606 1390 l 1,27,-1
 606 1218 l 1,0,-1
EndSplineSet
EndChar

StartChar: uni045F
Encoding: 1119 1119 523
Width: 1008
GlyphClass: 1
Flags: W
LayerCount: 2
Fore
SplineSet
371 1082 m 1,0,-1
 371 220 l 1,1,-1
 638 220 l 1,2,-1
 638 1082 l 1,3,-1
 921 1082 l 1,4,-1
 921 0 l 1,5,-1
 645 0 l 1,6,-1
 645 -358 l 1,7,-1
 363 -358 l 1,8,-1
 363 0 l 1,9,-1
 89 0 l 1,10,-1
 89 1082 l 1,11,-1
 371 1082 l 1,0,-1
EndSplineSet
EndChar

StartChar: uni0460
Encoding: 1120 1120 524
Width: 1708
GlyphClass: 1
Flags: W
LayerCount: 2
Fore
SplineSet
952 1433 m 1,0,1
 1001 1454 1001 1454 1057 1465.5 c 128,-1,2
 1113 1477 1113 1477 1173 1477 c 0,3,4
 1370 1477 1370 1477 1497.5 1309 c 128,-1,5
 1625 1141 1625 1141 1625 877 c 2,6,-1
 1625 579 l 2,7,8
 1625 313 1625 313 1493.5 146 c 128,-1,9
 1362 -21 1362 -21 1156 -21 c 0,10,11
 1061 -21 1061 -21 987 -0.5 c 128,-1,12
 913 20 913 20 856 56 c 1,13,14
 798 20 798 20 723.5 -0.5 c 128,-1,15
 649 -21 649 -21 557 -21 c 0,16,17
 350 -21 350 -21 218.5 146 c 128,-1,18
 87 313 87 313 87 579 c 2,19,-1
 87 877 l 2,20,21
 87 1142 87 1142 214.5 1309.5 c 128,-1,22
 342 1477 342 1477 541 1477 c 0,23,24
 599 1477 599 1477 654.5 1465.5 c 128,-1,25
 710 1454 710 1454 761 1433 c 1,26,-1
 704 1226 l 1,27,28
 672 1240 672 1240 633 1248 c 128,-1,29
 594 1256 594 1256 549 1256 c 0,30,31
 467 1256 467 1256 418 1151 c 128,-1,32
 369 1046 369 1046 369 879 c 2,33,-1
 369 579 l 2,34,35
 369 409 369 409 419.5 304 c 128,-1,36
 470 199 470 199 557 199 c 0,37,38
 621 199 621 199 655.5 218.5 c 128,-1,39
 690 238 690 238 715 271 c 1,40,-1
 715 557 l 1,41,-1
 564 557 l 1,42,-1
 564 752 l 1,43,-1
 1148 752 l 1,44,-1
 1148 557 l 1,45,-1
 998 557 l 1,46,-1
 998 271 l 1,47,48
 1020 238 1020 238 1054.5 218.5 c 128,-1,49
 1089 199 1089 199 1156 199 c 0,50,51
 1241 199 1241 199 1292 304.5 c 128,-1,52
 1343 410 1343 410 1343 579 c 2,53,-1
 1343 879 l 2,54,55
 1343 1045 1343 1045 1293.5 1150.5 c 128,-1,56
 1244 1256 1244 1256 1164 1256 c 0,57,58
 1118 1256 1118 1256 1079 1248 c 128,-1,59
 1040 1240 1040 1240 1009 1226 c 1,60,-1
 952 1433 l 1,0,1
EndSplineSet
EndChar

StartChar: uni0461
Encoding: 1121 1121 525
Width: 1284
GlyphClass: 1
Flags: W
LayerCount: 2
Fore
SplineSet
444 400 m 1,0,-1
 468 257 l 1,1,-1
 474 257 l 1,2,-1
 510 400 l 1,3,-1
 567 690 l 1,4,-1
 472 1082 l 1,5,-1
 752 1082 l 1,6,-1
 858 400 l 1,7,-1
 866 355 l 1,8,-1
 872 355 l 1,9,10
 926 501 926 501 946 686 c 128,-1,11
 966 871 966 871 961 1082 c 1,12,-1
 1256 1082 l 1,13,14
 1232 803 1232 803 1167.5 536 c 128,-1,15
 1103 269 1103 269 1003 0 c 1,16,-1
 736 0 l 1,17,-1
 668 278 l 1,18,-1
 662 278 l 1,19,-1
 581 0 l 1,20,-1
 322 0 l 1,21,-1
 13 1082 l 1,22,-1
 310 1082 l 1,23,-1
 444 400 l 1,0,-1
EndSplineSet
EndChar

StartChar: uni0462
Encoding: 1122 1122 526
Width: 1120
GlyphClass: 1
Flags: W
LayerCount: 2
Fore
SplineSet
604 1093 m 1,0,-1
 393 1093 l 1,1,-1
 393 942 l 1,2,-1
 585 942 l 2,3,4
 804 942 804 942 936.5 810 c 128,-1,5
 1069 678 1069 678 1069 472 c 0,6,7
 1069 264 1069 264 937 132 c 128,-1,8
 805 0 805 0 585 0 c 2,9,-1
 110 0 l 1,10,-1
 110 1093 l 1,11,-1
 16 1093 l 1,12,-1
 16 1265 l 1,13,-1
 110 1265 l 1,14,-1
 110 1456 l 1,15,-1
 393 1456 l 1,16,-1
 393 1265 l 1,17,-1
 604 1265 l 1,18,-1
 604 1093 l 1,0,-1
393 721 m 1,19,-1
 393 220 l 1,20,-1
 585 220 l 2,21,22
 680 220 680 220 733.5 293.5 c 128,-1,23
 787 367 787 367 787 474 c 0,24,25
 787 576 787 576 733.5 648.5 c 128,-1,26
 680 721 680 721 585 721 c 2,27,-1
 393 721 l 1,19,-1
EndSplineSet
EndChar

StartChar: uni0463
Encoding: 1123 1123 527
Width: 1005
GlyphClass: 1
Flags: W
LayerCount: 2
Fore
SplineSet
597 1112 m 1,0,-1
 393 1112 l 1,1,-1
 393 733 l 1,2,-1
 548 733 l 2,3,4
 741 733 741 733 853 631.5 c 128,-1,5
 965 530 965 530 965 367 c 0,6,7
 965 202 965 202 853 101 c 128,-1,8
 741 0 741 0 548 0 c 2,9,-1
 110 0 l 1,10,-1
 110 1112 l 1,11,-1
 1 1112 l 1,12,-1
 1 1284 l 1,13,-1
 110 1284 l 1,14,-1
 110 1562 l 1,15,-1
 393 1562 l 1,16,-1
 393 1284 l 1,17,-1
 597 1284 l 1,18,-1
 597 1112 l 1,0,-1
393 513 m 1,19,-1
 393 218 l 1,20,-1
 548 218 l 2,21,22
 616 218 616 218 650 259.5 c 128,-1,23
 684 301 684 301 684 367 c 0,24,25
 684 430 684 430 650 471.5 c 128,-1,26
 616 513 616 513 548 513 c 2,27,-1
 393 513 l 1,19,-1
EndSplineSet
EndChar

StartChar: uni0464
Encoding: 1124 1124 528
Width: 1585
GlyphClass: 1
Flags: W
LayerCount: 2
Fore
SplineSet
1072 615 m 1,0,-1
 834 615 l 1,1,-1
 834 512 l 2,2,3
 834 353 834 353 891 276.5 c 128,-1,4
 948 200 948 200 1063 200 c 0,5,6
 1168 200 1168 200 1214 255.5 c 128,-1,7
 1260 311 1260 311 1260 453 c 1,8,-1
 1533 453 l 1,9,-1
 1535 447 l 1,10,11
 1539 213 1539 213 1415.5 96.5 c 128,-1,12
 1292 -20 1292 -20 1063 -20 c 0,13,14
 828 -20 828 -20 690 118.5 c 128,-1,15
 552 257 552 257 552 512 c 2,16,-1
 552 615 l 1,17,-1
 410 615 l 1,18,-1
 410 0 l 1,19,-1
 129 0 l 1,20,-1
 129 1456 l 1,21,-1
 410 1456 l 1,22,-1
 410 836 l 1,23,-1
 552 836 l 1,24,-1
 552 944 l 2,25,26
 552 1198 552 1198 685.5 1338 c 128,-1,27
 819 1478 819 1478 1046 1478 c 0,28,29
 1285 1478 1285 1478 1413 1362 c 128,-1,30
 1541 1246 1541 1246 1537 1011 c 1,31,-1
 1535 1005 l 1,32,-1
 1261 1005 l 1,33,34
 1261 1145 1261 1145 1211.5 1201 c 128,-1,35
 1162 1257 1162 1257 1046 1257 c 0,36,37
 940 1257 940 1257 887 1180.5 c 128,-1,38
 834 1104 834 1104 834 946 c 2,39,-1
 834 836 l 1,40,-1
 1072 836 l 1,41,-1
 1072 615 l 1,0,-1
EndSplineSet
EndChar

StartChar: uni0465
Encoding: 1125 1125 529
Width: 1347
GlyphClass: 1
Flags: W
LayerCount: 2
Fore
SplineSet
985 468 m 1,0,-1
 762 468 l 1,1,2
 767 342 767 342 802.5 270.5 c 128,-1,3
 838 199 838 199 918 199 c 0,4,5
 978 199 978 199 1009 243.5 c 128,-1,6
 1040 288 1040 288 1040 371 c 1,7,-1
 1295 371 l 1,8,-1
 1298 365 l 1,9,10
 1301 196 1301 196 1192.5 87.5 c 128,-1,11
 1084 -21 1084 -21 918 -21 c 0,12,13
 719 -21 719 -21 606.5 113.5 c 128,-1,14
 494 248 494 248 481 468 c 1,15,-1
 395 468 l 1,16,-1
 395 0 l 1,17,-1
 112 0 l 1,18,-1
 112 1082 l 1,19,-1
 395 1082 l 1,20,-1
 395 640 l 1,21,-1
 483 640 l 1,22,23
 502 847 502 847 614 974.5 c 128,-1,24
 726 1102 726 1102 917 1102 c 0,25,26
 1093 1102 1093 1102 1197 989.5 c 128,-1,27
 1301 877 1301 877 1298 686 c 1,28,-1
 1296 681 l 1,29,-1
 1040 681 l 1,30,31
 1040 771 1040 771 1009 826 c 128,-1,32
 978 881 978 881 917 881 c 0,33,34
 843 881 843 881 807.5 816 c 128,-1,35
 772 751 772 751 764 640 c 1,36,-1
 985 640 l 1,37,-1
 985 468 l 1,0,-1
EndSplineSet
EndChar

StartChar: uni0466
Encoding: 1126 1126 530
Width: 1194
GlyphClass: 1
Flags: W
LayerCount: 2
Fore
SplineSet
779 393 m 1,0,-1
 712 393 l 1,1,-1
 712 0 l 1,2,-1
 480 0 l 1,3,-1
 480 393 l 1,4,-1
 422 393 l 1,5,-1
 312 0 l 1,6,-1
 18 0 l 1,7,-1
 455 1456 l 1,8,-1
 748 1456 l 1,9,-1
 1185 0 l 1,10,-1
 889 0 l 1,11,-1
 779 393 l 1,0,-1
476 586 m 1,12,-1
 725 586 l 1,13,-1
 604 1021 l 1,14,-1
 598 1021 l 1,15,-1
 476 586 l 1,12,-1
EndSplineSet
EndChar

StartChar: uni0467
Encoding: 1127 1127 531
Width: 1012
GlyphClass: 1
Flags: W
LayerCount: 2
Fore
SplineSet
629 279 m 1,0,-1
 580 279 l 1,1,-1
 580 0 l 1,2,-1
 407 0 l 1,3,-1
 407 279 l 1,4,-1
 368 279 l 1,5,-1
 296 0 l 1,6,-1
 9 0 l 1,7,-1
 352 1082 l 1,8,-1
 647 1082 l 1,9,-1
 989 0 l 1,10,-1
 703 0 l 1,11,-1
 629 279 l 1,0,-1
414 456 m 1,12,-1
 583 456 l 1,13,-1
 524 680 l 1,14,-1
 502 784 l 1,15,-1
 496 784 l 1,16,-1
 473 680 l 1,17,-1
 414 456 l 1,12,-1
EndSplineSet
EndChar

StartChar: uni0468
Encoding: 1128 1128 532
Width: 1689
GlyphClass: 1
Flags: W
LayerCount: 2
Fore
SplineSet
428 586 m 1,0,-1
 723 586 l 1,1,-1
 984 1456 l 1,2,-1
 1277 1456 l 1,3,-1
 1714 0 l 1,4,-1
 1418 0 l 1,5,-1
 1308 393 l 1,6,-1
 1241 393 l 1,7,-1
 1241 0 l 1,8,-1
 1009 0 l 1,9,-1
 1009 393 l 1,10,-1
 951 393 l 1,11,-1
 841 0 l 1,12,-1
 547 0 l 1,13,-1
 664 392 l 1,14,-1
 428 392 l 1,15,-1
 428 0 l 1,16,-1
 147 0 l 1,17,-1
 147 1456 l 1,18,-1
 428 1456 l 1,19,-1
 428 586 l 1,0,-1
1005 586 m 1,20,-1
 1254 586 l 1,21,-1
 1133 1021 l 1,22,-1
 1127 1021 l 1,23,-1
 1005 586 l 1,20,-1
EndSplineSet
EndChar

StartChar: uni0469
Encoding: 1129 1129 533
Width: 1441
GlyphClass: 1
Flags: W
LayerCount: 2
Fore
SplineSet
430 456 m 1,0,-1
 600 456 l 1,1,-1
 799 1082 l 1,2,-1
 1094 1082 l 1,3,-1
 1436 0 l 1,4,-1
 1150 0 l 1,5,-1
 1076 279 l 1,6,-1
 1027 279 l 1,7,-1
 1027 0 l 1,8,-1
 854 0 l 1,9,-1
 854 279 l 1,10,-1
 815 279 l 1,11,-1
 743 0 l 1,12,-1
 456 0 l 1,13,-1
 545 280 l 1,14,-1
 430 280 l 1,15,-1
 430 0 l 1,16,-1
 147 0 l 1,17,-1
 147 1082 l 1,18,-1
 430 1082 l 1,19,-1
 430 456 l 1,0,-1
861 456 m 1,20,-1
 1030 456 l 1,21,-1
 971 680 l 1,22,-1
 949 784 l 1,23,-1
 943 784 l 1,24,-1
 920 680 l 1,25,-1
 861 456 l 1,20,-1
EndSplineSet
EndChar

StartChar: uni046A
Encoding: 1130 1130 534
Width: 1566
GlyphClass: 1
Flags: W
LayerCount: 2
Fore
SplineSet
1036 796 m 1,0,1
 1249 786 1249 786 1359.5 678.5 c 128,-1,2
 1470 571 1470 571 1470 343 c 2,3,-1
 1470 0 l 1,4,-1
 1189 0 l 1,5,-1
 1189 343 l 2,6,7
 1189 472 1189 472 1142 523 c 128,-1,8
 1095 574 1095 574 993 574 c 2,9,-1
 937 574 l 1,10,-1
 937 0 l 1,11,-1
 655 0 l 1,12,-1
 655 574 l 1,13,-1
 572 574 l 2,14,15
 469 574 469 574 423 523 c 128,-1,16
 377 472 377 472 377 343 c 2,17,-1
 377 0 l 1,18,-1
 95 0 l 1,19,-1
 95 343 l 2,20,21
 95 580 95 580 213.5 687 c 128,-1,22
 332 794 332 794 563 797 c 1,23,-1
 235 1456 l 1,24,-1
 1364 1456 l 1,25,-1
 1036 796 l 1,0,1
797 879 m 1,26,-1
 803 879 l 1,27,-1
 958 1232 l 1,28,-1
 641 1232 l 1,29,-1
 797 879 l 1,26,-1
EndSplineSet
EndChar

StartChar: uni046B
Encoding: 1131 1131 535
Width: 1311
GlyphClass: 1
Flags: W
LayerCount: 2
Fore
SplineSet
91 0 m 1,0,-1
 91 186 l 2,1,2
 91 387 91 387 177.5 488 c 128,-1,3
 264 589 264 589 432 607 c 1,4,-1
 192 1082 l 1,5,-1
 1134 1082 l 1,6,-1
 893 605 l 1,7,8
 1052 584 1052 584 1136 483 c 128,-1,9
 1220 382 1220 382 1220 186 c 2,10,-1
 1220 0 l 1,11,-1
 938 0 l 1,12,-1
 938 186 l 2,13,14
 938 306 938 306 905.5 352.5 c 128,-1,15
 873 399 873 399 806 393 c 1,16,-1
 800 391 l 1,17,-1
 800 0 l 1,18,-1
 519 0 l 1,19,-1
 519 402 l 1,20,-1
 512 402 l 2,21,22
 438 402 438 402 405.5 354.5 c 128,-1,23
 373 307 373 307 373 186 c 2,24,-1
 373 0 l 1,25,-1
 91 0 l 1,0,-1
659 668 m 1,26,-1
 665 668 l 1,27,-1
 758 901 l 1,28,-1
 567 901 l 1,29,-1
 659 668 l 1,26,-1
EndSplineSet
EndChar

StartChar: uni046C
Encoding: 1132 1132 536
Width: 2091
GlyphClass: 1
Flags: W
LayerCount: 2
Fore
SplineSet
1144 575 m 1,0,-1
 296 575 l 1,1,-1
 296 798 l 1,2,-1
 1144 798 l 1,3,-1
 1144 575 l 1,0,-1
409 0 m 1,4,-1
 128 0 l 1,5,-1
 128 1456 l 1,6,-1
 409 1456 l 1,7,-1
 409 0 l 1,4,-1
1603 796 m 1,8,9
 1816 786 1816 786 1926.5 678.5 c 128,-1,10
 2037 571 2037 571 2037 343 c 2,11,-1
 2037 0 l 1,12,-1
 1756 0 l 1,13,-1
 1756 343 l 2,14,15
 1756 472 1756 472 1709 523 c 128,-1,16
 1662 574 1662 574 1560 574 c 2,17,-1
 1504 574 l 1,18,-1
 1504 0 l 1,19,-1
 1222 0 l 1,20,-1
 1222 574 l 1,21,-1
 1139 574 l 2,22,23
 1036 574 1036 574 990 523 c 128,-1,24
 944 472 944 472 944 343 c 2,25,-1
 944 0 l 1,26,-1
 662 0 l 1,27,-1
 662 343 l 2,28,29
 662 580 662 580 780.5 687 c 128,-1,30
 899 794 899 794 1130 797 c 1,31,-1
 802 1456 l 1,32,-1
 1931 1456 l 1,33,-1
 1603 796 l 1,8,9
1364 879 m 1,34,-1
 1370 879 l 1,35,-1
 1525 1232 l 1,36,-1
 1208 1232 l 1,37,-1
 1364 879 l 1,34,-1
EndSplineSet
EndChar

StartChar: uni046D
Encoding: 1133 1133 537
Width: 1812
GlyphClass: 1
Flags: W
LayerCount: 2
Fore
SplineSet
1077 410 m 1,0,-1
 207 410 l 1,1,-1
 207 612 l 1,2,-1
 1077 612 l 1,3,-1
 1077 410 l 1,0,-1
397 0 m 1,4,-1
 114 0 l 1,5,-1
 114 1082 l 1,6,-1
 397 1082 l 1,7,-1
 397 0 l 1,4,-1
597 0 m 1,8,-1
 597 186 l 2,9,10
 597 387 597 387 683.5 488 c 128,-1,11
 770 589 770 589 938 607 c 1,12,-1
 698 1082 l 1,13,-1
 1640 1082 l 1,14,-1
 1399 605 l 1,15,16
 1558 584 1558 584 1642 483 c 128,-1,17
 1726 382 1726 382 1726 186 c 2,18,-1
 1726 0 l 1,19,-1
 1444 0 l 1,20,-1
 1444 186 l 2,21,22
 1444 306 1444 306 1411.5 352.5 c 128,-1,23
 1379 399 1379 399 1312 393 c 1,24,-1
 1306 391 l 1,25,-1
 1306 0 l 1,26,-1
 1025 0 l 1,27,-1
 1025 402 l 1,28,-1
 1018 402 l 2,29,30
 944 402 944 402 911.5 354.5 c 128,-1,31
 879 307 879 307 879 186 c 2,32,-1
 879 0 l 1,33,-1
 597 0 l 1,8,-1
1165 668 m 1,34,-1
 1171 668 l 1,35,-1
 1264 901 l 1,36,-1
 1073 901 l 1,37,-1
 1165 668 l 1,34,-1
EndSplineSet
EndChar

StartChar: uni046E
Encoding: 1134 1134 538
Width: 918
GlyphClass: 1
Flags: W
LayerCount: 2
Fore
SplineSet
330 859 m 2,0,1
 413 859 413 859 453 911 c 128,-1,2
 493 963 493 963 493 1052 c 0,3,4
 493 1135 493 1135 449.5 1182 c 128,-1,5
 406 1229 406 1229 318 1229 c 2,6,-1
 105 1229 l 1,7,-1
 105 1456 l 1,8,-1
 318 1456 l 2,9,10
 532 1456 532 1456 653.5 1361.5 c 128,-1,11
 775 1267 775 1267 775 1078 c 0,12,13
 775 958 775 958 722 874 c 128,-1,14
 669 790 669 790 573 747 c 1,15,16
 692 704 692 704 755.5 617.5 c 128,-1,17
 819 531 819 531 819 406 c 0,18,19
 819 205 819 205 701 93 c 128,-1,20
 583 -19 583 -19 382 -19 c 2,21,-1
 333 -19 l 2,22,23
 288 -19 288 -19 267.5 -45 c 128,-1,24
 247 -71 247 -71 247 -117 c 0,25,26
 247 -175 247 -175 282.5 -212.5 c 128,-1,27
 318 -250 318 -250 366 -274 c 1,28,-1
 290 -442 l 1,29,30
 140 -409 140 -409 66.5 -314.5 c 128,-1,31
 -7 -220 -7 -220 -9 -79 c 0,32,33
 -9 62 -9 62 76 135.5 c 128,-1,34
 161 209 161 209 309 209 c 2,35,-1
 365 209 l 2,36,37
 445 209 445 209 491 262 c 128,-1,38
 537 315 537 315 537 402 c 0,39,40
 537 515 537 515 482 573 c 128,-1,41
 427 631 427 631 322 631 c 2,42,-1
 198 631 l 1,43,-1
 198 859 l 1,44,-1
 330 859 l 2,0,1
512 1783 m 1,45,-1
 603 1912 l 1,46,-1
 857 1912 l 1,47,-1
 857 1895 l 1,48,-1
 607 1643 l 1,49,-1
 416 1643 l 1,50,-1
 165 1896 l 1,51,-1
 165 1912 l 1,52,-1
 420 1912 l 1,53,-1
 512 1783 l 1,45,-1
EndSplineSet
EndChar

StartChar: uni046F
Encoding: 1135 1135 539
Width: 911
GlyphClass: 1
Flags: W
LayerCount: 2
Fore
SplineSet
354 624 m 2,0,1
 420 624 420 624 451.5 661 c 128,-1,2
 483 698 483 698 483 762 c 0,3,4
 483 818 483 818 443.5 850.5 c 128,-1,5
 404 883 404 883 325 883 c 2,6,-1
 108 883 l 1,7,-1
 108 1082 l 1,8,-1
 325 1082 l 2,9,10
 530 1082 530 1082 647 1008.5 c 128,-1,11
 764 935 764 935 764 788 c 0,12,13
 764 702 764 702 722.5 640 c 128,-1,14
 681 578 681 578 605 542 c 1,15,16
 703 509 703 509 755.5 448.5 c 128,-1,17
 808 388 808 388 808 304 c 0,18,19
 808 152 808 152 698.5 66.5 c 128,-1,20
 589 -19 589 -19 404 -19 c 2,21,-1
 361 -19 l 2,22,23
 307 -19 307 -19 282.5 -45 c 128,-1,24
 258 -71 258 -71 258 -117 c 0,25,26
 258 -175 258 -175 288.5 -212.5 c 128,-1,27
 319 -250 319 -250 361 -274 c 1,28,-1
 285 -427 l 1,29,30
 166 -387 166 -387 93 -295 c 128,-1,31
 20 -203 20 -203 19 -79 c 0,32,33
 19 47 19 47 95.5 113.5 c 128,-1,34
 172 180 172 180 304 180 c 2,35,-1
 356 180 l 2,36,37
 435 180 435 180 481 216.5 c 128,-1,38
 527 253 527 253 527 314 c 0,39,40
 527 383 527 383 480.5 418.5 c 128,-1,41
 434 454 434 454 346 454 c 2,42,-1
 204 454 l 1,43,-1
 204 624 l 1,44,-1
 354 624 l 2,0,1
440 1439 m 1,45,-1
 531 1568 l 1,46,-1
 785 1568 l 1,47,-1
 785 1551 l 1,48,-1
 535 1299 l 1,49,-1
 344 1299 l 1,50,-1
 93 1552 l 1,51,-1
 93 1568 l 1,52,-1
 348 1568 l 1,53,-1
 440 1439 l 1,45,-1
EndSplineSet
EndChar

StartChar: uni0472
Encoding: 1138 1138 542
Width: 1232
GlyphClass: 1
Flags: W
LayerCount: 2
Fore
SplineSet
1145 524 m 2,0,1
 1145 267 1145 267 1000 123 c 128,-1,2
 855 -21 855 -21 614 -21 c 256,3,4
 373 -21 373 -21 229 123 c 128,-1,5
 85 267 85 267 85 524 c 2,6,-1
 85 930 l 2,7,8
 85 1186 85 1186 228.5 1331.5 c 128,-1,9
 372 1477 372 1477 613 1477 c 256,10,11
 854 1477 854 1477 999.5 1331.5 c 128,-1,12
 1145 1186 1145 1186 1145 930 c 2,13,-1
 1145 524 l 2,0,1
764 747 m 0,14,15
 787 747 787 747 815.5 766.5 c 128,-1,16
 844 786 844 786 864 817 c 1,17,-1
 864 933 l 2,18,19
 864 1092 864 1092 799.5 1173 c 128,-1,20
 735 1254 735 1254 613 1254 c 0,21,22
 490 1254 490 1254 428 1173.5 c 128,-1,23
 366 1093 366 1093 366 933 c 2,24,-1
 366 784 l 1,25,26
 391 823 391 823 426.5 844.5 c 128,-1,27
 462 866 462 866 510 866 c 0,28,29
 559 866 559 866 637.5 806.5 c 128,-1,30
 716 747 716 747 764 747 c 0,14,15
864 615 m 1,31,32
 838 585 838 585 804.5 569.5 c 128,-1,33
 771 554 771 554 731 554 c 0,34,35
 667 554 667 554 596 613.5 c 128,-1,36
 525 673 525 673 478 673 c 0,37,38
 444 673 444 673 408 633.5 c 128,-1,39
 372 594 372 594 366 543 c 1,40,-1
 366 524 l 2,41,42
 366 362 366 362 428.5 281 c 128,-1,43
 491 200 491 200 614 200 c 256,44,45
 737 200 737 200 800.5 281 c 128,-1,46
 864 362 864 362 864 524 c 2,47,-1
 864 615 l 1,31,32
EndSplineSet
EndChar

StartChar: uni0473
Encoding: 1139 1139 543
Width: 1007
GlyphClass: 1
Flags: W
LayerCount: 2
Fore
SplineSet
59 551 m 2,0,1
 59 795 59 795 175.5 948.5 c 128,-1,2
 292 1102 292 1102 503 1102 c 0,3,4
 713 1102 713 1102 831 948.5 c 128,-1,5
 949 795 949 795 949 551 c 2,6,-1
 949 528 l 2,7,8
 949 284 949 284 831.5 131.5 c 128,-1,9
 714 -21 714 -21 505 -21 c 0,10,11
 293 -21 293 -21 176 131 c 128,-1,12
 59 283 59 283 59 528 c 2,13,-1
 59 551 l 2,0,1
612 559 m 0,14,15
 629 559 629 559 643 575 c 128,-1,16
 657 591 657 591 665 619 c 1,17,18
 657 739 657 739 618.5 810 c 128,-1,19
 580 881 580 881 503 881 c 0,20,21
 420 881 420 881 382.5 801.5 c 128,-1,22
 345 722 345 722 346 598 c 1,23,-1
 351 594 l 1,24,25
 360 616 360 616 382 631.5 c 128,-1,26
 404 647 404 647 430 647 c 0,27,28
 464 647 464 647 521 603 c 128,-1,29
 578 559 578 559 612 559 c 0,14,15
407 498 m 0,30,31
 383 498 383 498 366 467 c 128,-1,32
 349 436 349 436 349 392 c 1,33,34
 362 300 362 300 399.5 249.5 c 128,-1,35
 437 199 437 199 505 199 c 0,36,37
 579 199 579 199 616.5 265 c 128,-1,38
 654 331 654 331 658 439 c 1,39,-1
 654 444 l 1,40,41
 645 429 645 429 627 419.5 c 128,-1,42
 609 410 609 410 590 410 c 0,43,44
 544 410 544 410 492.5 454 c 128,-1,45
 441 498 441 498 407 498 c 0,30,31
EndSplineSet
EndChar

StartChar: uni0474
Encoding: 1140 1140 544
Width: 1154
GlyphClass: 1
Flags: W
LayerCount: 2
Fore
SplineSet
566 372 m 1,0,-1
 578 313 l 1,1,-1
 584 313 l 1,2,-1
 595 369 l 1,3,-1
 756 1135 l 1,4,5
 801 1306 801 1306 874.5 1390.5 c 128,-1,6
 948 1475 948 1475 1068 1475 c 0,7,8
 1094 1475 1094 1475 1116 1470 c 128,-1,9
 1138 1465 1138 1465 1156 1455 c 1,10,-1
 1136 1239 l 1,11,12
 1133 1240 1133 1240 1117.5 1242 c 128,-1,13
 1102 1244 1102 1244 1093 1244 c 0,14,15
 1058 1244 1058 1244 1033.5 1211 c 128,-1,16
 1009 1178 1009 1178 1001 1118 c 1,17,-1
 728 0 l 1,18,-1
 435 0 l 1,19,-1
 15 1456 l 1,20,-1
 311 1456 l 1,21,-1
 566 372 l 1,0,-1
EndSplineSet
EndChar

StartChar: uni0475
Encoding: 1141 1141 545
Width: 918
GlyphClass: 1
Flags: W
LayerCount: 2
Fore
SplineSet
427 400 m 1,0,-1
 438 332 l 1,1,-1
 444 332 l 1,2,-1
 455 400 l 1,3,-1
 517 773 l 1,4,5
 560 937 560 937 636 1019.5 c 128,-1,6
 712 1102 712 1102 833 1102 c 0,7,8
 858 1102 858 1102 880 1097.5 c 128,-1,9
 902 1093 902 1093 921 1083 c 1,10,-1
 900 867 l 1,11,12
 896 868 896 868 880.5 870.5 c 128,-1,13
 865 873 865 873 857 873 c 0,14,15
 823 873 823 873 798.5 841.5 c 128,-1,16
 774 810 774 810 768 759 c 1,17,-1
 581 0 l 1,18,-1
 307 0 l 1,19,-1
 13 1082 l 1,20,-1
 310 1082 l 1,21,-1
 427 400 l 1,0,-1
EndSplineSet
EndChar

StartChar: uni047A
Encoding: 1146 1146 550
Width: 1232
GlyphClass: 1
Flags: W
LayerCount: 2
Fore
SplineSet
704 1126 m 1,0,-1
 526 1126 l 1,1,-1
 526 1577 l 1,2,-1
 704 1577 l 1,3,-1
 704 1126 l 1,0,-1
707 -136 m 1,4,-1
 528 -136 l 1,5,-1
 528 324 l 1,6,-1
 707 324 l 1,7,-1
 707 -136 l 1,4,-1
1145 524 m 2,8,9
 1145 267 1145 267 1000 123 c 128,-1,10
 855 -21 855 -21 614 -21 c 256,11,12
 373 -21 373 -21 229 123 c 128,-1,13
 85 267 85 267 85 524 c 2,14,-1
 85 930 l 2,15,16
 85 1186 85 1186 228.5 1331.5 c 128,-1,17
 372 1477 372 1477 613 1477 c 256,18,19
 854 1477 854 1477 999.5 1331.5 c 128,-1,20
 1145 1186 1145 1186 1145 930 c 2,21,-1
 1145 524 l 2,8,9
864 933 m 2,22,23
 864 1092 864 1092 799.5 1173 c 128,-1,24
 735 1254 735 1254 613 1254 c 0,25,26
 490 1254 490 1254 428 1173.5 c 128,-1,27
 366 1093 366 1093 366 933 c 2,28,-1
 366 524 l 2,29,30
 366 362 366 362 428.5 281 c 128,-1,31
 491 200 491 200 614 200 c 256,32,33
 737 200 737 200 800.5 281 c 128,-1,34
 864 362 864 362 864 524 c 2,35,-1
 864 933 l 2,22,23
EndSplineSet
EndChar

StartChar: uni047B
Encoding: 1147 1147 551
Width: 1009
GlyphClass: 1
Flags: W
LayerCount: 2
Fore
SplineSet
597 765 m 1,0,-1
 418 765 l 1,1,-1
 418 1205 l 1,2,-1
 597 1205 l 1,3,-1
 597 765 l 1,0,-1
591 -126 m 1,4,-1
 413 -126 l 1,5,-1
 413 328 l 1,6,-1
 591 328 l 1,7,-1
 591 -126 l 1,4,-1
59 551 m 2,8,9
 59 795 59 795 175.5 948.5 c 128,-1,10
 292 1102 292 1102 503 1102 c 0,11,12
 713 1102 713 1102 831 948.5 c 128,-1,13
 949 795 949 795 949 551 c 2,14,-1
 949 528 l 2,15,16
 949 284 949 284 831.5 131.5 c 128,-1,17
 714 -21 714 -21 505 -21 c 0,18,19
 293 -21 293 -21 176 131 c 128,-1,20
 59 283 59 283 59 528 c 2,21,-1
 59 551 l 2,8,9
340 528 m 2,22,23
 340 377 340 377 377.5 288 c 128,-1,24
 415 199 415 199 505 199 c 0,25,26
 591 199 591 199 629 288 c 128,-1,27
 667 377 667 377 667 528 c 2,28,-1
 667 551 l 2,29,30
 667 700 667 700 629 790.5 c 128,-1,31
 591 881 591 881 503 881 c 256,32,33
 415 881 415 881 377.5 790 c 128,-1,34
 340 699 340 699 340 551 c 2,35,-1
 340 528 l 2,22,23
EndSplineSet
EndChar

